<svg id="Calque_1" data-name="Calque 1" xmlns="http://www.w3.org/2000/svg" version="1.1" viewBox="184.78 291.78 242.78 209.62">   <defs>     <style>       .cls-1 {         fill: #573e91;         stroke-width: 0px;       }     </style>   </defs>   <path class="cls-1" d="M285.6,490.7c5.3-.9,8.7-3.6,11.3-7.2,3.3-4.5,3.1-4.6,6.1.4,2.5,4.1,4.9,8.3,6.6,12.8.2.6.5,1.3,1.2,1.4,2,.3,2.6,1.9,3.3,3.3.9-.1.8-.7.6-1-1.3-3.4-2.3-6.8-4.3-10-2.9-4.6-6.2-9.4-6.9-15.8,3.7,2.7,7.1,4.5,11.4,5.4,3.7.8,7.2,2.8,11.4,2.9-2.5-2.6-5.4-4.3-9.1-5.5-5.9-1.9-11.6-3.8-14.4-10.1-2-4.5-5.6-8.5-6.5-13.5-1.7-8.8-3.4-17.6-4.9-26.4-.5-3-1.1-6-.9-9.1.3-4.6,2.7-6.5,7.6-6.4,7.2.1,14.3,0,21.5.2,2.6,0,4.5,1.5,6,3.3,5.1,6.1,10.2,12.3,15,18.6,2.1,2.7,4.2,5.5,4.9,9,.6,3.2-.7,4.7-4.2,4.9-1.8,0-3.4-.4-5-.9-3.9-1.3-7.7-1-11.5.4-1.3.5-2.2,1.3-2.7,2.1,9.2.9,18.3,1.8,27.4,2.8,1.3.1,2.1.8,2.6,1.8,1.4,2.8,4.3,4.3,6.6,6.2,1.2,1,1.5.4,1.7-.8.3-2.4,1.5-3,3.6-1.5,4.2,3,8.7,4.7,14.1,4.6,1.2,0,2.4.7,3.5,1,.8.2,1.8.8,2.4.6,2.4-.8,4.4-.1,6.7,1.2-.2-2.9-2.4-3.7-4.2-4.6-2.2-1-4.6-1.2-7-1.1-1.6,0-3.3,0-4.8-.5-.9-.3-1.9-.6-1.8-1.7.1-1.1,1.2-1.4,2.1-1.4,2.5,0,4.9-.3,7-2.2-2.1-.8-4.2-.8-6.2-.3-7.5,2.2-13.5-.4-18.8-5.1-.7-.7-1.3-1.6-1.8-2.4-1.1-1.8-2.3-3.5-3.9-4.9-7.9-6.8-14.1-15.1-20.7-22.9-1.1-1.2-1.9-2.7-2.7-4.1-1.1-1.9-.5-3,1.9-3.3,7-.6,13.8-2.2,20.4-4.2,5.1-1.6,9.7-4.5,14.2-7.4,7-4.5,13.2-9.7,17.9-16.4,6.4-9,10.6-18.7,11.7-29.6.3-3,1.1-6,3-8.5,2.5-3.4,4-7.5,7.3-10.1,2.6-2.1,5.6-4.1,9.7-3.1,3.5.9,7,.5,10.6.5,1.1,0,2.3,0,2.8-1.1.6-1.1-.6-1.8-1.2-2.5-2.4-2.4-5.6-3.4-8.6-4.7-2.1-.8-3.3-1.6-4.1-4.2-2.2-6.9-6.1-12.9-12.3-17.8-11.1-9-23.8-10.9-37.8-9.7-10.3.9-19.2,5-28.6,8.4-5.3,1.9-9.8,5.8-15.7,6.4-6.5.8-12.8,2.2-18.9,4.3-7.2,2.5-15.1,2.2-22.5,4-4.2,1-8.4,1.7-12.6,2.5-3,.6-5.6.2-8.6-1-8.1-3.4-16.2-6.9-24.2-10.5-4.4-2-8.7-4.1-13.1-6.1-.9-.4-1.4-1.2-2-1.9-2.2-2.7-5.1-3.7-8.6-3.2-.7.1-1.4.4-2,.2-6.5-1.5-12.4,1-18.6,2.1-1.9.3-3.1,1.2-3.2,2.8-.2,1.6,1.5,1.8,2.7,2.2,14.8,4.8,29.4,10.3,42.3,18.8,1.2.8,2.7,1.4,4,2.2,2.5,1.5,4.7,3,4.8,6.4,0,3.1,2.9,5.1,5.3,7,3.2,2.5,3.3,2.8-.2,5.2-5.2,3.7-9.7,8-14,12.5-.5.5-1.6,1.1-1.1,2,.4.8,1.4.4,2.1.5,4,.4,8,.8,11.7,2.4,2.3,1.1,5,1.4,7.5,1.7,2.4.3,3.6,1.6,3.7,3.8.4,8.4,4.1,15.8,8,23,2.5,4.5,6.8,8.2,11.9,10.6,5.2,2.5,8.3,6.2,8.8,11.6.2,2,.8,3.8,2.1,5.4,2.1,2.6,3.3,5.6,3.9,8.8,2.3,11.2,4.4,22.5,6.9,33.6.7,3.1.8,6.1.4,9.3,0,.6-.2,1.3,0,1.9,2.4,8.2-2.4,13.5-8.2,18.6-.5.4-1,.9-1.4,1.3-.2.2-.2.5-.5,1.3"></path> </svg>