<svg id="Calque_1" data-name="Calque 1" xmlns="http://www.w3.org/2000/svg" version="1.1" viewBox="137.6 295.4 338.27 201.36">   <defs>     <style>       .cls-1 {         fill: none;         stroke: #573e91;         stroke-miterlimit: 10;         stroke-width: 1.5px;       }     </style>   </defs>   <path class="cls-1" d="M150.9,408.5c1.3-3.1,2.4-5.8,2.9-8.7,1.6-9.3.3-18.6-1-27.8-1.5-10.5-3.4-20.9-4.5-31.4-.2-2.1,0-4.3-1.7-6.6-1.1,3.1-2.2,5.7-2,8.6.5,9.9,1.8,19.7,3,29.5.3,2.2.1,4.4.7,6.6,2.3,7.6,2,15.4,2.1,23.1,0,2.1-.5,4.2.5,6.7M330.7,421.2c-1.4,3.1-1.3,6.3-1.6,9.4-.5,4.3-1.9,8.1-5.3,11.2-1.4,1.3-2.5,2.9-2.4,4.7,0,5.9-.3,11.8.3,17.7.6,5.5,4.1,9.5,7.2,13.8.3.4.8.7,1.1,1.1,3.2,3.3,2.6,5.7-2.1,6.6-8.1,1.5-16.9-1.7-17.7-11.1-.2-2-.7-4.2-3.2-5.3-1.5-.6-1-2-.6-2.9,1.2-2.4,1.5-5.1,2.8-7.5,1.5-2.7.9-5.9,1.3-8.8.7-4.7,1.8-9.4,1.3-14.2-.2-1.5-1.2-2.6-1.3-4-.5-4.6.7-9,2.1-13.3,1.4-4.4.3-8.6.2-12.9,0-2.1-2.3-1.5-3.7-1.1-5.9,1.9-11.9,3.9-17.8,6-14.7,5.4-29.9,7.8-45.6,6.7-8.7-.6-16.7-3.5-24.7-6.7-1.9-.7-3.4-2.4-4.4-4.1-.8-1.2-1.8-2.1-2.8-3.1-.6-.6-1.3-1-2.2-.7-1.1.3-.7,1.1-.8,1.8-.3,2.1-2.4,3.4-3.8,4.8-3.6,3.5-6.5,7.2-5.5,12.4.2.9-.3,1.9-.7,2.7-.5,1-1.4,1.6-2.6,1.5-1.2-.1-1.6-.9-1.9-1.9-.4-1.4-.8-2.8-1.4-4.1-1-2.1-2.5-2.3-4.2-.7-2.1,1.9-3.6,4.1-2.9,7,.2.9-.1,1.7-.5,2.5-.8,1.7-2.1,1.9-3.3.4-.8-.9-1.4-2-1.9-3.1-.8-1.7-2.3-2.1-3.9-2.5-1-.3-1.6.2-1.8,1.1-.2.6-.3,1.2-.4,1.7-1.1,5.3-2.1,10.6-3.1,15.8-1.4,7.3-.3,14.8,1.8,22,2.1,7.4,6,13.7,12.2,18.6,2,1.6,2,3.3-.1,4.7-3.6,2.5-7.9,2.4-11.8,1.3-3.5-1-6.1-3.4-6.1-7.4,0-.7-.3-1.4-.6-1.9-.5-.9-1.2-1.6-2.4-1.1-1.2.5-1,1.4-.6,2.4,1.4,3.3,3,6.6,5.8,9.2,2.6,2.4,2,4.5-1.6,5.6-5,1.6-12.4-.7-15.5-4.6-1.2-1.5-1-3.2-1.1-4.9-.2-2.8-.7-3.1-3.6-2.3-2.1.6-2.5-.6-2.4-2,.1-2.6.3-5.1.6-7.6,1.1-10.4.3-20.8-.8-31.1-.2-2-.6-3.9-.6-5.9,0-5.7-2.5-10.8-4.4-16-1.7-4.7-1-9.3.2-13.9,3.5-13.5,3.7-27,0-40.5-.9-3.3-.8-6.8-1.6-10.1-2-7.4-1.1-14.9-1.8-22.3-.6-6,.5-12.1,4.1-16.9,2.7-3.7,6.6-6.9,12.3-7.7,4.2-.6,8.6.2,12.7-1.1.6-.2,1.5-.1,2.1.1,4.6,1.9,9.3,1.6,14.1.8,3.7-.7,7.5-.2,11.2.8,8.9,2.2,18,1,27,.9,6,0,12-.8,18-.9,7.1-.2,14.2.7,21.3.2,3.7-.3,7.3.9,11.1,1,4.6,0,9-.5,13.2-1.6,4.1-1.1,8.1-.3,12.2-.2,5.2,0,10.4.3,15.5.1,10.2-.4,20.4-2.4,30.6-1.6,7.9.6,16,.2,23.8,2,2.6.6,5.3,0,7.9.8,1.1.4,1.5-.5,1.3-1.3-.5-2.1,1.1-2.7,2.6-3.3,6.1-2.4,13.6-.8,18.1,3.8,2.8,2.9,4.6,3.3,7.9,1.6,1.7-.9,1.9-1.8.2-2.8-.5-.3-1-.5-1.4-.8-4.4-2.5-4.7-5.9-.9-9.1,1.2-1,2.5-1.7,3.8-2.6.5-.3,1.2-.6,1.7,0,.4.5-.1.9-.5,1.3-.4.5-.9.9-1.2,1.4-.7,1-.7,1.7.8,2.1,1.7.5,3.2.8,5,0,8.7-3.1,17.4-4.3,26.3-.6,2.2.9,4.7.5,7,0,1.1-.3,1.5-.8,1.2-1.9-.5-1.9.5-1.8,1.9-1.2,4.3,2.1,4.6,6.4.7,9-1.1.7-2.5,1.1-3.7,1.6-1.5.5-3.5.9-2.8,3,.4,1.3,3.6,1.9,5.1,1,2.1-1.3,4.2-2.7,6.2-4.2,3.7-2.9,14.1-3.9,18.4-1.7,1.3.7,1.9,1.8,1.8,3.2,0,.8-.4,1.5-.7,2.2-3,6.8-12.5,12-20.3,11.2-1.1-.1-2.2-.1-3.3-.3-2.3-.2-4.2-.1-3.3,2.9,0,.2.1.5,0,.5-3.2,1.3-1.2,4.3-2.2,6.3-1.1,2.2-1.2,4.6-1.4,7-.3,3.1-.9,6.1-2,9-1.8,4.6-1.3,9.2-.2,13.8.4,1.8.6,3.7,1,5.5.6,2.5-.6,3.8-2.9,4.8-2.2.9-4.5.8-6.7.9-5.2.3-10.3.6-15.2-1.9-2.1-1-3.2-2.1-2.6-4.4.2-.8.8-2-.4-2.5-1-.4-1.9.2-2.7.8-5.8,5-10.9,10.5-14.7,17-2.4,4.2-5.7,7.6-10,9.9-3.2,1.7-5.6,4.3-8.4,6.4-4.5,3.2-7.4,7.7-11.1,11.4-3.7,3.7-8.8,5.4-14.2,5.5-1.6,0-2.3.4-2.5,1.9-.8,4.2-1.3,8.5-.6,12.7.8,4.7.3,9.3-1.8,13.6-1.9,3.8-2,7.5-1.1,11.5.9,4,2.4,7.9,3.6,11.8,1.3,4.3,3.8,8.1,5.5,12.2,1,2.3,2.8,3.9,4.6,5.7,2.9,2.9,2.3,5.2-1.9,6-5.9,1.2-11.4.5-15.8-4.1-1.2-1.3-1.4-2.7-1.3-4.3.1-3.6-.7-4.3-4.5-4.3-.9,0-1.5-.3-1.6-1-.2-.7-.4-1.6-.1-2.3,1.9-4.8.8-9.8,1.2-14.7.2-2.3-.4-4.7-.7-7.1-.4-3,0-6-1-9.1-.6-1.9-1.1-3.9-2.5-5.2-1.8-1.7-1.7-3.5-1.1-5.4,1.4-4.3.3-8.3-.9-12.4"></path> </svg>