<svg id="Calque_1" data-name="Calque 1" xmlns="http://www.w3.org/2000/svg" version="1.1" viewBox="136.75 295.01 339.77 201.6">   <defs>     <style>       .cls-1 {         fill: #573e91;         stroke-width: 0px;       }     </style>   </defs>   <path class="cls-1" d="M149.7,408.4c1.3-3.1,2.4-5.9,2.9-8.8,1.6-9.4.3-18.7-1-28-1.5-10.6-3.4-21.1-4.6-31.7-.2-2.1,0-4.4-1.7-6.7-1.1,3.1-2.2,5.7-2,8.7.5,10,1.8,19.9,3,29.8.3,2.2.1,4.5.8,6.7,2.3,7.6,2,15.5,2.2,23.3,0,2.1-.5,4.3.5,6.8M331,421.2c-1.4,3.1-1.3,6.3-1.6,9.4-.5,4.4-1.9,8.2-5.3,11.3-1.4,1.3-2.5,2.9-2.5,4.8,0,5.9-.3,11.9.3,17.8.6,5.6,4.2,9.6,7.3,13.9.3.4.8.7,1.1,1.1,3.3,3.3,2.6,5.8-2.1,6.7-8.2,1.5-17-1.7-17.9-11.2-.2-2.1-.7-4.3-3.3-5.3-1.5-.6-1.1-2-.6-3,1.2-2.4,1.5-5.1,2.9-7.5,1.5-2.7.9-5.9,1.3-8.9.7-4.7,1.8-9.4,1.3-14.3-.2-1.6-1.2-2.6-1.3-4.1-.5-4.7.7-9.1,2.1-13.4,1.4-4.4.3-8.7.2-13.1,0-2.1-2.3-1.5-3.8-1.1-6,2-12,3.9-17.9,6.1-14.8,5.4-30.1,7.9-46,6.7-8.8-.6-16.9-3.5-24.9-6.7-1.9-.8-3.4-2.4-4.5-4.1-.8-1.2-1.8-2.1-2.8-3.2-.6-.6-1.3-1-2.2-.7-1.1.3-.7,1.1-.8,1.9-.3,2.2-2.4,3.4-3.8,4.8-3.6,3.5-6.6,7.2-5.6,12.5.2,1-.3,1.9-.7,2.7-.5,1-1.4,1.6-2.7,1.5-1.2-.1-1.7-.9-2-1.9-.4-1.4-.8-2.8-1.4-4.2-1-2.1-2.5-2.3-4.2-.8-2.1,2-3.7,4.1-2.9,7.1.2.9-.1,1.7-.5,2.5-.8,1.7-2.1,1.9-3.4.4-.8-.9-1.5-2-2-3.1-.8-1.7-2.3-2.1-3.9-2.5-1-.3-1.6.2-1.8,1.1-.2.6-.3,1.2-.4,1.8-1.1,5.3-2.1,10.7-3.1,16-1.4,7.4-.3,14.9,1.8,22.2,2.1,7.4,6,13.8,12.4,18.8,2,1.6,2,3.3-.1,4.7-3.7,2.5-8,2.4-11.9,1.3-3.5-1-6.2-3.5-6.2-7.4,0-.7-.3-1.4-.6-2-.5-.9-1.2-1.6-2.4-1.1-1.2.5-1,1.4-.6,2.4,1.4,3.4,3,6.6,5.9,9.3,2.7,2.5,2,4.5-1.6,5.7-5,1.6-12.5-.7-15.6-4.7-1.2-1.5-1-3.3-1.1-5-.2-2.8-.7-3.2-3.6-2.3-2.1.6-2.5-.6-2.5-2,.1-2.6.3-5.2.6-7.7,1.1-10.5.3-21-.9-31.4-.2-2-.6-3.9-.6-5.9,0-5.7-2.6-10.9-4.5-16.1-1.7-4.7-1-9.4.2-14,3.5-13.7,3.8-27.2,0-40.9-.9-3.3-.8-6.9-1.6-10.2-2-7.4-1.1-15-1.8-22.5-.6-6.1.5-12.2,4.1-17,2.7-3.7,6.7-7,12.4-7.8,4.3-.6,8.6.2,12.8-1.1.6-.2,1.5-.1,2.2.1,4.7,1.9,9.4,1.6,14.2.8,3.7-.7,7.6-.2,11.3.8,9,2.3,18.1,1,27.2.9,6.1,0,12.1-.8,18.2-.9,7.2-.2,14.3.8,21.5.2,3.8-.3,7.4.9,11.2,1,4.6,0,9-.5,13.3-1.7,4.2-1.2,8.2-.3,12.3-.2,5.2,0,10.5.3,15.7.1,10.3-.4,20.6-2.4,30.9-1.6,8,.6,16.1.2,24,2.1,2.6.6,5.3,0,7.9.9,1.1.4,1.5-.5,1.3-1.3-.5-2.1,1.1-2.7,2.7-3.3,6.2-2.4,13.7-.8,18.2,3.8,2.9,3,4.7,3.3,7.9,1.6,1.7-.9,1.9-1.8.2-2.8-.5-.3-1-.5-1.4-.8-4.4-2.5-4.8-6-.9-9.2,1.2-1,2.5-1.8,3.8-2.6.5-.3,1.2-.7,1.7,0,.4.5-.1,1-.5,1.3-.4.5-.9.9-1.2,1.4-.7,1-.7,1.7.8,2.1,1.7.5,3.2.8,5.1,0,8.7-3.2,17.6-4.3,26.6-.6,2.2.9,4.7.5,7.1,0,1.1-.3,1.5-.8,1.2-1.9-.5-2,.5-1.9,1.9-1.2,4.4,2.1,4.7,6.5.7,9.1-1.2.8-2.5,1.1-3.8,1.6-1.5.6-3.5.9-2.8,3.1.4,1.3,3.7,2,5.2,1.1,2.2-1.3,4.3-2.7,6.3-4.3,3.8-2.9,14.2-3.9,18.5-1.7,1.4.7,1.9,1.8,1.8,3.2,0,.8-.4,1.5-.7,2.2-3.1,6.9-12.6,12.1-20.5,11.3-1.1-.1-2.2-.1-3.3-.3-2.3-.2-4.3-.1-3.3,2.9,0,.2.1.5,0,.5-3.3,1.3-1.2,4.3-2.3,6.4-1.1,2.2-1.2,4.7-1.5,7.1-.3,3.1-.9,6.1-2.1,9.1-1.8,4.6-1.3,9.3-.2,13.9.4,1.8.6,3.8,1,5.6.6,2.5-.6,3.9-3,4.8-2.2.9-4.5.8-6.8.9-5.2.3-10.4.6-15.3-1.9-2.1-1-3.3-2.1-2.6-4.4.2-.8.8-2-.4-2.5-1-.4-2,.2-2.7.8-5.8,5-11,10.6-14.8,17.1-2.4,4.2-5.8,7.6-10.1,10-3.2,1.8-5.6,4.4-8.5,6.4-4.6,3.2-7.4,7.7-11.2,11.5-3.7,3.8-8.9,5.4-14.4,5.6-1.7,0-2.3.4-2.6,1.9-.8,4.3-1.3,8.5-.6,12.8.8,4.7.3,9.4-1.8,13.7-1.9,3.9-2,7.6-1.1,11.6.9,4,2.5,7.9,3.6,11.9,1.3,4.4,3.8,8.2,5.6,12.3,1,2.3,2.9,4,4.6,5.7,2.9,2.9,2.3,5.2-1.9,6.1-6,1.2-11.5.5-15.9-4.1-1.2-1.3-1.4-2.7-1.3-4.3.1-3.7-.7-4.4-4.6-4.3-.9,0-1.5-.3-1.7-1-.2-.7-.4-1.6-.1-2.3,1.9-4.8.8-9.9,1.2-14.8.2-2.3-.4-4.8-.7-7.1-.4-3,0-6.1-1-9.1-.6-2-1.1-3.9-2.6-5.3-1.8-1.7-1.7-3.5-1.1-5.5,1.4-4.3.3-8.4-.9-12.5"></path> </svg>