<?xml version="1.0" encoding="UTF-8"?> <svg id="Calque_1" data-name="Calque 1" xmlns="http://www.w3.org/2000/svg" viewBox="0 0 458.51 49.5">   <defs>     <style>       .cls-1 {         fill: #563e91;         stroke-width: 0px;       }     </style>   </defs>   <path class="cls-1" d="M8.56,45.68c-2.96-2.31-5.12-5.32-6.5-9-1.38-3.69-2.06-7.71-2.06-12.07s.69-8.25,2.06-11.96c1.37-3.71,3.55-6.74,6.53-9.08C11.57,1.24,15.33.07,19.87.07s8.27,1.17,11.2,3.51c2.93,2.34,5.08,5.36,6.43,9.08,1.35,3.71,2.03,7.7,2.03,11.96s-.67,8.25-1.99,11.96c-1.33,3.71-3.46,6.74-6.39,9.07-2.93,2.34-6.69,3.51-11.27,3.51s-8.35-1.16-11.31-3.47ZM7.67,33.31c.8,2.86,2.2,5.28,4.19,7.25,1.99,1.97,4.64,2.96,7.94,2.96s5.93-1,7.91-2.99c1.97-1.99,3.36-4.42,4.16-7.29.8-2.86,1.2-5.74,1.2-8.63s-.4-5.76-1.2-8.63c-.8-2.86-2.19-5.29-4.16-7.29s-4.61-2.99-7.91-2.99-6.01.99-8.01,2.96c-1.99,1.97-3.38,4.38-4.16,7.22-.78,2.84-1.17,5.75-1.17,8.73s.4,5.83,1.2,8.7Z"/>   <path class="cls-1" d="M45.92,43.03h11.62V9.97l-9.28,9.07-3.92-4.54L59.46,0l4.54,1.79v41.25h10.59v5.64h-28.67v-5.64Z"/>   <path class="cls-1" d="M113.56,45.99l13.2-12.31h-45.3v-4.95h45.3l-13.2-11.68,3.99-3.65,19.59,17.74-19.59,18.35-3.99-3.51Z"/>   <path class="cls-1" d="M144.91,43.03h11.62V9.97l-9.28,9.07-3.92-4.54,15.12-14.51,4.54,1.79v41.25h10.59v5.64h-28.67v-5.64Z"/>   <path class="cls-1" d="M184.88,46.81c-2.77-1.56-5.17-3.78-7.18-6.67l5.02-3.92c1.24,2.16,2.9,3.91,4.98,5.26,2.08,1.35,4.46,2.03,7.11,2.03,3.53,0,6.29-.92,8.28-2.75s2.99-4.26,2.99-7.29c0-3.21-.97-5.68-2.92-7.42-1.95-1.74-4.5-2.61-7.67-2.61-4.08,0-7.7,1.65-10.86,4.95l-5.29-2.13,2.61-25.71h25.99v5.64h-21.24l-1.65,15.81c1.69-1.47,3.46-2.53,5.29-3.2,1.83-.66,3.85-1,6.05-1,3.3,0,6.15.65,8.56,1.96,2.41,1.31,4.24,3.12,5.5,5.43,1.26,2.32,1.89,4.96,1.89,7.94s-.76,5.89-2.27,8.32c-1.51,2.43-3.6,4.32-6.25,5.67-2.66,1.35-5.68,2.03-9.08,2.03-3.8,0-7.09-.78-9.86-2.34Z"/>   <path class="cls-1" d="M299.64,42.07l18.63-16.43c2.47-2.2,4.24-4.14,5.29-5.81,1.05-1.67,1.58-3.52,1.58-5.53,0-2.52-.84-4.58-2.51-6.19-1.67-1.6-3.77-2.41-6.29-2.41-3.02,0-5.55.78-7.56,2.34-2.02,1.56-3.44,3.78-4.26,6.67l-5.57-2.06c1.33-4.58,3.59-7.83,6.77-9.73,3.18-1.9,6.77-2.85,10.76-2.85,3.07,0,5.74.57,8.01,1.72,2.27,1.15,4.02,2.75,5.26,4.81,1.24,2.06,1.86,4.42,1.86,7.08,0,3.07-.64,5.73-1.93,7.97-1.28,2.25-3.51,4.72-6.67,7.42l-16.29,13.95h27.08v5.64h-32.38l-1.79-6.6Z"/>   <path class="cls-1" d="M346.49,45.68c-2.96-2.31-5.12-5.32-6.5-9-1.38-3.69-2.06-7.71-2.06-12.07s.69-8.25,2.06-11.96c1.37-3.71,3.55-6.74,6.53-9.08,2.98-2.34,6.74-3.51,11.27-3.51s8.27,1.17,11.2,3.51c2.93,2.34,5.08,5.36,6.43,9.08s2.03,7.7,2.03,11.96-.67,8.25-1.99,11.96c-1.33,3.71-3.46,6.74-6.39,9.07-2.93,2.34-6.69,3.51-11.27,3.51s-8.35-1.16-11.31-3.47ZM345.6,33.31c.8,2.86,2.2,5.28,4.19,7.25,1.99,1.97,4.64,2.96,7.94,2.96s5.93-1,7.91-2.99c1.97-1.99,3.36-4.42,4.16-7.29.8-2.86,1.2-5.74,1.2-8.63s-.4-5.76-1.2-8.63c-.8-2.86-2.19-5.29-4.16-7.29s-4.61-2.99-7.91-2.99-6.01.99-8.01,2.96c-1.99,1.97-3.38,4.38-4.16,7.22-.78,2.84-1.17,5.75-1.17,8.73s.4,5.83,1.2,8.7Z"/>   <path class="cls-1" d="M382.27,42.07l18.63-16.43c2.47-2.2,4.24-4.14,5.29-5.81s1.58-3.52,1.58-5.53c0-2.52-.84-4.58-2.51-6.19-1.67-1.6-3.77-2.41-6.29-2.41-3.02,0-5.55.78-7.56,2.34-2.02,1.56-3.44,3.78-4.26,6.67l-5.57-2.06c1.33-4.58,3.59-7.83,6.77-9.73,3.18-1.9,6.77-2.85,10.76-2.85,3.07,0,5.74.57,8.01,1.72,2.27,1.15,4.02,2.75,5.26,4.81,1.24,2.06,1.86,4.42,1.86,7.08,0,3.07-.64,5.73-1.93,7.97-1.28,2.25-3.51,4.72-6.67,7.42l-16.29,13.95h27.08v5.64h-32.38l-1.79-6.6Z"/>   <path class="cls-1" d="M443.93,35.75h-23.85l-1.93-4.47L440.63.48h9.56v29.76h8.32v5.5h-8.32v12.92h-6.26v-12.92ZM443.93,30.25V6.05l-17.74,24.2h17.74Z"/>   <g>     <path class="cls-1" d="M232.97,20.93l-5.96-18.03v18.03h-3.04V.25h5.09l5.51,17.23L240.09.25h5.1v20.68h-3.04V2.9l-5.96,18.03h-3.22Z"/>     <path class="cls-1" d="M256.83.25h3.52l8.13,20.68h-3.28l-1.7-4.48h-9.92l-1.67,4.48h-3.1L256.83.25ZM254.51,13.97h8.04l-4.05-10.78-3.99,10.78Z"/>     <path class="cls-1" d="M275.15,20.93h-3.04V.25h3.04v20.68Z"/>     <path class="cls-1" d="M232.97,49.45l-5.96-18.03v18.03h-3.04v-20.68h5.09l5.51,17.23,5.51-17.23h5.1v20.68h-3.04v-18.03l-5.96,18.03h-3.22Z"/>     <path class="cls-1" d="M255.76,28.77h3.52l8.13,20.68h-3.28l-1.7-4.48h-9.92l-1.67,4.48h-3.1l8.02-20.68ZM253.43,42.49h8.04l-4.05-10.78-3.99,10.78Z"/>     <path class="cls-1" d="M268.36,28.77l5.9,10.1,6.02-10.1h3.34l-7.93,12.66v8.01h-3.04v-8.07l-7.63-12.61h3.34Z"/>   </g> </svg>