<svg id="Calque_1" data-name="Calque 1" xmlns="http://www.w3.org/2000/svg" version="1.1" viewBox="121.5 337.04 368.55 118.96">   <defs>     <style>       .cls-1 {         fill: #573e91;         stroke-width: 0px;       }     </style>   </defs>   <path class="cls-1" d="M413.6,432.4c1.8,1.1,3.8,1.5,5.6,2.1,5,1.7,10.3,2.4,15.5,2.9.7,0,1.4,0,2.1-.1.4,0,.9-.2.8-.7,0-.5-.5-.5-.9-.6-1.8-.1-3.5-.2-5.3-.5-3.5-.5-6.8-1.7-10.2-2.5-2.5-.6-5-.8-7.6-.6M458.2,416.5c-3.2,0-6.3-.3-9.4-.5-6.4-.4-12.8-1.3-19.1-2.4-2-.3-4-.5-6-.8-.7,0-1.5-.2-1.7.7-.1.9.7.9,1.3,1.1,2.7,1.1,5.7.8,8.5,1.5,4.8,1.2,9.6,2.1,14.6,2.1,2.8,0,5.5-.5,8.3-.4,1.3,0,2.6-.4,3.6-1.4M122.2,364.3c5,.8,10,1.7,15.1,2.6,6.3,1.1,12.5,2.5,18.8,3.3,6.4.8,12.8,2,19.3,2.6,7.4.7,14.7,1.7,22.1,2.4,7.8.7,15.6,1.5,23.4,1.7,4.5.1,9,.5,13.4.5,5.7,0,11.5-.1,17.2.2,6.1.4,12.2-.7,18.3-.8,9.3,0,18.6-1.5,27.9-1.8,7.6-.2,15.1-.9,22.7-.6,5.8.2,11.3-1,16.6-3.4,2.8-1.3,5.4-3.2,8.4-4.1,6.1-1.8,12.3-3.5,18.4-5.3,6.5-1.9,13-3.6,19.3-6,3.1-1.2,6.4-2.1,9.7-2.3,3.1-.2,6.1-.8,9.1-1.9,4.3-1.7,8.9-2.3,13.1-4.3,2.3-1.1,4.9-1.9,7.5-1.9,2.8,0,5.3-1.1,7.5-2.8,3.1-2.4,6.4-4.4,10.3-5.2,3-.7,5.3,1,5.8,4.1.4,2.7-.5,4.9-1.9,7.1-3.1,5-6.9,9.4-11.7,12.9-2.5,1.9-5.2,3.2-8.3,3.7-1.5.3-2.9.8-4.3,1.2-.4.1-.9.4-.9.9,0,.6.6.7,1,.8.3.1.7.2,1,.3,7.9,2.6,16.3,2.2,24.3,3.9,3.9.8,8.2,0,12.2,1.1,3.9,1,7.8,1.5,11.7,2,2.8.3,5.7-.2,8.4.5,3.7.9,7.5,1,10.3,4.4,3.4,4.1,2.8,9.1-2.1,11.3-5.1,2.2-10.4,2.4-15.8,1.6-2.4-.4-4.9-.7-7.4-.8-3.1,0-6.2.7-9.3.8-5.9.1-11.8-.7-17.7-1.3-2.9-.3-5.7-.6-8.6-.9-.7,0-1.5-.2-1.6.8,0,1,.9.9,1.5,1,.2,0,.3,0,.5,0,4.5.7,9,.9,13.5,1.8,3.9.8,7.9,1.7,11.9,1.6,2.8,0,5.5.6,8.2,1.1,3.4.6,7,.9,10.5,0,2.6-.6,5.2-.8,7.8-1.2,1.3-.2,2.6,0,3.5,1,1.2,1.3,2.3,2.6,3,4.2,1.9,4.7-.3,9.4-4.5,10.1-.5,0-.9.4-1.4.7-2.3,1.6-4.7,2.9-7.7,2.8-.5,0-1,0-1.2.5-.2.5.3.7.5,1,2.7,4.2,2.1,8.7-2.6,10.9-.6.3-1.1.7-1.6,1.3-1.9,2.8-4.5,4.6-7.9,5.1-1.8.3-3.5.5-5.3.8-1.2.2-1.7.8-1.3,2.1.6,2.1,0,3.9-1.4,5.5-.9,1-1.5,2.1-2,3.4-1.1,2.6-2.6,4.9-5.5,5.6-3.7,1-7.4,1.9-11,3.1-.7.2-1.5.2-2.2.2-4.3.2-8.4-1.3-12.6-1.8-6.5-.9-12.8-2.8-19.4-2.8-4.3,0-8.5-.6-12.7-1.4-5.1-1-10.3-2.1-15.5-2.6-5.6-.6-11.2-1.4-16.6-3.2-4.8-1.5-9.4-3.3-14.2-4.8-2.8-.9-5.6-1.7-8.5-2-6.5-.8-13-.5-19.4.6-10.4,1.7-20.8,2.4-31.2,3.4-6.5.7-13,1.9-19.5,2.8-10.1,1.4-20.3,2.2-30.4,3.5-14.1,1.7-28.1,3.8-42.1,5.6-14.9,1.9-52.2,3.1-67.1,4.5"></path> </svg>