<svg id="Calque_1" data-name="Calque 1" xmlns="http://www.w3.org/2000/svg" version="1.1" viewBox="171.1 195 270.9 401.5">   <defs>     <style>       .cls-1 {         fill: #573e91;         stroke-width: 0px;       }     </style>   </defs>   <path class="cls-1" d="M387,400.3c-1.8,1.9-3.1,4.2-4.2,6.6-.1.3-.2.6,0,.8.4.3.6-.1.8-.3,1.8-2,3.2-4.2,3.3-7.1M276.4,342.6c-2.1,1.7-3.2,3.5-3.8,5.7-.2.9.3,1.7,1,1.9.8.3.8-.7.9-1.2.6-1.9,1.1-3.9,1.8-6.3M309.6,356.7c.6-1,.7-2,.3-3-.8-1.8-1.6-3.7-2.4-5.5-.2-.4-.3-1-.9-.7-.6.3-.4.8-.2,1.3,1.1,1.9,1.7,4.1,2.3,6.2.2.5,0,1.2.8,1.6M229.5,448c.4,0,1,.2,1-.4,0-.5-.5-.5-.9-.5-2,0-4.1-.3-6.1,0-.4,0-1,0-1.2.4-.2.5.2,1,.5,1.3.7.6,1.3.8,2.3.3,1.4-.7,2.7-1.9,4.4-1.3M264.7,328.5c1-1.7,1.9-3,2.6-4.3.2-.4.4-.9,0-1.2-.7-.4-1.3-1.2-2.2-1-.6.1-.6.8-.6,1.3,0,1.6-.2,3.2.2,5.2M378.4,430.1c0-.3-.3-.8-.4-1.4-.3-1.4-.8-1.2-1.6-.3-.9,1.1-1.7,2.2-2.6,3.2-.2.2-.4.4-.3.7.2.3.5.2.7.2,1.1-.3,2.2-.6,3.3-1,.5-.2.9-.4.7-1.4M371.8,430.5c1.7-1.8,3.2-3.3,4.7-4.9.6-.6.3-1.1-.1-1.6-.5-.5-1.1-.8-1.7-.2-1.6,1.8-3,3.7-2.8,6.6M267.8,390.2c.9-1.3,2.1-2.2,3.3-3.1,2-1.4,2-1.4.1-3.1-.3-.3-.6-.5-.9-.8-.5-.4-1-.3-1.1.4-.2,2.2-1,4.3-1.4,6.6M384.3,415.2c.2-.5,0-.8-.5-.9-.8-.1-1.4-.6-2.1-1-1.9-.9-2.3-.8-3,1.3-.2.7-.4,1.3.8,1.2,1.2-.2,2.2.3,2.9,1.2.9,1.1,1.3.4,1.7-.3.2-.4.2-1,.2-1.5M259.6,300.7c0,0,.1,0,.2,0,0-1,0-2,0-3,0-.3,0-.7-.5-.7-.3,0-.4.3-.5.6-.4,1.2-.4,2.4-.2,3.6.2.9.6,2,.2,2.8-1.2,2.8.5,5.3.7,8,0,.3.2.6.6.5.3,0,.3-.4.3-.7,0-.7,0-1.4,0-2.2-.2-2.9-.5-5.9-.7-8.8M399.7,426.9c-2-1-3.7-2.6-6.2-1.5-.6.3-1.3,0-2-.2-.9-.2-1.8-.5-2.7-.8,1.2,1.4,2.6,2.5,3.9,3.7.6.5,1,.3,1.5-.2.4-.5.9-.9,1.6-.6,1.3.5,2.6-.2,3.9-.4M356.4,446.6c.8-.4,1-1.4,2-1.5.7,0,1-.7,1.1-1.3.9-3.2,1.6-6.4,1.9-9.6,0-.3,0-.6-.2-.7-.4-.2-.6.1-.8.4-.2.3-.4.6-.5.9-1.2,4-2.3,8-3.5,11.9M247.2,309c-.2-.8-.7-1-1.2-1.3-2.8-1.7-5.6-3.4-8.5-5-.5-.3-1.1-1.5-1.7-.5-.4.7.2,1.7.9,2.3.3.2.6.3.9.4,2.2.5,3.9,1.5,4.9,3.6.3.6.8.9,1.5.9,1-.1,2-.3,3.1-.4M267.9,370.2c.1,0,.2.1.4.2.6-1.4,2.6-2,2.5-3.8-.2-2.3-1.1-4.5-1.9-6.7-.2-.6-.7-.9-1-.1-.5,1-1,2-.9,3.2.3,2.4.6,4.8,1,7.2M391.1,429c-2.4-2.8-5.2-4.6-8.1-6.5-.6-.4-1.2-.3-1.7.3-.5.7,0,1,.4,1.4,1,1.1,2.1,2,3,3.1,2.3,2.8,2.5,2.9,6.3,1.6M297.8,328.9c1.2-.2,2.1-.5,2,1.2,0,.7.9,1.2,1.5,1.3.8.2.6-.8.7-1.2.5-2.1.8-4.3,1.6-6.3.5-1.3-.4-2-1.3-2.5-.9-.5-1.3.5-1.5,1.1-.9,2.1-1.8,4.3-3,6.4M325.9,253c1.7,7.1,3.3,14.2,3.4,21.6,3.7-7.9.9-14.9-3.4-21.6M289,307.5c-.4,2.6-1,4.9.3,7,1.1,1.7,2.6,3.2,3.6,5,.2.3.3.6.7.6.5,0,.6-.5.6-.9,0-1.4.3-2.8.6-4.1.2-.7,0-1.3-.6-1.8-1.8-1.7-3.3-3.6-5.2-5.7M267.1,407.1c.8-1.2,1.5-2.2,1.7-3.4.4-3,1.5-5.7,3.5-8,1.1-1.3,2-2.8,3-4.2.2-.3.7-1.2-.3-.9-1.7.5-3.8.7-4.8,2.5-1.8,3.4-3.4,6.9-3.5,10.9,0,1-.2,2,.3,3.2M271.9,343.4c.4-.3.5-.4.6-.6,2.5-4.1,5.1-8.3,8-12.1.7-1,.5-1.4-.5-1.8-1-.4-1.9-.9-2.9-1.4-1.5-.7-1.8-.6-1.8,1.1,0,4.1-.8,7.9-2.6,11.6-.4.9-.9,1.8-.9,3.2M265.4,337.2c.2.9.3,1.9.6,2.8.1.4.2.9.8.9.4,0,.6-.5.8-.8,2.2-4.2,3.8-8.6,5.1-13.2.3-1,0-1.6-1-1.9-1.1-.4-1.5.2-1.8,1.1-.8,2-1.6,4-2.6,6-.8,1.6-1.7,3.1-2,5.1M245,299.6c.2.7.7,1,1.1,1.3,1.9,1.5,3.8,3.1,4.8,5.3,1.3,3.2,4.7,4.2,6.5,7.1,0-7.1-3.3-12.7-12.4-13.7M356.7,466.8c1.2-1.1,2.8-1.4,4.1-2.1.9-.4,1.8-1,2.4-1.8,1.9-2.8,3.8-5.5,5.9-8.1.4-.6.4-1-.2-1.4-.5-.3-1-.6-1.5-1-1-.7-1.6-.5-2.3.7-1.7,3.2-3.3,6.5-5.5,9.4-1.1,1.4-1.8,3-2.8,4.4M357.8,452.8c-3.9,5.5-6.6,11.6-10.2,17.5,2.2,0,3.5-1.4,5-2.1,1.9-.9,3.1-2.7,3.8-4.5,1.3-3.5,1.4-7.2,1.5-10.8M332,286c-.8,1.9-2.6,3.1-2.9,5.3-.6,5.5-1,11-1.2,16.5,0,1.2.2,2.4.3,4,.9-1.2.9-2.4,1.7-3.1.9-.8,1.2-1.9,1.1-3.1-.3-3.3.5-6.5,1-9.8.5-3.2,1-6.5-.1-9.8M392.1,406.5c.6-.3.7-.4.9-.5,5.7-5.1,8.8-11.6,11.2-18.7.1-.3.3-.7,0-.9-.2-.1-.6,0-.9.2-2.5,1-4.3,3.1-6.7,4.4-1.1.6-1.5,1.4-1.4,2.6.3,3.1-.4,6.1-1.6,8.9-.5,1.2-.8,2.4-1.3,4M232.6,449.7c-.6,0-1.2.3-1.6.7-1.4,1.4-3,1.6-4.9,1.3-1.3-.2-2.6.2-3.6,1-4.5,4-9.4,7.5-14.6,10.5-1.1.6-2.1,1.3-3.5,2.3,4.8-.8,8.8-2.3,12.6-4.5,4.2-2.4,7.9-5.5,12.5-7.1,2-.7,3.3-1.6,3.2-3.8,0-.1,0-.2,0-.4M253.8,399.8c2.9,4.8,4.3,10.1,6.3,15.2,2.1,5.2,2.3,10.7,2.5,16.2.8-.3.7-.7.7-1,.3-3.3.8-6.5.9-9.8.1-2.3.8-4.8,0-7-1-2.6-2.2-5.2-3.6-7.7-1.6-2.7-4.2-4.3-6.8-6M317.6,353.9c.9-1.2.9-1.2.9-3.6,0-6.3-1.8-12.1-6-17-.3-.4-.5-1-1.1-.9-.6.1-.5.8-.6,1.3-.9,2.5-1,5.3-2,7.8-.2.6,0,1.2.4,1.7,1.2,1.5,2.4,2.9,3.6,4.4.6.8,1.2,1.1,2,.3.9-.9,1.5-.6,1.9.6.5,1.6.7,3.3.9,5.4M250.6,449.2c-.5,0-1,.2-1.2.7-.3.7.5.8.9,1,2.9,1.9,5.7,3.8,8,6.3,1.6,1.7,3.5,2.1,5.6,1.9.8,0,1.6-.2,2.5.1,1,.4,1.4-.5,2-.9.6-.5.1-1-.2-1.4-.3-.6-.3-1.2-.3-1.8,0-1-.4-1.7-1.4-2-1.8-.5-3.6-1.2-5.4-1.7-1.8-.5-3.4-1.2-5.2-1.7-1.6-.4-3.4.9-4.8-.5,0,0-.1,0-.2,0M260.5,340c.7-2.8,1.1-5.2.3-7.3-1-2.2-2.7-4.4-5-5.5-4.2-2.1-8.7-3.4-13.2-4.8-.3,0-.7-.2-.8.2-.1.4,1.3,3.9,1.8,4.1,1.6.8,2.9,2.1,4.4,3.1.8.5,1.5,2,2.8.5.1-.2.8,0,1.3.2,2.3.7,3.8,2.4,5.2,4.2,1.2,1.5,1.9,3.2,3.2,5.2M291.5,290.8c-.2,3.1-1,6.3-1.6,9.6-.1.7-.5,1.4.2,1.9,1.7,1.3,3.1,3,4.7,4.5.7.6,1.1.4,1.2-.4.5-3,1.9-5.6,3-8.3.3-.7.4-1.3,0-1.9-1.8-2.7-3.3-5.7-6.5-7.2-.3-.1-.5-.5-.9-.3-.4.2-.2.6-.2.9,0,.3,0,.7,0,1.3M260.7,329.1c0-3.4-.5-6.7-2.4-9.5-1.7-2.5-4.1-4.6-6.1-6.9-.9-1-2-1.3-3.3-1.3-2.8.1-4.7,1.9-6.6,3.6-1,.9-1.7,2-1.3,3.2.4,1.2,1.8,1.4,3,1.5,1.7.2,3.3-.4,4.9-.8,2.2-.5,4,0,5.6,1.5,1.6,1.4,3,3,4.2,4.7.8,1.2.9,2.7,1.9,3.9M413.2,362c-2.6,1.2-6.6,4.8-7.6,7.1-1.1,2.5-1.9,5.1-4.6,6.5-.2.1-.3.5-.5.7-2,3.3-3.9,6.6-4.1,10.6,0,.4-.6.9,0,1.2.4.2.8-.2,1.2-.5,3-2.5,5.5-5.5,8.7-7.8.3-.2.4-.6.6-1,1.8-3.7,3.3-7.4,4.2-11.4.3-1.2.8-2.3,1.4-3.4.3-.6.8-1.2.8-2M413.7,428c1.2.1,2.3-.4,3.5-.6.4,0,1,0,1-.6,0-.5-.5-.6-.8-.8-3.7-2.3-7.7-3.5-11.8-4.5-2.5-.6-5-1-7.4-2.2-2.4-1.2-4.6-2.8-7.3-3.3-.7-.1-1.5-.4-1.9.4-.6,1-1.4,1.7-2.7,1.7-.4,0-.8.2-.9.6,0,.6.5.6.9.8,2.2.8,4.3,1.5,6.6,1.9,1.6.3,3,.9,4.2,2,.9.9,1.9,1.6,3.1,1.8.6.1,1.4.4,1.4,1,0,1.9,1.1,1.3,2.1,1.1.9-.2,1.8-.2,2.7,0,2.4.3,4.9.6,7.3.8M423.5,397c0-.2-.1-.4-.2-.6-5.6,1.3-11.4,1.9-16.9,3.8-5.7,2-9.3,6.6-13.4,10.7.3.3.7.2.9,0,1.7-1,3.5-.8,5.4-.8,4.1,0,7.9-1.1,11.2-3.3,2.6-1.7,5.1-3.8,7.8-5.5,1.9-1.2,3.4-3,5.1-4.5M232.9,341.4c-.9,0-1.8-.2-2.8-.7-4.4-2.2-6.5-7-5.2-12,.2-.7.7-1.5,0-2-2.4-1.6-4.4-3.7-7-5.2-1-.6-1.3-.1-1.1.9.3,2.3.6,4.5,2.1,6.4.6.8,1,1.7,1.3,2.7.5,2,1.6,3.7,2.5,5.4.5.9,1.2,1.5,2.2,1.5,1.1,0,1.9.8,2.1,1.7.4,1.4,1.4,2.2,2.3,3,2.9,2.4,5.7,4.7,8.7,7,1.3,1,2.4,2.1,3.9,2.8.4.2.9.7,1.3.2.4-.4.2-.9,0-1.4-1.8-3.5-3-7.3-3.9-11.2-.3-1.3-.8-1.3-1.7-.6-1.4,1-3,1.4-4.9,1.5M276.9,320.7c-1.5,2.5.6,3.1,2.1,4.1,1.1.7,2.2,1.4,3.3,2,.6.3,1.2.8,1.8.2.7-.6,1.5-1.1,1.2-2.2-.2-.9-.1-1.9,0-2.8.7-3.3-.9-5.7-3.3-7.7-3.8-3.3-8-6-12.1-8.9-1.3-.9-1.6-.8-1.8.9-.3,3.1-.9,6.1-2,9.1-1.1,2.9-1,2.5,1.6,3.3.6.2,1.2.3,1.7.6.9.4,1.5.1,2-.5.7-.7,1.4-1.4,2.2-2.1.3-.2.7-.6,1-.1.3.3,0,.6-.2.9-.5.7-1,1.5-1.5,2.2-.5.7-.3,1.3.4,1.7.6.4,1.2.9,1.9.2.3-.3.6-.8,1.4-.8M287.5,284.6c0-.6.2-1.5-.6-1.7-.8-.2-1.1.6-1.3,1.3-.2.9-.7,1.6-1.3,2.3-1.7,2-3.4,4-5.1,6-2.1,2.4-4.3,4.8-6.4,7.3-.5.6-1.3,1.3-.4,2.3,3.8,4.2,8.2,7.7,12.1,11.8.3.3.7.6.9,0,.6-1.4,2-2.6,1.2-4.5-.4-.9-.5-2-.3-3,.4-2.1-.9-3-2.4-4-.5-.3-1.6-.2-1.4-1.1.2-.7,1.1-.5,1.8-.6.2,0,.4,0,.7,0,1.4.1,1.8-.4,1.6-1.8-.6-3.4-.5-6.9.2-10.3.3-1.3.9-2.5.8-3.9M235.6,466c.1,1.6,0,3.6.2,5.6.2,1.4.7,1.5,2,1,5.6-2.2,10.5-5.9,16.6-7,2.3-.4,3.2-2.7,5.2-3.5.5-.2,1.2-.6,1-1.3-.3-.7-1-.8-1.7-.8-6.2,0-12.1-1.5-17.5-4.8-1.1-.7-2-1.1-3.2-.2-1.4,1-3.2,1.7-2.8,3.9.4,2.2.3,4.4.3,7M319,338.4c.8-2,1.4-4,2.4-5.8,1.8-2.9,1.5-5.8.5-8.7-.9-2.6-2.1-5.1-3.9-7.1-4.1-4.8-8.7-9.2-12.7-14.1-.7-.9-1.2-.9-1.8.2-1.1,2.2-1.4,4.7-2.2,7-.4,1.2-.2,1.9.9,2.6,4.4,2.5,7.5,6.4,9.6,10.8,2.4,5,5.7,9.6,7.1,15.1M379,433.2c-2.6.5-5.2,1.4-7.6,2.6-.7.3-1.1,1.1-1.3,1.9-.7,2.7-1.4,5.5-2.2,8.2-.3,1,0,1.6.9,1.9.8.3,1.6.8,2.5.9,1.9.3,2.9,1.4,3.8,2.9,1,1.7,2.2,3.2,3.3,4.8.4.6.8,1,1.6.8,2.2-.6,4.4-1.1,6.7-1.6,1-.2,1.3-.7.9-1.7-.7-1.7-1.3-3.4-1.8-5.2-1.2-5-2.2-10-5.4-14.3-.4-.6-.6-1.4-1.6-1.3M278.9,363.6c3.9-1.5,7.8-3,12.1-2,3.5.8,6,3.8,6,7.3,0,3.4-2.6,6.6-6.1,7.2-5.7,1-10.6-.6-14.2-5.3-.3-.4-.6-.8-1.2-.6-.7.3-.4.8-.2,1.3.7,1.8,1,3.7,1.5,5.5.6,2.4,1.3,4.8,2.6,7,.5.8,1,1.3,1.8.3,2.6-3.3,6.3-5,9.9-6.6,4.3-2,8.3-4.3,11.9-7.4.6-.5,1.2-.9,1-1.8-.6-4.4-1.9-8.7-4-12.5-1.9-3.4-4.4-6.4-6.5-9.7-.5-.8-.9-.6-1.4,0-.2.4-.5.8-.7,1.1-2.5,3.9-5,7.8-8.1,11.3-1.4,1.6-3.3,2.8-4.4,4.7M266.2,449.7c-1.9-4.2-2.8-8.4-4-12.5-.7-2.6-1.5-5.1-1.9-7.8-.4-2.6-1.2-5.1-2.3-7.5-2.4-5.3-5.6-10.1-8.6-15.1-.7-1.2-1.2-2.7-2.7-3.9.5,2.1,1,3.8,1.4,5.5,1.3,6.3,1.3,12.6,1.4,19,0,3.6.2,7.1,1,10.6.8,3.2,2.5,5.9,5.1,7.8,3,2.2,6.5,3.4,10.7,3.9M279.4,420.9c.7-.2,1.7.5,2.6,0,1.4-1,3.1-1.3,4.7-1.7,1.5-.4,1.7-1,1.2-2.3-2.7-6.9-5.3-13.7-8-20.6-.4-.9-.9-1.2-1.6-.5-1.4,1.2-2.8,2.3-4.1,3.7-4,4.1-5.8,9.4-7.4,14.7-1.3,4.4-.8,9-1.3,13.4-.2,1.9-.2,3.8-.3,5.7,0,.4,0,1,.5,1.1.6,0,.7-.5.8-.9.3-1.7.8-3.4,1.6-4.9,3.1-5.9,5.7-8.2,11.4-7.6M304.9,476.8c.5-1.1,0-1.8,0-2.5.1-7-1.9-13.5-4.4-19.9-1.8-4.5-3.7-9-5-13.6-1.5-5.4-3.3-10.6-4.9-16-.4-1.4-1.1-1.7-2.4-1-1.6.8-3.4,1.4-5.1,2-3.9,1.5-7.9,2.7-11.5,4.9-.6.4-1.2.7-1.4,1.4-.4,2.1-1.4,4.3-.9,6.4.7,3,.5,6,.5,9,0,2.6,1.2,4.4,3.3,5.8,1.6,1.1,3.5,2,5,3.3,4.6,4.3,10.1,7.5,15.1,11.3,3.9,2.9,8.7,4.6,11.8,9M308.9,387.3c0-2,0-3.9-.8-5.9-1.2-2.6-2.9-5-3.4-8,0-.3-.1-.6-.5-.5-.2,0-.4.4-.6.6-2.1,2.7-4.5,5.1-7.7,6.5-1.7.7-3,1.8-4.3,3.1-.3.3-.8.5-.6,1.1.2.4.7.3,1.1.3,2.4,0,4.8.5,7.1-.5.4-.2.9-.2,1.3-.1.5,0,1.1.3,1.1.9,0,.7-.6.8-1.1.7-2.4,0-4.6.9-6.9,1-1.9,0-3.4,1.4-5.1,1.7-2,.3-3.8,1.1-5.2,2.6-.9,1-1.2,1.8-.7,3.1,2.5,7.8,6,15.3,8.6,23,.5,1.6,1.4,2.3,3,2,1.9-.3,3.8-.2,5.5-1.4.4-.3,1.1-.5,1.3.1.2.6-.5.6-.9.7-1.8.7-3.7,1.4-5.5,2-1.7.7-1.9,1.1-1.3,2.9,1.1,3.3,2.2,6.5,3.3,9.8,2.4,7.3,4.8,14.6,7.9,21.7.1.3.2.9.7.7.4,0,.3-.6.3-.9,0-2.2.3-4.3.4-6.5.2-6.8,1.2-13.5,1.9-20.3.8-7.6,1.4-15.1.5-22.6,0-.5,0-1,0-1.5.2-5.5.4-11,.7-16.5M307.6,596.5c.4-3.6.9-7.3.7-11-.2-2.6,0-5.2,0-7.9,0-3-.2-6-.9-9-.2-.7-.2-1.6,0-2.3,1-4.3.8-8.7,1.1-13,.2-3.6,1.4-7,1.1-10.6-.5-6.7-.3-13.5-.8-20.2-.3-3.5-.2-7.1-.6-10.7-.6-6.1-.2-12.4-2.3-18.4-.6-1.8-.2-3.7-.4-5.5-.9-7.1-4.4-12.2-10.8-15.7-5.8-3.2-11-7.4-16.5-11-.6-.4-1.2-.6-1.9-.5-3.6.6-7.4.7-10.5,2.9-2.2,1.5-4.1,3.4-6.1,5.1-.5.4-.5,1.1-.5,1.7,0,1.2,0,2.4-.3,3.7-.2.9-.2,1.9-1.4,2.2-1.2.3-2.5.2-3.2-.9-1-1.7-2.1-1.3-3.4-.5-2.6,1.6-5.8,2.1-8.5,3.4-1.5.7-3,1.4-4.5,2.3-.5.3-.8.6-1,1.1-2.1,4.7-3.6,9.6-3.7,14.8,0,.6.2,1.5-.5,1.6-.8.2-1.2-.8-1.4-1.4-.7-1.5-.6-3.1-.3-4.6.5-2.1.5-4.3.5-6.5,0-1.3-.5-1.6-1.8-1.3-4.4,1.2-8.9,2.3-13.3,3.4-.6.1-1.2.6-1.7,0-.4-.6.1-1.2.4-1.7,1.5-2.3,3.4-4.3,5.9-5.6,2.7-1.3,5.4-2.6,8.2-3.8,1-.5,1.4-1.2,1.2-2.2-.9-4.5-.5-8.9.7-13.2.3-1,.1-1.4-1.1-1-5,2.1-10,4.2-14.1,7.8-2.9,2.5-6.2,3.6-10,3.5-3.3,0-6.6.2-9.9.3-.4,0-.9.2-1.2-.2-.4-.5,0-1,.3-1.4.5-.7,1.1-1.4,1.9-2.4-2.9.8-5.3,1.8-7.8,2.3-3.5.7-7.1,1-10.6,0-.8-.3-1.9-.4-2.1-1.4-.2-1,.9-1.3,1.5-1.8,6.1-5.7,13.7-8.6,21.3-11.6,5.6-2.2,11.4-3.6,17.3-4.3.9-.1,1.9-.2,2.1-1.5.2-1.7-.1-2.2-1.9-2.1-10.3.3-19.9-1.9-29.1-6.5-3.1-1.5-6.4-2.3-9.7-3.2-1.8-.5-3.6-1.3-5.2-2.3-.4-.2-.9-.4-.8-1,0-.6.7-.7,1.2-.7,2-.1,4-.5,6-.4,1.5,0,3,0,4.3-.7,4.4-2.3,8.8-1.4,13.2-.1,6.1,1.8,11.8,4.4,17.6,6.9.8.3,1.6.6,2.6.6,1,0,1.9.4,2.6,1.1,3,2.9,6.9,3.8,10.9,4.2,1.4.2,3-.6,4.6-.5,1.4,0,2.8.1,4.1.6,1.9.7,3.8.5,5.8.3,1.5-.2,3-.1,4.5-.2,1.7,0,2.4-.9,1.5-2.3-4.7-7.9-6.2-16.8-8.3-25.5-1-4.3-.4-8.8.1-13.2,0-.4,0-.8.2-1.2,1.1-3.8.3-6.8-3-9.4-2.2-1.8-3.6-4.4-5.1-6.8-.8-1.3-1.6-1.9-3.1-1.5-.6.2-1.5.4-1.7-.5-.2-.9.4-1.5,1.1-1.9,1.7-.9,1.8-.9.6-2.5-.2-.3-.6-.5-.6-1.2,1.8.2,3.4.8,4.9,1.6,1.6,1,3.2,2.1,4.4,3.6,1,1.2,2.1,2.1,3.6,2.5.9.3,1.8.8,2.7,1.3,2.6,1.5,4.7,3.6,7.7,4.6,1.9.6,3.2,2.3,4.4,4,.9,1.3,1.8,2.7,2.8,4,1.3,1.7,2.2,3.5,2.3,5.7,0,.6,0,1.1.6,1.5.6-.1.4-.6.5-.9.3-3.3.7-6.7-.6-9.9-.3-.6-.2-1.4-.1-2.2.3-3.4-.7-6.4-2.5-9.2-.3-.5-.6-1.1-.5-1.7,0-1.6-.6-2.9-1.2-4.3-.3-.7-.8-1-1.5-1.1-5.5-1-11.1-1.9-16.6-3.1-4.6-.9-9.3-2.1-13.9-3.2-.8-.2-1.5-.4-2.2-.8-4.4-2.3-9.1-2.7-13.9-2.4-.2,0-.3,0-.5,0-.5,0-1.3.2-1.4-.5,0-.6.7-.6,1.1-.8,3.6-1.3,7.2-1,10.8.2,1.1.4,2.4.6,3.6.6,3,.1,5.9,0,8.9.5.9.1,1.1-.2.8-1-.5-1.7-1.5-2.8-3.3-3.2-.5-.1-1.2-.2-1.3-.9-.1-.8.5-1.1,1.1-1.3,1.8-.8,3.1-1.9,4-3.8.6-1.3.3-2.3-1.2-2.5-.8-.1-1.7,0-2.5,0-9.2,2-18.5,3-27.8,3.9-.6,0-1.2.2-1.8.4-2.2.5-4.4.9-6.6.4-3.2-.6-6.3-1.1-9.1,1.4.3-1.4,1.4-2.1,2.5-2.8,2.8-1.7,5.9-2,9-2.4,6.4-.9,12.8-1.8,19.2-2.5,3.8-.4,7.6-.2,11.4,0,.7,0,1.4,0,2.2,0,2.4,0,2.4,0,2-2.4-.3-1.8,0-2.1,1.8-2.1.4,0,.9.1,1.3-.1.2-.4-.1-.5-.3-.7-2.3-1.8-4.6-3.6-6.9-5.3-1.2-.9-2.3-2-3.9-2.1-.7,0-1.3-.7-1.7-1.3-1.4-2.2-3.6-3.3-5.9-4.2-6.1-2.5-12.3-4.6-18.7-6.3-5.8-1.5-11.4-3.8-15.8-8.4-.8-.8-1.9-.8-2.9-1.2-3.3-1.2-6.4-3-9-5.3v-.7c.7-.6,1.5-1,2.4-1,4.3,0,8.7-.4,13,.9,5.1,1.6,10.2,3.3,15.1,5.6.4.2.7.5,1.4.2-1.4-1.8-2.6-3.7-4.1-5.3-4.9-5.1-7.5-11.6-11.1-17.5-1.2-2-1.7-4.4-1.6-6.8,0-.6-.2-1.4.5-1.7.7-.3,1.1.4,1.5.8,3.1,2.7,5.6,5.9,7.6,9.5.6,1,1.2,2,2.2,2.8.5-.7.5-1.5.5-2.1,0-1.4.8-1.7,2-1.2,3.8,1.7,6.5,4.6,9.1,7.7,2.6,3.2,4.5,6.9,6.2,10.7.6,1.2,1.2,1.7,2.7,1.4,3.7-.8,7.3.3,10.9,1.1.3,0,.5.2.8.2.6.1,1.3,0,1.4-.6.2-.7-.6-.6-1-.7-3.6-1.1-5.8-3.7-5.9-6.9,0-3.3,2.1-6.2,5.6-7.3.6-.2,1.3-.3,1.9-.5,1.7-.4,2.3-1.6,1.7-3.1-.2-.5-.6-.7-1.1-.6-.6,0-1.1.1-1.7.2-2.4.4-2.7,0-2.1-2.2.2-.8,0-1.2-.8-1.4-3.4-.7-6.3-2.8-9.9-3-.3,0-.6,0-.8-.3-4.1-3.4-8.5-6.3-13.4-8.6,0,0,0,0-.2-.3,2-1,4.2-1.3,6.4-1.1,3.5.2,6.9,1.2,10.1,2.8,3.9,2,8.3,2.9,12.3,4.7,4.3,2,8.8,2.3,13.3,3,1.9.3,3.5,1.1,5.2,1.8.6.3,1.4.8,2,.2.6-.5.1-1.3,0-1.9-.7-2-.9-4.4-2.3-6-1.8-2-2.2-4.5-3.1-6.9-.3-.8-.8-1.5-1.5-2-5.8-4.3-10.9-9.4-15.3-15.1-3.9-5.1-8.3-9.4-13.8-12.7-1.7-1-3.3-2.3-5-3.4-.3-.2-.9-.4-.7-1,.2-.5.8-.4,1.2-.4,2.9-.1,5.4,1.2,7.9,2.3,1.4.6,2.6,1,4.1,1,4.2,0,7.6,2,10.7,4.6,4,3.2,6.8,7.5,9,12.1.3.6.7,1.2,1,1.7.3.4.6,1,1.2.6.5-.3.7-.9.4-1.5-.5-1-.9-2-1.5-3-1.5-2.6-2.9-5.4-4.8-7.6-3.7-4.2-6.5-9.4-11.7-12.2-2.9-1.5-5.9-2.6-9-3.5-5.7-1.8-11.2-3.8-16.6-6.3-1.7-.8-3.3-1.8-5.1-2.4-1.8-.6-3.6-.4-5.8-.6,1.5-1.1,2.8-1.1,4-.8,3.8,1,7.8,1.1,11.6,2.4,1.8.6,3.6,1,5.3,2,2.3,1.3,4.9,1.9,7.3,2.8,4.9,1.7,9.6,3.9,13.2,7.9.4.4.8.7,1.4,1,0-1.5-.7-2.8-1.7-3.9-2.3-2.7-3.1-6-3.9-9.3-.8-3.6-1.6-7.2-1.8-10.9-.4-7.4-2.6-14.6-1.9-22.1.1-1.3.2-2.7.6-4,.2-.9.6-1.8,1.4-2.4.1.2.3.4.3.5-1.3,5-.3,9.9.7,14.7,1.4,7,2.3,14.1,3,21.2.7,6.2,2.3,12.2,5.9,17.2,3.7,5.1,6.3,10.9,9.6,16.1.6.9.9,1.5,1.8,0-.9,3.9,2.1,6.3,2.8,9.5.6-1.5.2-3.1,0-4.5-.6-3.8,0-7.5.7-11.1,1.2-6.3,3.5-12.2,7-17.6.9-1.3,1.9-2.3,3.4-2.8,1.1-.4,1.4,0,1.2,1-.3,1.8-.2,3.6-1.1,5.2-1.8,3.4-2.9,7.1-4,10.8-1.7,5.7-4.3,11.2-4.7,17.2-.2,3.1-1.3,6.2-.2,9.3,0,.2.2.4.4,1.1.3-3,.5-5.6.8-8.2,1.2-8.8,3.2-17.3,8.1-24.9.8-1.3,1.7-2.5,2.9-3.4.7-.5,1.2-1.7,2.3-.4.3.4.7-.2.9-.5.8-1.1,1.7-2,2.8-2.8.9-.6,1.4-.3,1.5.6,0,.7.1,1.5,0,2.2-.9,5.9-1.2,11.9-3.9,17.4-1.1,2.2-2,4.5-2.4,7,.5-.7,1.1-1.4,1.6-2.1,1-1.2,1.6-1.1,2.4.3,1.1,2,1.4,4.3,1.3,6.5-.3,4.8.2,9.6-1.2,14.3-.6,1.9-1.3,3.8-1.7,5.8.9-1.1,1.9-2.2,2.7-3.4,2.8-3.9,6.8-6.2,10.7-8.7.3-.2.7-.4,1-.6,1.3-.7,1.4-1.4.4-2.5-.7-.7-1.2-1.6-1.9-2.4-.3-.3-.7-.7-.5-1.2.3-.6.9-.4,1.3-.4,1,.1,2,.3,3,.6,1.1.3,1.8.2,2.3-.9.3-.6.8-1.2,1.2-1.8.5-.7.9-1.5,1.9-.5.4.5.9-.1,1.4,0-.4.8-.9,1.5-1.3,2.3-.7,1.7-.3,2.9,1,4.2,1.8,1.8,4.2,2.7,6.5,3.7,1.2.5,2.1,2.1,3.4,1.9,1.2-.2,1.4-2,2.4-2.8.4-.3.6-1,1.2-.6.4.3.3.8.2,1.2-1.5,4.1.3,6.6,3.3,9.3,5.8,5.2,10.6,11.4,14.6,18.2.2.3.3.6.6.9.5-.6.3-1.1.3-1.7-.2-6.6.4-13.1,1.1-19.7.3-2.6.3-5.6-.4-8.3-.7-2.5-1.6-5-2.5-7.4-1.7-4.8-3.8-9.6-5.1-14.5-2-7.5-4.3-15.1-3.5-23,0-.6-.1-1.4.7-1.8.7-.3,1.2.3,1.8.7,1.9,1.6,3.3,3.6,4.7,5.7-.3-1-.7-2.1-.9-3.1-1-4.7-1.8-9.4-3.6-13.9-.2-.5-.3-1,.1-1.4.5-.4,1-.1,1.4.1,2.1,1.4,4.2,3,5,5.5,1.5,5,4.1,9.6,5.1,14.7,1.4,7.2,3.6,14.3,3.1,21.8-.1,1.4-.3,2.8-.4,4.2,0,.3-.2.7.2.9.4.2.6-.2.8-.4,1.3-2.1,2.4-4.4,4.2-6.2.4-.5.3-1.2.2-1.8-.4-2.4-.2-4.8-1.4-7-.1-.2-.2-.5.2-.9,1.3,1.7,2.4,3.6,3.2,5.6.4,1,.8,1.4,1.7.5,2.2-2,4.6-3.5,7.2-4.9,1.6-.9,3-2,4.4-3.1,3.7-2.9,7.7-5.1,12.2-6.4.7-.2,1.4-.2,2.1,0,.4.1,1.2,0,1.2.7,0,.5-.6.6-1,.8-3.9,1.1-7.2,3-10.3,5.7-4.4,3.8-9.5,6.7-14.3,9.9-2.5,1.6-2.6,2-1.4,4.6.7,1.6.9,3.4.9,5.1,0,1.4.7,1.8,1.9,1.5.2,0,.3,0,.5,0,.7,0,1.7-.6,1.9.3.1.9-1,.5-1.6.6-1.6.3-3.1,1.6-3.1,3.5,0,2.2-.4,4.2-.8,6.3-.1.6-.4,1.5.3,1.8.7.3,1.1-.6,1.5-1.1,4.1-4.5,8.4-8.9,13.3-12.4,4.6-3.2,9.7-5.6,15.2-6.7.6-.1,1.5-.6,1.8.2.3.7-.7.8-1.2,1.1-6,3.2-11.8,6.5-17.2,10.6-.7.5-1.2,1.1-1,1.9.7,3.9-1.2,7-2.8,10.2-2.7,5.4-7.2,9.1-12,12.6-1.5,1.1-2.8,2.5-4.3,3.7-1.5,1.1-1.8,3-1.7,4.9,1.5-.8,2.4-2.3,3.5-3.5,4-4.5,9.2-7.4,13.9-10.9,4.2-3.1,8.6-6,13.1-8.7,2.9-1.8,6.1-2.8,9.6-3.2-11,8.5-21.5,17.6-33.7,24.4,0,.1.2.3.2.4.9-.4,1.9-.8,2.8-1.2,2.6-1.1,5.1-1.6,7.7,0,.3.2.6.3.9.3,2.7.4,2.7.7,1.7,3.4-.8,2-2.1,3.6-4.2,4.6-.8.4-1.4.8-1.5,1.8-.6,5.7-7,7.5-10.7,6.2-1.1-.4-2.3-.9-3.2.3-1,1.5-3,2.5-2.1,5,1.1,3,.7,6-.3,9.5,2.9-2.5,5.9-4.2,8.7-6,5.9-3.9,12.2-6.7,19.3-7.3,4.1-.4,8.1-1.5,12.1-2.7,1.8-.5,3.6-1.2,5.6-.9.5,0,1.2.1,1.2.7,0,.7-.7.6-1.2.6-6.3.2-11,4-16,7.1-2.4,1.5-4.8,2.4-7.7,2.6-3.2.2-6.1,1.8-9,3-2.9,1.1-5.7,2.6-8.6,3.6-1,.4-1.9.9-2.8,1.4-1.7,1-2.8,2.3-2.7,4.6,0,3.3-1.1,6.5-2.3,9.5,1.3-1.9,2.6-3.8,4.1-5.6,1.4-1.7,3-3.1,4.9-4.2,2-1.2,2.8-.8,2.7,1.5-.2,6.2-1.3,12.2-5.3,17.3-2.3,3-4.3,6.2-6.6,9.3-2.2,3-4.6,5.9-7,8.7-3.8,4.4-6,9.5-6.5,15.3-.3,4-1.3,8-1.6,12-.8,9.4-1.3,18.9-2.3,28.3-.8,7.2-1.2,14.5-.7,21.7.2,3.7.3,7.4,1,11.1.5,2.5,0,5.2-.2,7.8-.1,1.3.4,2.4.5,3.6.2,3,.6,6,.6,9,0,5.9.3,11.8,1.3,17.5.8,4.7-.2,9.2.4,13.7.2,1.7.3,3.4.4,5.2.7-.3.7-.8.9-1.2,2.7-7.3,6.5-14.1,9.7-21.1,1.8-4.1,4.6-7.8,6.6-11.8,1.7-3.4,2.4-7.2,4.5-10.4,1.6-2.6,3-5.4,4.6-7.9,1.8-2.7,3-5.8,5.5-8.1,1.3-1.1,1.5-3.1,2.1-4.7,1.3-3.4,2.6-6.9,3.9-10.3,1.3-3.5,2.1-7.2,3.2-10.7.8-2.4-.1-4.8.2-7.1,0-.6-.5-.8-1.1-.7-2.6.2-5.2-.1-7.8.4-.9.2-1.4-.3-1.4-1.2.6-6.1,1.7-11.2,8.1-13.1,1-.3,1.3-.8,1.2-1.8-.6-5.5-1.2-11-1.6-16.5-.4-6,.5-11.8,2.9-17.3.7-1.5,1-1.5,2.3-.5,5.2,4,5.9,9.9,7,15.8.8,4.3-.3,8.4-.4,12.7,0,3.4.3,6.8-.5,10.2.6.1.6-.3.7-.6,1.5-6.3,5.1-11.8,7.2-17.8.2-.7.5-1.3.5-2.1.1-4,.2-8,.3-12,0-2.1.2-4.1.3-6.2.2-3.9-1.3-7.5-1.8-11.2-.8-5.4-1.1-10.6.7-15.9.5-1.4.7-2.8,1-4.2.2-1.1.7-1.4,1.7-.6,3.2,2.4,4.7,5.7,5.6,9.4.9,3.6.8,7.3,1.3,11,0,.2,0,.4.1.7.6-.1.4-.6.5-.9.2-1.1.2-2.4.7-3.4,1.6-3.8,1.6-7.8,1-11.8-.5-3.8-1.8-7.5-2.9-11.2-.3-1.1-1.1-2.8-.4-3.2,1.1-.7,1.8,1,2.6,1.8,2.5,2.4,3.3,5.6,4.1,8.8.2.8,0,2.2.9,2.3.9.2,1.1-1.2,1.6-1.9.6-.7,1-1.4,1.6-2.1,1.1-1.3,1.9-1.2,2.5.4.9,2,1.1,4.1,1.2,6.2.3,4.3-.4,8.5-1.4,12.6-.2.6-.5,1.3,0,1.9.7-.2.6-.9.9-1.3.3-.5.4-1.3,1.2-1.2.7,0,.9.7,1.2,1.3.7,1.3,1,2.8,1.4,4.4,1.1-.4,1.6-1.4,1.6-2.2.1-2.2,1.6-3.7,2.9-5.1,1.9-2,2.8-4.3,3.3-6.9,1.6-7.1,1.8-14.3,2.6-21.4.1-.9.2-1.9.6-2.8,1.8-4.3,2.6-8.9,3.9-13.3,1-3.3,2.4-6.5,4-9.6.3-.7.7-1.6,1.6-1.5.9,0,1,1.1,1.3,1.8,1.7,4.5,1.4,9.1.6,13.8-1.4,7.9-3.2,15.7-6.1,23.3-.1.3-.2.6-.3,1.2,2-.8,3.8-1.2,5.4-2.4,2.5-2,5.5-2.4,8.6-1.6,1.2.3,1.5,1,.5,1.7-2.6,1.8-4.4,4.5-7.6,5.6-2.6.9-3,1.6-3,4.3,0,2.5-.8,4.7-1.7,7-.8,2-1.3,4-1.8,6.1-.2.8-.2,1.4.9,1,5.8-2.1,11.8-3.7,17.9-4.7,2.7-.4,5.4-.8,8.1,0,.4.1.9.1.9.6,0,.5-.5.6-.8.6-10.2,2.5-19.4,7.6-29.2,11-.8.3-1.4.7-1.8,1.4-1.2,1.9-2.4,3.8-3.3,5.8-2,4.2-4.5,8.1-7.6,11.6-.2.2-.6.4-.3.9,1.3-.8,2.5-1.6,3.8-2.4,3-2,6.2-3.4,9.7-3.9,3.4-.5,6.4-2.4,9.7-3.1,2.3-.5,4.5-.4,6.8-.8,3.9-.7,7.7-1.5,11.7-1.6.5,0,1.1,0,1.6.1,0,.7-.4.5-.7.5-3.2.1-6.2,1.2-9.1,2.6-.6.3-1,.7-1.2,1.3-1.3,5-4.9,7.9-9.1,10.4-2.3,1.4-4.8,2.4-7.8,3.6,5,.7,9.5.5,14,.4,2.6,0,5.3-.3,7.3,1.9.3.3,1,.6.7,1.2-.3.5-.8.1-1.2,0-3.8-.8-7.5-.4-11.3-.2-5.3.3-10.6-.1-15.9-.2-.5,0-1.3-.4-1.5.2-.3.8.7.9,1.1,1.1,3.3,1.6,6.9,2.5,10.1,4.4,5.1,2.9,10,6.1,14.6,9.7,1,.8,1.6,1.8,2.4,2.8.3.3.6.8.1,1.2-.4.3-.7,0-1-.3-1-.8-2.1-1.3-3.3-1.6-1-.3-1.4,0-1.2,1,0,.4.2.8-.1,1.1-.5.3-.8,0-1.2-.3-.4-.3-.8-.6-1.2-.9-4.3-3.9-9.1-2.8-13.9-1.5-1.6.4-3.2,1.1-4.7,1.6-.9.3-1,.8-.4,1.4,1.9,2.1,2.8,4.8,3.9,7.4,1.6,4-.6,8.2-2.6,10.3-1.4,1.5-6.8,1.7-8.9.5-1.6-.9-3.1-2.1-4.7-3.4.5,2.6,1,5.2,1.5,7.7.2.9,1,.8,1.6,1,1.4.5,1.7,1.1.5,2.1-1.9,1.6-2.2,3.6-2.2,5.8,0,2.6-1,5-2.3,7.3-.2.4-.5,1-1.1.8-.6-.1-.6-.7-.7-1.2-.4-1.8-.4-3.8-1-5.6-.4-1.2-.9-1.3-2-.9-2.7,1.1-5.5,1.7-8.5,1.6-3.2-.1-6.4,0-9.5.3-1.4.1-2.9,0-4.3-.2-1.7-.4-3.4,0-4.7,1.2-1.4,1.2-2.7,2.3-4.7,2.1-.1,0-.3.1-.4.2,0,0-.1.2-.2.3.7.4,1.4.9,2.1,1.2,5.7,2.1,10.3,6.1,15.5,9,3,1.7,5.3,4,7.3,6.8,2.5,3.4,4.9,6.8,7.3,10.2,1.2,1.7,1.9,3.5,2.2,5.5,0,.4.2,1-.3,1.2-.4.2-.7-.2-1-.5-.8-.8-1.7-1.5-2.3-2.4-2.3-2.9-5.2-5-8-7.3-2.5-2.1-4.5-4.7-6.8-6.9-3.6-3.6-7-7.5-10.8-11-2-1.9-4.3-3.3-7-3.8-1.7-.3-3.4.6-5.2.9-.1,0-.2,0-.3.1-6.2,1-8.2,6.3-11.1,10.7-2.5,3.8-3.4,8.3-5.5,12.4-2.2,4.4-4.8,8.6-6.8,13.1-3.4,7.8-8,15.1-9.8,23.6-.4,1.9-1.1,3.8-2,5.5-.9,1.7-1.1,3.4-1.2,5.3-.1,4.7-.8,9.4-1.2,14.2-.4,4.8-.1,9.6-.2,14.4,0,5.2.4,10.4.4,15.6,0,3-.8,6-.4,9.1h-4.7Z"></path> </svg>