<svg width="0" height="0" focusable="false" style="position:absolute" aria-hidden="true" xmlns="http://www.w3.org/2000/svg">
<!-- Full HTMLLES Logo -->
<symbol id="logo-full" viewBox="0 0 285 119">
  <path d="M257.7 34l-6 1.4c1.3 8 8.1 13.3 17 13.4 9.6 0 15.5-5.3 15.5-13.4 0-6.6-3.1-10.3-13.4-14.2-7.2-2.8-10.2-4.9-10.2-8.8 0-3.6 3.3-6.5 7.6-6.5a9.8 9.8 0 018.8 5.6l5-3a14.8 14.8 0 00-13.6-8c-8.2 0-13.7 4.9-13.7 12.1 0 6.3 3.3 9.7 12.9 13.4 7.8 3 10.5 5.5 10.5 9.9 0 4.3-3.4 7.5-9.4 7.5s-10.2-3.6-11-9.5zM6.9 1.3h-6V48h6V26.9h23V48h6V1.3h-6v20h-23v-20zM44.2 6.8h15.7V48h6V6.8h15.6V1.3H44.2v5.5zM101.9 2H85.3v3h8.1v40.1H88v3.1h16.6v-3.1h-8.1v-32h2.3v5.4h2.7v5.4h2.7v2.7h2.7V32h2.7v2.7h3.1v-8.1h2.7v-5.4h2.7v-5.4h2.7v-5.4h2.3v34.7h-5.4v3.1H137v-3.1h-8v-40h8V1.8h-13.9v2.7h-2.7V10h-2.7v5.4H115v5.4h-2.7v2.7H110v-5.4h-2.7v-5.4h-2.7V7.3h-2.7V2zM146.2 1.3h6v41.2h20.9V48h-26.9V1.3zM187.4 1.3h-6V48h27v-5.5h-21V1.3zM216.6 1.3h30.8v5.5h-24.9v14.6h22.6V27h-22.6v15.6h24.9V48h-30.8V1.3zM53.6 61.8a3 3 0 01-2.9 3 3 3 0 01-3-3 3 3 0 011.6-2.6c-2.3 0-2.7 2.7-3 4.6v.1l-1.5 10.9h7.4v3h-7.7l-4.2 29.8c-1.2 8.9-5 11.4-8.6 11.4-3 0-5-2.7-5-5.5a3 3 0 012.9-2.9 3 3 0 012.2 4.8 3 3 0 01-1.6 1 1.4 1.4 0 001.3.6c1.3 0 2-.6 2.3-2.9l5-36.4h-6.4v-2.9h7l1.2-9c1-7 4.7-8.6 7.7-8.6 3.6 0 5.3 2.5 5.3 4.6z"/>
  <path fill-rule="evenodd" d="M51.3 95.4c0 7.8 4.9 12.2 11.5 12.2 6.8 0 10.7-4.6 14-9.8l-2-2c-2.6 4.4-6.2 8.3-11.2 8.3-4.3 0-6.1-3.7-6.1-9.3v-2.3c11.5-2.6 22.8-6 22.8-13.8 0-4-3-6.5-8.4-6.5-12 0-20.6 13.1-20.6 23.2zm7-6.3c2-7.2 7.5-14.3 13.2-14.3 2.7 0 3.3 2 3.3 3.9 0 5.7-7 8.7-16.4 10.4z" clip-rule="evenodd"/>
  <path d="M106 79.8a3.6 3.6 0 01-7.2 0 3.5 3.5 0 012.3-3.3 6.7 6.7 0 00-5-1.7c-3.5 0-6.2 2-6.2 5.4 0 3.5 3 5.5 6.2 7.6 3.7 2.4 7.6 5 7.6 10 0 6.4-6.6 9.8-13.2 9.8-6 0-11-3.4-11-9a3.6 3.6 0 016.1-2.7 3.6 3.6 0 011 2.7 3.5 3.5 0 01-2.9 3.5c1 1.7 3.1 3 7.2 3 4.2 0 7.2-2.3 7.2-5.9 0-3.5-2.7-5.2-5.7-7C88.8 90 85 87.6 85 81.9c0-6 4.7-9.6 11.6-9.6 5.5-.1 9.3 3.8 9.4 7.5zM112 98.1c-1.2 4.7.7 9.5 5.3 9.5 5.2 0 10-6.5 12.3-11.8l-2-1c-2 4.4-5.3 9.3-8.6 9.3-2.3 0-1.8-3.9-1.3-6l5.6-21h8.8v-3.6h-7.9l3-11h-5.8l-2.9 11h-7.3v3.6h6.4L112 98zM144.6 107.6c-5.1 0-7.7-4.6-4.3-12.8l4.5-10.9c1.8-4.6 2.9-8.1-.2-8.1-2.6 0-5.2 2.9-7.4 8.2l-2-1c2.3-5.6 5.5-10.8 10.7-10.8 5.1 0 7.9 4.3 4.4 12.8l-5.1 12.5c-1.4 3.4-1.6 6.5.6 6.5 2.8 0 5.5-3.8 7.4-8.9l2 1c-2.4 6.5-6 11.5-10.6 11.5zM149.8 58.4a3.9 3.9 0 110 7.8 3.9 3.9 0 010-7.8zM172.3 107.6c10.7 0 22.6-11.5 22.6-25.8 0-4.8-2.2-9.7-7-9.7a3.6 3.6 0 10.3 7.2 3.5 3.5 0 002.7-1.8c.8 1.3 1.1 2.8 1 4.3 0 12.9-10.3 22.3-17.8 22.3-4.8 0-4.7-3.9-3.1-8.7l4.4-13.3c2.2-7-1-10-4.7-10-6.2 0-10 6.7-12.4 12.1l2 1.5c3-5.6 6-10 9-10 2.3 0 1.3 3.2.2 6.5v.3l-4.3 12.8c-2.4 7.8 1.6 12.3 7 12.3z"/>
  <path fill-rule="evenodd" d="M208.8 107.6c-6.4 0-9.4-6.3-9.4-12.4 0-10.5 7.6-23 18.4-23a6.8 6.8 0 016.3 3.7l.6-2.4h5.7L224 98.1v.1c-.5 2-1.5 5.9 1 5.9 2.1 0 4-4 5.1-7.3l1.9 1c-1.8 5.4-4.4 9.8-9 9.8-2.9 0-4.4-2.1-4.9-4.7a12.3 12.3 0 01-9.2 4.7zm12.5-21.4c1.5-5.8 1.1-11.4-3.9-11.4-6.6 0-11.8 12.5-11.8 20.4 0 4.9 1.1 8.8 4.8 8.8 3.3 0 6.7-1.6 8.5-8.1l2.4-9.7z" clip-rule="evenodd"/>
  <path d="M244.7 104c-2.6 0-2.2-3-1.4-5.9l10.8-40.8h-1L240 58.5v3h2.7c2.7 0 4.5.6 3.5 4.4l-1.5 5.2-7.1 27c-1.5 5.4 1 9.5 5.6 9.5 4.7 0 8.8-5.7 11-11l-1.9-1c-1.3 3.3-4.6 8.5-7.6 8.5z"/>
</symbol>
<!-- Small HTMLLES Logo  -->
<symbol id="logo-small" xmlns="http://www.w3.org/2000/svg" viewBox="0 0 284 49">
  <path d="M256.8 34l-5.9 1.4c1.2 8 8 13.3 16.9 13.4 9.6 0 15.5-5.3 15.5-13.4 0-6.6-3.1-10.3-13.4-14.2-7.2-2.8-10.1-4.9-10.1-8.8 0-3.6 3.2-6.5 7.5-6.5a9.8 9.8 0 018.8 5.6l5-3a14.8 14.8 0 00-13.6-8c-8.2 0-13.7 4.9-13.7 12.1 0 6.3 3.3 9.7 13 13.4 7.7 3 10.4 5.5 10.4 9.9 0 4.3-3.4 7.5-9.3 7.5-6 0-10.3-3.6-11.1-9.5zM6 1.3H0V48h6V26.9h23V48h6V1.3h-6v20H6v-20zM43.3 6.8H59V48h6V6.8h15.7V1.3H43.3v5.5zM101 2H84.4v3h8.1v40.1h-5.4v3.1h16.6v-3.1h-8v-32h2.2v5.4h2.7v5.4h2.7v2.7h2.7V32h2.7v2.7h3.1v-8.1h2.7v-5.4h2.7v-5.4h2.7v-5.4h2.3v34.7h-5.4v3.1h19.3v-3.1h-8v-40h8V1.8h-13.9v2.7h-2.7V10h-2.7v5.4h-2.7v5.4h-2.7v2.7h-2.3v-5.4h-2.7v-5.4h-2.7V7.3H101V2zM145.4 1.3h6v41.2h20.8V48h-26.8V1.3zM186.5 1.3h-6V48h27v-5.5h-21V1.3zM215.7 1.3h30.8v5.5h-24.8v14.6h22.5V27h-22.5v15.6h24.8V48h-30.8V1.3z"/>
</symbol>
<!-- Menu -->
<symbol id="menu"  viewBox="0 0 25 24">
	<path d="M25 3H0V0h25v3zm0 10H0v-3h25v3zm0 10H0v-3h25v3z"></path>
</symbol>
<!-- Close -->
<symbol id="close" viewBox="0 0 21 22">
	<path d="M11 13l8 8 2-2-8-8 8-8-2-2-8 8-8-8-2 2 8 8-8 8 2 2 8-8z"></path>
</symbol>
<!-- Date -->
<symbol id="date" fill="currentColor" viewBox="0 0 26.1 28">
  <path d="M21.9 21.3l-.7-2.3-2.5.7-2.5-8-2.3.7c-.3 1.1-1.5 2-2.4 2.6l.7 2.4c.7-.3 1.4-.9 2-1.4l1.5 4.7-2.5.8.8 2.3 7.9-2.5zm3.2 1.3L11 27 6 11.2 7.8 9l3.7-1.2h3.1l2-1.5h2.3l.7-1.2L25 22.6zM15.6 6l-1.2 1h-3.2c-.3.3-.5-.1-.8-.2-1.7-.6-3.9-.5-5.2.7-1 .8-1.4 1.9-1.5 3l1.6.4-.3.3.9 2.6-2.3 1.7V18h3.6l.8 2.3H.8V3h14.8v3zM26 23.1L19.8 2.9l-1.3 2.6h-2L16.3 0H0v21.3h8.3l2.2 6.7L26 23.1z"></path>
</symbol>
<!-- Pin -->
<symbol id="pin" fill="currentColor" viewBox="0 0 19 28">
  <path d="M13.02 10.49c2.87 0 5.2-2.35 5.2-5.25S15.9 0 13.02 0a5.25 5.25 0 00-3.37 9.24L2.32 22.12 0 27.94l.11.06 3.99-5.1 7.26-12.69c.52.18 1.08.28 1.66.28z"></path>
</symbol>
<!-- Ada X Logo -->
<symbol id="ada-x" fill="#563e91" viewBox="0 0 81.24 58.78">
   <path class="cls-1" d="M28.98,34.44c-1.35,0-2.55.06-3.74-.04-.3-.02-.67-.51-.8-.86-.95-2.46-1.83-4.96-2.8-7.41-.15-.38-.7-.87-1.07-.87-4.33-.06-8.67-.04-13.07-.04-.98,2.72-2.01,5.39-2.88,8.11-.28.88-.64,1.19-1.52,1.13-.97-.06-1.95-.01-3.1-.01.66-1.85,1.25-3.56,1.88-5.25,2.29-6.14,4.6-12.27,6.89-18.41,1.24-3.33,2.43-6.67,3.69-9.99.12-.32.61-.64.98-.71.63-.12,1.32-.12,1.95,0,.35.07.8.42.92.74,3.21,8.52,6.37,17.05,9.56,25.57.99,2.63,2.03,5.24,3.12,8.03ZM20.3,22.11c-1.96-5.53-3.86-10.89-5.86-16.51-2.01,5.64-3.93,11.05-5.88,16.51h11.73Z"/>
  <path class="cls-1" d="M32.58,18.43v-3.78c.64-.03,1.18-.06,1.82-.09.06-.5.12-.98.2-1.55.57-.05,1.15-.1,1.82-.16.04-.57.07-1.12.11-1.77h9.93c.05.54.1,1.12.16,1.8.6.03,1.19.07,1.83.1.03.53.06.98.09,1.53h1.56V3.45h-5.69V1.26h9.61v33.12h-1.84v-3.77h-3.64c-.03.59-.05,1.13-.08,1.79-.59.05-1.17.1-1.84.15-.05.6-.1,1.18-.16,1.82h-9.96c-.03-.62-.05-1.16-.08-1.79-.61-.06-1.2-.11-1.86-.17-.03-.57-.07-1.12-.11-1.78-.56-.05-1.14-.11-1.87-.17v-3.78c-.72-.04-1.29-.07-1.93-.1v-7.97c.58-.05,1.15-.1,1.92-.17ZM50.09,28.26v-11.39c-.64-.03-1.19-.06-1.81-.09-.04-.65-.07-1.23-.1-1.84-.68-.06-1.26-.11-1.86-.16-.03-.54-.06-1-.1-1.52h-7.44c-.05.55-.1,1.04-.15,1.54-.67.06-1.25.11-1.84.15-.03.66-.06,1.2-.09,1.82-.66.04-1.24.07-1.82.1v9.42c.64.03,1.18.06,1.87.09v3.78c.72.06,1.31.11,1.91.17.03.64.06,1.18.08,1.79h7.44c.06-.65.11-1.23.17-1.82.67-.06,1.25-.11,1.83-.16.03-.66.06-1.21.09-1.82.63-.03,1.18-.06,1.81-.09Z"/>
  <path class="cls-1" d="M81.23,31.15c0,.82-.03,1.56,0,2.29.06,1.23-.6,1.29-1.6,1.18-2.46-.27-4.36-1.26-5.11-3.91-2.19,2.49-4.74,3.69-7.91,3.78-2.76.07-5.4-.1-7.46-2.17-1.96-1.97-2.25-4.48-1.83-7.05.45-2.8,2.47-4.22,5.06-4.75,1.92-.39,3.92-.49,5.89-.58,1.94-.09,3.89-.02,5.94-.02.2-2.58-.05-4.91-2.31-6.42-2.51-1.67-5.41-1.48-7.77-.08-1.11.66-1.94,1.76-2.98,2.56-.26.2-.99.22-1.19.02-.58-.6-.99-1.35-1.59-2.22,1.72-2.42,4.44-4.15,8.12-4.54,2.45-.26,4.72-.04,6.91,1.03,3,1.47,4.3,4.06,4.44,7.22.14,3.25,0,6.52.05,9.78,0,.77.12,1.56.36,2.29.43,1.37,1.61,1.62,2.99,1.58ZM74.26,23.25c-3.4,0-6.63-.11-9.84.04-1.88.09-3.19,1.49-3.59,3.27-.26,1.17.65,3.13,2.02,3.91,2.54,1.44,5.28,1.46,7.71.03,2.66-1.57,3.84-4.19,3.7-7.25Z"/>
  <path class="cls-1" d="M.15,50.28v-3.46h53.88v3.46H.15Z"/>
  <path class="cls-1" d="M58.99,56.99c2.29.55,3.61-.88,4.47-2.48,1.9-3.55,3.39-7.29,3.51-11.41.01-.4-.13-.8-.21-1.2-.41-2.13-2.27-2.34-3.49-1.29-1.54,1.32-2.83,2.92-4.28,4.45-.07-.04-.45-.29-.92-.58,1.32-2.15,2.54-4.24,4.8-5.62,2.45-1.49,5.6-1.53,6.58,1.88.03.11.11.21.02.05,1.62-.96,3.12-2.14,4.82-2.8,2.11-.82,4.97,1.23,4.63,4.09-.08.68-1.07,1.54-1.79,1.74-.52.14-1.55-.52-1.91-1.1-.31-.5-.07-1.4.05-2.1.06-.3.44-.55.7-.85-1.6-.51-3.05.18-4.23,1.96-1.89,2.86-2.93,6.07-3.6,9.38-.24,1.21-.25,2.56,0,3.77.33,1.62,1.63,2.05,3.15,1.35,1.9-.87,3-2.49,4.09-4.15.12-.19.26-.37.42-.6.87.35,1.14.81.6,1.66-1.24,1.94-2.56,3.77-4.73,4.82-3.14,1.51-4.85.97-6.32-1.96-1.47.85-2.87,1.88-4.43,2.5-2.37.94-4.92-.86-5.13-3.4-.09-1.11.44-1.94,1.47-2.15.64-.13,1.57.03,2.05.43.7.58,1.03,1.52.43,2.47-.24.38-.49.75-.75,1.15Z"/>
</symbol>
<!-- Festival Dates -->
<symbol id="dates" fill="#563e91" viewBox="0 0 458.51 49.5">
<path class="cls-1" d="M8.56,45.68c-2.96-2.31-5.12-5.32-6.5-9-1.38-3.69-2.06-7.71-2.06-12.07s.69-8.25,2.06-11.96c1.37-3.71,3.55-6.74,6.53-9.08C11.57,1.24,15.33.07,19.87.07s8.27,1.17,11.2,3.51c2.93,2.34,5.08,5.36,6.43,9.08,1.35,3.71,2.03,7.7,2.03,11.96s-.67,8.25-1.99,11.96c-1.33,3.71-3.46,6.74-6.39,9.07-2.93,2.34-6.69,3.51-11.27,3.51s-8.35-1.16-11.31-3.47ZM7.67,33.31c.8,2.86,2.2,5.28,4.19,7.25,1.99,1.97,4.64,2.96,7.94,2.96s5.93-1,7.91-2.99c1.97-1.99,3.36-4.42,4.16-7.29.8-2.86,1.2-5.74,1.2-8.63s-.4-5.76-1.2-8.63c-.8-2.86-2.19-5.29-4.16-7.29s-4.61-2.99-7.91-2.99-6.01.99-8.01,2.96c-1.99,1.97-3.38,4.38-4.16,7.22-.78,2.84-1.17,5.75-1.17,8.73s.4,5.83,1.2,8.7Z"/>   
<path class="cls-1" d="M45.92,43.03h11.62V9.97l-9.28,9.07-3.92-4.54L59.46,0l4.54,1.79v41.25h10.59v5.64h-28.67v-5.64Z"/>   <path class="cls-1" d="M113.56,45.99l13.2-12.31h-45.3v-4.95h45.3l-13.2-11.68,3.99-3.65,19.59,17.74-19.59,18.35-3.99-3.51Z"/>   
<path class="cls-1" d="M144.91,43.03h11.62V9.97l-9.28,9.07-3.92-4.54,15.12-14.51,4.54,1.79v41.25h10.59v5.64h-28.67v-5.64Z"/>   
<path class="cls-1" d="M184.88,46.81c-2.77-1.56-5.17-3.78-7.18-6.67l5.02-3.92c1.24,2.16,2.9,3.91,4.98,5.26,2.08,1.35,4.46,2.03,7.11,2.03,3.53,0,6.29-.92,8.28-2.75s2.99-4.26,2.99-7.29c0-3.21-.97-5.68-2.92-7.42-1.95-1.74-4.5-2.61-7.67-2.61-4.08,0-7.7,1.65-10.86,4.95l-5.29-2.13,2.61-25.71h25.99v5.64h-21.24l-1.65,15.81c1.69-1.47,3.46-2.53,5.29-3.2,1.83-.66,3.85-1,6.05-1,3.3,0,6.15.65,8.56,1.96,2.41,1.31,4.24,3.12,5.5,5.43,1.26,2.32,1.89,4.96,1.89,7.94s-.76,5.89-2.27,8.32c-1.51,2.43-3.6,4.32-6.25,5.67-2.66,1.35-5.68,2.03-9.08,2.03-3.8,0-7.09-.78-9.86-2.34Z"/>   
<path class="cls-1" d="M299.64,42.07l18.63-16.43c2.47-2.2,4.24-4.14,5.29-5.81,1.05-1.67,1.58-3.52,1.58-5.53,0-2.52-.84-4.58-2.51-6.19-1.67-1.6-3.77-2.41-6.29-2.41-3.02,0-5.55.78-7.56,2.34-2.02,1.56-3.44,3.78-4.26,6.67l-5.57-2.06c1.33-4.58,3.59-7.83,6.77-9.73,3.18-1.9,6.77-2.85,10.76-2.85,3.07,0,5.74.57,8.01,1.72,2.27,1.15,4.02,2.75,5.26,4.81,1.24,2.06,1.86,4.42,1.86,7.08,0,3.07-.64,5.73-1.93,7.97-1.28,2.25-3.51,4.72-6.67,7.42l-16.29,13.95h27.08v5.64h-32.38l-1.79-6.6Z"/>   
<path class="cls-1" d="M346.49,45.68c-2.96-2.31-5.12-5.32-6.5-9-1.38-3.69-2.06-7.71-2.06-12.07s.69-8.25,2.06-11.96c1.37-3.71,3.55-6.74,6.53-9.08,2.98-2.34,6.74-3.51,11.27-3.51s8.27,1.17,11.2,3.51c2.93,2.34,5.08,5.36,6.43,9.08s2.03,7.7,2.03,11.96-.67,8.25-1.99,11.96c-1.33,3.71-3.46,6.74-6.39,9.07-2.93,2.34-6.69,3.51-11.27,3.51s-8.35-1.16-11.31-3.47ZM345.6,33.31c.8,2.86,2.2,5.28,4.19,7.25,1.99,1.97,4.64,2.96,7.94,2.96s5.93-1,7.91-2.99c1.97-1.99,3.36-4.42,4.16-7.29.8-2.86,1.2-5.74,1.2-8.63s-.4-5.76-1.2-8.63c-.8-2.86-2.19-5.29-4.16-7.29s-4.61-2.99-7.91-2.99-6.01.99-8.01,2.96c-1.99,1.97-3.38,4.38-4.16,7.22-.78,2.84-1.17,5.75-1.17,8.73s.4,5.83,1.2,8.7Z"/>   
<path class="cls-1" d="M382.27,42.07l18.63-16.43c2.47-2.2,4.24-4.14,5.29-5.81s1.58-3.52,1.58-5.53c0-2.52-.84-4.58-2.51-6.19-1.67-1.6-3.77-2.41-6.29-2.41-3.02,0-5.55.78-7.56,2.34-2.02,1.56-3.44,3.78-4.26,6.67l-5.57-2.06c1.33-4.58,3.59-7.83,6.77-9.73,3.18-1.9,6.77-2.85,10.76-2.85,3.07,0,5.74.57,8.01,1.72,2.27,1.15,4.02,2.75,5.26,4.81,1.24,2.06,1.86,4.42,1.86,7.08,0,3.07-.64,5.73-1.93,7.97-1.28,2.25-3.51,4.72-6.67,7.42l-16.29,13.95h27.08v5.64h-32.38l-1.79-6.6Z"/>   
<path class="cls-1" d="M443.93,35.75h-23.85l-1.93-4.47L440.63.48h9.56v29.76h8.32v5.5h-8.32v12.92h-6.26v-12.92ZM443.93,30.25V6.05l-17.74,24.2h17.74Z"/>   
<g>     
<path class="cls-1" d="M232.97,20.93l-5.96-18.03v18.03h-3.04V.25h5.09l5.51,17.23L240.09.25h5.1v20.68h-3.04V2.9l-5.96,18.03h-3.22Z"/>     
<path class="cls-1" d="M256.83.25h3.52l8.13,20.68h-3.28l-1.7-4.48h-9.92l-1.67,4.48h-3.1L256.83.25ZM254.51,13.97h8.04l-4.05-10.78-3.99,10.78Z"/>     
<path class="cls-1" d="M275.15,20.93h-3.04V.25h3.04v20.68Z"/>     
<path class="cls-1" d="M232.97,49.45l-5.96-18.03v18.03h-3.04v-20.68h5.09l5.51,17.23,5.51-17.23h5.1v20.68h-3.04v-18.03l-5.96,18.03h-3.22Z"/>     
<path class="cls-1" d="M255.76,28.77h3.52l8.13,20.68h-3.28l-1.7-4.48h-9.92l-1.67,4.48h-3.1l8.02-20.68ZM253.43,42.49h8.04l-4.05-10.78-3.99,10.78Z"/>     
<path class="cls-1" d="M268.36,28.77l5.9,10.1,6.02-10.1h3.34l-7.93,12.66v8.01h-3.04v-8.07l-7.63-12.61h3.34Z"/>   
</g>
</symbol>
<!-- Bird Outline -->
<symbol id="bird-outline" viewBox="185.13 291.36 242.58 209.79">
    <path class="cls-1" d="M285.9,489.7c5.3-.9,8.7-3.6,11.3-7.1,3.3-4.4,3.1-4.5,6,.4,2.5,4.1,4.8,8.3,6.6,12.7.2.6.5,1.3,1.2,1.4,2,.3,2.6,1.9,3.3,3.3.9-.1.8-.7.6-1-1.3-3.4-2.3-6.7-4.3-9.9-2.9-4.6-6.1-9.3-6.8-15.7,3.7,2.7,7.1,4.4,11.3,5.4,3.7.8,7.2,2.7,11.3,2.9-2.5-2.6-5.4-4.3-9-5.5-5.8-1.9-11.5-3.7-14.4-10-2-4.5-5.5-8.4-6.5-13.5-1.7-8.7-3.4-17.5-4.9-26.2-.5-3-1.1-6-.9-9,.3-4.5,2.7-6.5,7.6-6.4,7.1.1,14.2,0,21.3.2,2.6,0,4.5,1.5,5.9,3.3,5.1,6.1,10.1,12.2,14.9,18.5,2,2.7,4.2,5.5,4.9,8.9.6,3.2-.7,4.7-4.2,4.9-1.8,0-3.4-.4-5-.9-3.8-1.2-7.7-1-11.4.4-1.3.5-2.2,1.3-2.7,2.1,9.1.9,18.2,1.8,27.2,2.7,1.3.1,2.1.8,2.6,1.8,1.4,2.8,4.2,4.3,6.6,6.2,1.1.9,1.5.4,1.7-.8.3-2.4,1.5-3,3.6-1.5,4.2,3,8.7,4.6,14,4.6,1.2,0,2.3.7,3.5,1,.8.2,1.8.8,2.4.6,2.4-.8,4.4-.1,6.7,1.2-.2-2.9-2.3-3.7-4.2-4.5-2.2-1-4.5-1.2-7-1.1-1.6,0-3.2,0-4.8-.5-.9-.3-1.9-.6-1.8-1.7.1-1.1,1.2-1.4,2.1-1.4,2.5,0,4.9-.3,7-2.2-2.1-.8-4.2-.8-6.2-.3-7.5,2.2-13.4-.4-18.6-5.1-.7-.7-1.3-1.5-1.8-2.4-1.1-1.8-2.3-3.5-3.9-4.9-7.9-6.8-14-15-20.6-22.7-1.1-1.2-1.8-2.7-2.6-4.1-1.1-1.9-.5-3,1.9-3.2,6.9-.6,13.7-2.1,20.3-4.2,5.1-1.6,9.6-4.5,14.1-7.4,6.9-4.5,13.1-9.6,17.8-16.3,6.3-9,10.5-18.6,11.6-29.4.3-3,1.1-5.9,3-8.5,2.5-3.3,4-7.4,7.3-10.1,2.6-2.1,5.6-4.1,9.6-3.1,3.4.9,7,.5,10.5.5,1,0,2.2,0,2.8-1,.6-1.1-.6-1.8-1.2-2.5-2.3-2.4-5.5-3.4-8.6-4.6-2.1-.8-3.3-1.6-4.1-4.2-2.2-6.8-6.1-12.8-12.2-17.7-11-9-23.6-10.8-37.5-9.7-10.2.9-19.1,5-28.4,8.4-5.3,1.9-9.7,5.7-15.6,6.4-6.4.8-12.7,2.2-18.8,4.3-7.2,2.5-15,2.2-22.4,4-4.1,1-8.4,1.7-12.5,2.5-2.9.5-5.6.2-8.5-1-8.1-3.3-16.1-6.8-24-10.5-4.4-2-8.7-4-13-6-.9-.4-1.4-1.1-2-1.9-2.2-2.7-5-3.7-8.5-3.1-.7.1-1.4.4-2,.2-6.5-1.5-12.3,1-18.4,2.1-1.9.3-3.1,1.2-3.2,2.8-.2,1.6,1.4,1.8,2.7,2.2,14.7,4.8,29.2,10.3,42.1,18.7,1.2.8,2.7,1.4,3.9,2.1,2.5,1.5,4.7,3,4.8,6.3,0,3.1,2.8,5.1,5.3,7,3.2,2.5,3.2,2.8-.2,5.2-5.2,3.6-9.6,8-13.9,12.4-.5.5-1.5,1.1-1.1,2,.4.8,1.4.4,2.1.5,4,.4,7.9.7,11.6,2.4,2.3,1.1,4.9,1.4,7.5,1.7,2.4.3,3.5,1.6,3.6,3.7.4,8.3,4,15.7,7.9,22.9,2.4,4.5,6.8,8.2,11.8,10.5,5.2,2.5,8.2,6.2,8.8,11.5.2,2,.8,3.8,2.1,5.4,2.1,2.6,3.3,5.6,3.9,8.7,2.3,11.1,4.4,22.3,6.8,33.4.7,3.1.8,6.1.4,9.2,0,.6-.2,1.3,0,1.9,2.4,8.1-2.4,13.5-8.1,18.5-.5.4-1,.9-1.4,1.3-.2.2-.2.5-.5,1.3"></path> 
</symbol>
<!-- Bird -->
<symbol id="bird" viewbox="184.78 291.78 242.78 209.62">
    <path d="M285.6,490.7c5.3-.9,8.7-3.6,11.3-7.2,3.3-4.5,3.1-4.6,6.1.4,2.5,4.1,4.9,8.3,6.6,12.8.2.6.5,1.3,1.2,1.4,2,.3,2.6,1.9,3.3,3.3.9-.1.8-.7.6-1-1.3-3.4-2.3-6.8-4.3-10-2.9-4.6-6.2-9.4-6.9-15.8,3.7,2.7,7.1,4.5,11.4,5.4,3.7.8,7.2,2.8,11.4,2.9-2.5-2.6-5.4-4.3-9.1-5.5-5.9-1.9-11.6-3.8-14.4-10.1-2-4.5-5.6-8.5-6.5-13.5-1.7-8.8-3.4-17.6-4.9-26.4-.5-3-1.1-6-.9-9.1.3-4.6,2.7-6.5,7.6-6.4,7.2.1,14.3,0,21.5.2,2.6,0,4.5,1.5,6,3.3,5.1,6.1,10.2,12.3,15,18.6,2.1,2.7,4.2,5.5,4.9,9,.6,3.2-.7,4.7-4.2,4.9-1.8,0-3.4-.4-5-.9-3.9-1.3-7.7-1-11.5.4-1.3.5-2.2,1.3-2.7,2.1,9.2.9,18.3,1.8,27.4,2.8,1.3.1,2.1.8,2.6,1.8,1.4,2.8,4.3,4.3,6.6,6.2,1.2,1,1.5.4,1.7-.8.3-2.4,1.5-3,3.6-1.5,4.2,3,8.7,4.7,14.1,4.6,1.2,0,2.4.7,3.5,1,.8.2,1.8.8,2.4.6,2.4-.8,4.4-.1,6.7,1.2-.2-2.9-2.4-3.7-4.2-4.6-2.2-1-4.6-1.2-7-1.1-1.6,0-3.3,0-4.8-.5-.9-.3-1.9-.6-1.8-1.7.1-1.1,1.2-1.4,2.1-1.4,2.5,0,4.9-.3,7-2.2-2.1-.8-4.2-.8-6.2-.3-7.5,2.2-13.5-.4-18.8-5.1-.7-.7-1.3-1.6-1.8-2.4-1.1-1.8-2.3-3.5-3.9-4.9-7.9-6.8-14.1-15.1-20.7-22.9-1.1-1.2-1.9-2.7-2.7-4.1-1.1-1.9-.5-3,1.9-3.3,7-.6,13.8-2.2,20.4-4.2,5.1-1.6,9.7-4.5,14.2-7.4,7-4.5,13.2-9.7,17.9-16.4,6.4-9,10.6-18.7,11.7-29.6.3-3,1.1-6,3-8.5,2.5-3.4,4-7.5,7.3-10.1,2.6-2.1,5.6-4.1,9.7-3.1,3.5.9,7,.5,10.6.5,1.1,0,2.3,0,2.8-1.1.6-1.1-.6-1.8-1.2-2.5-2.4-2.4-5.6-3.4-8.6-4.7-2.1-.8-3.3-1.6-4.1-4.2-2.2-6.9-6.1-12.9-12.3-17.8-11.1-9-23.8-10.9-37.8-9.7-10.3.9-19.2,5-28.6,8.4-5.3,1.9-9.8,5.8-15.7,6.4-6.5.8-12.8,2.2-18.9,4.3-7.2,2.5-15.1,2.2-22.5,4-4.2,1-8.4,1.7-12.6,2.5-3,.6-5.6.2-8.6-1-8.1-3.4-16.2-6.9-24.2-10.5-4.4-2-8.7-4.1-13.1-6.1-.9-.4-1.4-1.2-2-1.9-2.2-2.7-5.1-3.7-8.6-3.2-.7.1-1.4.4-2,.2-6.5-1.5-12.4,1-18.6,2.1-1.9.3-3.1,1.2-3.2,2.8-.2,1.6,1.5,1.8,2.7,2.2,14.8,4.8,29.4,10.3,42.3,18.8,1.2.8,2.7,1.4,4,2.2,2.5,1.5,4.7,3,4.8,6.4,0,3.1,2.9,5.1,5.3,7,3.2,2.5,3.3,2.8-.2,5.2-5.2,3.7-9.7,8-14,12.5-.5.5-1.6,1.1-1.1,2,.4.8,1.4.4,2.1.5,4,.4,8,.8,11.7,2.4,2.3,1.1,5,1.4,7.5,1.7,2.4.3,3.6,1.6,3.7,3.8.4,8.4,4.1,15.8,8,23,2.5,4.5,6.8,8.2,11.9,10.6,5.2,2.5,8.3,6.2,8.8,11.6.2,2,.8,3.8,2.1,5.4,2.1,2.6,3.3,5.6,3.9,8.8,2.3,11.2,4.4,22.5,6.9,33.6.7,3.1.8,6.1.4,9.3,0,.6-.2,1.3,0,1.9,2.4,8.2-2.4,13.5-8.2,18.6-.5.4-1,.9-1.4,1.3-.2.2-.2.5-.5,1.3"/>
</symbol>
<!-- Olive Branch Outline -->
<symbol id="olive-branch-outline" viewBox="170.15 196.85 272 399.7">
    <path class="cls-1" d="M386.9,400.4c-1.8,1.9-3.1,4.2-4.2,6.6-.1.3-.2.6,0,.8.4.3.6-.1.8-.3,1.8-2,3.2-4.2,3.3-7M276.4,343.3c-2.1,1.7-3.2,3.5-3.8,5.6-.2.9.3,1.7,1,1.9.8.3.8-.7.9-1.2.6-1.9,1.1-3.9,1.8-6.3M309.6,357.2c.6-.9.7-1.9.3-2.9-.8-1.8-1.6-3.6-2.4-5.5-.2-.4-.3-1-.9-.7-.6.3-.4.8-.2,1.3,1.1,1.9,1.7,4.1,2.3,6.2.2.5,0,1.2.8,1.6M229.6,447.7c.4,0,1,.2,1-.4,0-.5-.5-.5-.9-.5-2,0-4.1-.3-6.1,0-.4,0-1,0-1.2.4-.2.5.2,1,.5,1.3.7.6,1.3.8,2.3.3,1.4-.7,2.7-1.9,4.4-1.3M264.8,329.3c1-1.7,1.9-3,2.6-4.3.2-.4.4-.9,0-1.2-.7-.4-1.3-1.2-2.2-1-.6.1-.6.7-.6,1.2,0,1.6-.2,3.1.2,5.2M378.3,430c0-.3-.3-.8-.4-1.4-.3-1.4-.8-1.2-1.5-.3-.9,1.1-1.7,2.1-2.6,3.2-.2.2-.4.4-.3.7.2.3.5.2.7.2,1.1-.3,2.2-.6,3.3-1,.5-.2.9-.4.7-1.4M371.7,430.4c1.7-1.8,3.2-3.3,4.7-4.8.6-.6.3-1.1-.1-1.6-.5-.5-1.1-.8-1.7-.2-1.6,1.8-3,3.7-2.8,6.6M267.8,390.4c.9-1.3,2.1-2.2,3.3-3.1,2-1.4,2-1.3.1-3-.3-.3-.6-.5-.9-.8-.5-.4-1-.3-1.1.4-.2,2.2-1,4.3-1.4,6.5M384.2,415.2c.2-.5,0-.8-.5-.9-.8-.1-1.4-.6-2.1-1-1.9-.9-2.3-.8-3,1.3-.2.7-.4,1.3.8,1.2,1.2-.2,2.2.3,2.9,1.2.9,1.1,1.3.4,1.7-.3.2-.4.2-1,.2-1.5M259.6,301.6c0,0,.1,0,.2,0,0-1,0-2,0-3,0-.3,0-.7-.5-.7-.3,0-.4.3-.5.6-.4,1.2-.4,2.4-.2,3.6.2.9.6,1.9.2,2.8-1.2,2.8.5,5.3.7,7.9,0,.3.2.6.6.5.3,0,.3-.4.3-.7,0-.7,0-1.4,0-2.2-.2-2.9-.5-5.8-.7-8.8M399.6,426.9c-2-1-3.7-2.6-6.2-1.5-.6.3-1.3,0-2-.2-.9-.2-1.8-.5-2.6-.7,1.2,1.4,2.6,2.5,3.9,3.6.6.5,1,.3,1.5-.2.4-.4.9-.9,1.6-.6,1.3.5,2.6-.2,3.9-.4M356.3,446.3c.8-.4,1-1.4,2-1.5.7,0,1-.7,1.1-1.3.9-3.1,1.6-6.3,1.9-9.5,0-.3,0-.6-.2-.7-.4-.2-.6.1-.8.4-.2.3-.4.5-.5.9-1.2,3.9-2.3,7.9-3.5,11.8M247.3,309.9c-.2-.8-.7-1-1.2-1.3-2.8-1.7-5.6-3.3-8.5-4.9-.5-.3-1.1-1.5-1.7-.5-.4.7.2,1.7.9,2.3.3.2.6.3.9.4,2.2.5,3.9,1.5,4.9,3.6.3.6.8.9,1.5.9,1-.1,2-.3,3.1-.4M267.9,370.6c.1,0,.2.1.3.2.6-1.4,2.6-2,2.5-3.8-.2-2.3-1.1-4.5-1.9-6.6-.2-.6-.7-.8-1,0-.5,1-1,2-.9,3.1.3,2.4.6,4.8,1,7.2M391,428.9c-2.3-2.7-5.2-4.6-8-6.4-.6-.4-1.2-.3-1.7.3-.5.6,0,1,.4,1.4,1,1,2.1,2,3,3.1,2.3,2.8,2.5,2.9,6.3,1.6M297.8,329.6c1.2-.2,2.1-.5,2,1.2,0,.7.9,1.2,1.5,1.3.8.2.6-.8.7-1.2.5-2.1.8-4.2,1.6-6.2.5-1.3-.4-2-1.3-2.5-.9-.5-1.3.5-1.5,1.1-.9,2.1-1.8,4.2-3,6.4M325.9,254.4c1.7,7.1,3.3,14.1,3.4,21.4,3.7-7.9.9-14.8-3.4-21.4M289,308.4c-.4,2.6-1,4.9.3,6.9,1.1,1.7,2.6,3.2,3.6,5,.2.3.3.6.7.6.5,0,.6-.5.6-.9,0-1.4.3-2.7.6-4.1.2-.7,0-1.3-.6-1.8-1.8-1.6-3.3-3.6-5.2-5.7M267.1,407.1c.8-1.2,1.5-2.1,1.7-3.4.4-3,1.5-5.6,3.5-7.9,1.1-1.3,2-2.8,3-4.2.2-.3.7-1.2-.3-.9-1.7.5-3.8.7-4.7,2.5-1.8,3.4-3.4,6.9-3.5,10.8,0,1-.2,2,.3,3.2M272,344c.4-.3.5-.4.6-.6,2.5-4.1,5.1-8.2,8-12,.7-.9.5-1.4-.5-1.8-1-.4-1.9-.9-2.9-1.3-1.5-.7-1.8-.5-1.8,1.1,0,4.1-.8,7.9-2.6,11.5-.4.9-.9,1.8-.9,3.2M265.5,337.8c.2.9.3,1.9.6,2.8.1.4.2.9.8.9.4,0,.6-.5.8-.8,2.2-4.2,3.8-8.6,5.1-13.1.3-1,0-1.6-1-1.9-1.1-.4-1.5.2-1.8,1.1-.8,2-1.6,4-2.5,5.9-.8,1.6-1.7,3.1-1.9,5M245.1,300.5c.2.7.7,1,1.1,1.3,1.9,1.5,3.8,3.1,4.8,5.3,1.3,3.2,4.7,4.2,6.5,7,0-7.1-3.3-12.6-12.4-13.6M356.7,466.4c1.2-1,2.8-1.4,4.1-2.1.9-.4,1.8-1,2.4-1.8,1.9-2.8,3.8-5.5,5.8-8.1.4-.6.4-1-.2-1.4-.5-.3-1-.6-1.5-1-1-.7-1.6-.5-2.3.7-1.7,3.2-3.2,6.4-5.5,9.3-1.1,1.3-1.8,3-2.8,4.4M357.7,452.5c-3.9,5.5-6.6,11.5-10.2,17.3,2.2,0,3.5-1.4,5-2.1,1.9-.9,3.1-2.6,3.8-4.5,1.3-3.4,1.4-7.1,1.5-10.8M331.9,287.1c-.8,1.8-2.6,3.1-2.9,5.3-.6,5.4-1,10.9-1.2,16.4,0,1.2.2,2.3.3,3.9.9-1.2.9-2.4,1.7-3.1.9-.8,1.2-1.9,1.1-3-.3-3.3.5-6.5,1-9.7.5-3.2,1-6.4-.1-9.8M392,406.6c.6-.3.7-.4.9-.5,5.6-5,8.8-11.6,11.2-18.5.1-.3.3-.7,0-.9-.2-.1-.6,0-.9.2-2.5,1-4.3,3.1-6.7,4.3-1.1.6-1.5,1.4-1.4,2.6.3,3.1-.4,6-1.6,8.9-.5,1.1-.8,2.4-1.3,4M232.7,449.4c-.6,0-1.2.3-1.6.7-1.4,1.4-3,1.6-4.9,1.3-1.3-.2-2.6.2-3.6,1-4.5,4-9.4,7.4-14.6,10.5-1.1.6-2.1,1.3-3.5,2.2,4.8-.8,8.8-2.3,12.6-4.5,4.2-2.3,7.9-5.4,12.4-7.1,1.9-.7,3.3-1.6,3.2-3.8,0-.1,0-.2,0-.4M253.9,399.9c2.9,4.7,4.3,10,6.3,15.1,2.1,5.2,2.3,10.6,2.5,16.1.8-.3.7-.7.7-1,.3-3.2.8-6.5.9-9.7.1-2.3.8-4.7,0-6.9-1-2.6-2.2-5.2-3.6-7.6-1.6-2.7-4.2-4.3-6.8-6M317.6,354.4c.9-1.2.9-1.2.9-3.5,0-6.3-1.8-12-5.9-16.8-.3-.4-.5-1-1.1-.9-.6.1-.5.8-.6,1.3-.8,2.5-1,5.2-2,7.7-.2.6,0,1.2.4,1.7,1.2,1.5,2.4,2.9,3.6,4.4.6.8,1.2,1.1,2,.3.9-.9,1.5-.6,1.9.6.5,1.6.7,3.3.9,5.3M250.6,448.9c-.5,0-1,.2-1.2.7-.3.7.5.8.9,1,2.9,1.8,5.7,3.7,8,6.2,1.6,1.7,3.5,2.1,5.6,1.9.8,0,1.6-.2,2.5.1.9.4,1.4-.5,2-.9.6-.5.1-1-.2-1.4-.3-.5-.3-1.2-.3-1.8,0-1-.4-1.7-1.4-2-1.8-.5-3.6-1.2-5.4-1.7-1.8-.5-3.4-1.2-5.2-1.7-1.6-.4-3.4.9-4.8-.5,0,0-.1,0-.2,0M260.5,340.6c.7-2.8,1.1-5.2.3-7.2-.9-2.2-2.7-4.3-4.9-5.5-4.2-2.1-8.7-3.3-13.1-4.7-.3,0-.7-.2-.8.2-.1.4,1.3,3.9,1.8,4.1,1.6.8,2.9,2.1,4.4,3,.8.5,1.5,2,2.8.5.1-.2.8,0,1.3.2,2.3.7,3.8,2.4,5.2,4.2,1.2,1.5,1.9,3.2,3.2,5.1M291.5,291.8c-.2,3-1,6.3-1.6,9.5-.1.6-.5,1.4.2,1.9,1.7,1.3,3.1,3,4.7,4.4.7.6,1.1.4,1.2-.4.5-2.9,1.9-5.5,3-8.2.3-.6.4-1.3,0-1.9-1.8-2.7-3.3-5.7-6.5-7.2-.3-.1-.5-.5-.9-.3-.4.2-.2.6-.2.9,0,.3,0,.7,0,1.3M260.8,329.8c0-3.4-.5-6.7-2.4-9.4-1.7-2.5-4-4.5-6.1-6.8-.9-1-2-1.3-3.3-1.3-2.8.1-4.7,1.9-6.6,3.6-1,.9-1.7,1.9-1.3,3.2.4,1.2,1.8,1.3,3,1.5,1.7.2,3.3-.4,4.9-.8,2.2-.5,4,0,5.6,1.5,1.6,1.4,3,2.9,4.2,4.7.8,1.2.9,2.7,1.9,3.9M413.1,362.5c-2.6,1.2-6.6,4.8-7.6,7.1-1.1,2.5-1.9,5.1-4.5,6.4-.2.1-.3.4-.5.7-2,3.2-3.9,6.6-4.1,10.5,0,.4-.6.9,0,1.2.4.2.8-.2,1.1-.5,3-2.4,5.5-5.5,8.7-7.7.3-.2.4-.6.6-1,1.8-3.6,3.3-7.4,4.2-11.3.3-1.2.8-2.3,1.4-3.4.3-.6.8-1.2.8-2M413.6,427.9c1.2.1,2.3-.4,3.4-.6.4,0,1,0,1-.6,0-.5-.5-.6-.8-.8-3.6-2.2-7.7-3.5-11.8-4.5-2.5-.6-5-1-7.3-2.1-2.4-1.1-4.6-2.8-7.3-3.3-.7-.1-1.5-.4-1.9.4-.6,1-1.4,1.7-2.7,1.7-.4,0-.8.2-.9.6,0,.6.5.6.9.8,2.1.8,4.3,1.5,6.6,1.9,1.6.3,3,.9,4.2,2,.9.9,1.9,1.5,3.1,1.8.6.1,1.4.4,1.4,1,0,1.9,1.1,1.3,2.1,1.1.9-.2,1.8-.2,2.7,0,2.4.3,4.9.6,7.3.8M423.4,397.2c0-.2-.1-.4-.2-.6-5.6,1.3-11.4,1.9-16.8,3.8-5.7,1.9-9.3,6.6-13.3,10.6.3.3.7.2.9,0,1.7-1,3.5-.8,5.4-.8,4.1,0,7.9-1.1,11.2-3.2,2.6-1.7,5.1-3.7,7.7-5.5,1.9-1.2,3.4-2.9,5.1-4.4M233,342.1c-.8,0-1.8-.2-2.7-.7-4.4-2.2-6.5-7-5.2-11.9.2-.7.7-1.5,0-2-2.4-1.6-4.4-3.7-7-5.1-1-.6-1.3-.1-1.1.9.3,2.3.6,4.5,2.1,6.4.6.8,1,1.7,1.3,2.7.5,2,1.6,3.6,2.5,5.4.5.8,1.2,1.5,2.2,1.5,1.1,0,1.9.7,2.1,1.6.4,1.4,1.4,2.1,2.3,2.9,2.9,2.4,5.7,4.7,8.7,6.9,1.3,1,2.4,2.1,3.9,2.8.4.2.9.7,1.3.2.4-.4.2-.9,0-1.4-1.8-3.5-3-7.2-3.8-11.1-.3-1.2-.8-1.3-1.7-.6-1.4,1-3,1.4-4.9,1.4M276.9,321.5c-1.5,2.5.6,3.1,2.1,4,1.1.7,2.2,1.3,3.3,2,.6.3,1.2.8,1.8.2.7-.6,1.5-1.1,1.2-2.2-.2-.9-.1-1.9,0-2.8.7-3.3-.9-5.6-3.3-7.6-3.8-3.2-8-6-12.1-8.9-1.3-.9-1.6-.8-1.8.9-.3,3.1-.9,6.1-2,9-1.1,2.9-1,2.5,1.6,3.2.6.2,1.2.3,1.7.6.9.4,1.5.1,2-.5.7-.7,1.4-1.4,2.2-2.1.3-.2.7-.5,1-.1.3.3,0,.6-.2.9-.5.7-1,1.5-1.5,2.2-.5.7-.3,1.3.4,1.7.6.4,1.2.9,1.9.2.3-.3.6-.8,1.4-.8M287.5,285.7c0-.6.2-1.5-.6-1.7-.8-.2-1.1.6-1.3,1.2-.2.9-.7,1.6-1.3,2.3-1.7,2-3.4,4-5.1,5.9-2.1,2.4-4.3,4.8-6.4,7.2-.5.6-1.3,1.3-.4,2.3,3.8,4.2,8.2,7.6,12.1,11.7.3.3.7.6.9,0,.6-1.4,2-2.6,1.2-4.5-.3-.9-.5-2-.3-2.9.4-2.1-.9-3-2.4-3.9-.5-.3-1.6-.2-1.4-1.1.2-.6,1.1-.5,1.8-.6.2,0,.4,0,.7,0,1.4.1,1.8-.4,1.6-1.8-.6-3.4-.5-6.8.2-10.2.3-1.3.9-2.5.8-3.9M235.7,465.6c.1,1.6,0,3.6.2,5.6.2,1.4.7,1.5,2,1,5.6-2.2,10.5-5.8,16.6-6.9,2.3-.4,3.2-2.6,5.2-3.5.5-.2,1.2-.6,1-1.3-.3-.7-1-.8-1.7-.8-6.2,0-12.1-1.5-17.5-4.8-1.1-.7-2-1.1-3.2-.2-1.4,1-3.2,1.7-2.8,3.9.4,2.2.3,4.4.3,7M319,339c.8-2,1.3-4,2.4-5.7,1.8-2.8,1.5-5.8.5-8.6-.9-2.5-2.1-5-3.9-7.1-4.1-4.8-8.7-9.1-12.7-14-.7-.9-1.2-.9-1.8.2-1.1,2.2-1.4,4.6-2.2,6.9-.4,1.2-.2,1.9.9,2.5,4.4,2.5,7.5,6.4,9.6,10.7,2.4,5,5.7,9.5,7.1,15M378.9,433.1c-2.6.5-5.2,1.4-7.6,2.5-.7.3-1.1,1.1-1.3,1.9-.7,2.7-1.4,5.5-2.2,8.2-.3,1,0,1.6.9,1.9.8.3,1.6.8,2.5.9,1.8.3,2.9,1.4,3.8,2.9,1,1.6,2.2,3.2,3.3,4.8.4.6.8,1,1.6.8,2.2-.6,4.4-1.1,6.7-1.6,1-.2,1.3-.7.9-1.7-.7-1.7-1.3-3.4-1.8-5.2-1.2-4.9-2.2-10-5.4-14.2-.4-.6-.6-1.4-1.6-1.3M278.9,364.1c3.9-1.5,7.8-3,12.1-2,3.5.8,6,3.7,6,7.2,0,3.4-2.6,6.6-6.1,7.2-5.7,1-10.6-.6-14.2-5.3-.3-.4-.6-.8-1.2-.6-.7.3-.4.8-.2,1.3.7,1.8,1,3.6,1.5,5.4.6,2.4,1.3,4.8,2.6,7,.5.8,1,1.3,1.8.3,2.6-3.3,6.3-4.9,9.9-6.6,4.3-1.9,8.3-4.3,11.9-7.3.6-.5,1.1-.9,1-1.8-.6-4.4-1.9-8.6-4-12.4-1.9-3.3-4.4-6.4-6.5-9.6-.5-.8-.9-.6-1.4,0-.2.4-.5.8-.7,1.1-2.5,3.9-5,7.7-8.1,11.2-1.4,1.6-3.3,2.8-4.4,4.7M266.2,449.5c-1.9-4.1-2.8-8.3-4-12.4-.7-2.5-1.5-5.1-1.9-7.7-.4-2.6-1.2-5.1-2.3-7.4-2.4-5.2-5.6-10.1-8.6-15-.7-1.2-1.2-2.7-2.7-3.8.5,2.1,1,3.7,1.4,5.5,1.3,6.2,1.3,12.5,1.4,18.8,0,3.5.2,7.1,1,10.5.8,3.2,2.5,5.9,5.1,7.7,3,2.2,6.5,3.4,10.7,3.8M279.5,420.9c.7-.2,1.7.5,2.6,0,1.4-1,3.1-1.3,4.7-1.7,1.5-.4,1.6-1,1.2-2.3-2.7-6.8-5.3-13.6-8-20.4-.4-.9-.9-1.1-1.6-.5-1.4,1.2-2.8,2.3-4.1,3.6-4,4.1-5.8,9.3-7.4,14.6-1.3,4.3-.8,8.9-1.3,13.3-.2,1.9-.2,3.8-.3,5.6,0,.4,0,1,.5,1.1.6,0,.7-.5.8-.9.3-1.7.8-3.3,1.6-4.9,3.1-5.9,5.7-8.1,11.4-7.6M304.9,476.3c.5-1,0-1.8,0-2.5.1-6.9-1.9-13.4-4.4-19.8-1.8-4.5-3.7-8.9-5-13.5-1.5-5.3-3.3-10.6-4.9-15.9-.4-1.4-1.1-1.7-2.4-1-1.6.8-3.4,1.4-5.1,2-3.9,1.4-7.9,2.7-11.5,4.9-.6.4-1.2.7-1.4,1.4-.4,2.1-1.4,4.2-.9,6.3.7,3,.5,5.9.5,8.9,0,2.6,1.2,4.4,3.3,5.8,1.6,1.1,3.5,2,5,3.3,4.6,4.3,10.1,7.5,15.1,11.2,3.9,2.9,8.7,4.6,11.8,8.9M308.9,387.5c0-2,0-3.9-.8-5.9-1.2-2.6-2.9-5-3.4-7.9,0-.3-.1-.6-.5-.5-.2,0-.4.3-.6.6-2.1,2.7-4.5,5.1-7.7,6.4-1.7.7-3,1.8-4.3,3.1-.3.3-.8.5-.6,1.1.2.4.7.3,1.1.3,2.4,0,4.8.5,7.1-.5.4-.2.9-.2,1.3-.1.5,0,1.1.3,1.1.9,0,.7-.6.7-1.1.7-2.4,0-4.6.9-6.9,1-1.9,0-3.4,1.4-5.1,1.7-2,.3-3.8,1.1-5.2,2.6-.9,1-1.2,1.7-.7,3.1,2.5,7.8,6,15.2,8.6,22.9.5,1.6,1.4,2.3,3,2,1.9-.3,3.8-.2,5.4-1.3.4-.3,1.1-.5,1.3.1.2.6-.5.6-.9.7-1.8.7-3.7,1.4-5.5,2-1.7.6-1.9,1.1-1.3,2.9,1.1,3.2,2.2,6.5,3.3,9.8,2.4,7.3,4.8,14.5,7.9,21.5.1.3.2.9.7.7.4,0,.3-.5.3-.9,0-2.2.3-4.3.4-6.5.2-6.8,1.2-13.4,1.9-20.1.8-7.5,1.4-14.9.5-22.5,0-.5,0-1,0-1.5.2-5.5.4-10.9.7-16.4M307.6,595c.4-3.6.9-7.2.7-10.9-.2-2.6,0-5.2,0-7.8,0-3-.2-6-.9-8.9-.2-.7-.2-1.6,0-2.3,1-4.2.8-8.6,1.1-12.9.2-3.5,1.4-6.9,1.1-10.5-.5-6.7-.3-13.4-.8-20-.3-3.5-.2-7.1-.6-10.6-.6-6.1-.2-12.3-2.3-18.2-.6-1.8-.2-3.6-.4-5.4-.9-7-4.4-12.1-10.8-15.6-5.8-3.1-11-7.3-16.5-10.9-.6-.4-1.2-.6-1.9-.5-3.6.6-7.4.7-10.5,2.9-2.2,1.5-4.1,3.4-6.1,5.1-.5.4-.5,1.1-.5,1.7,0,1.2,0,2.4-.3,3.6-.2.9-.2,1.9-1.4,2.2-1.2.3-2.5.2-3.2-.9-1-1.7-2.1-1.3-3.4-.5-2.6,1.6-5.8,2.1-8.5,3.4-1.5.7-3,1.4-4.5,2.3-.5.3-.8.6-1,1.1-2.1,4.7-3.6,9.5-3.7,14.7,0,.6.2,1.5-.5,1.6-.8.2-1.2-.8-1.4-1.4-.7-1.5-.6-3-.3-4.6.5-2.1.5-4.3.5-6.4,0-1.3-.5-1.6-1.8-1.3-4.4,1.2-8.8,2.3-13.3,3.3-.6.1-1.2.6-1.7,0-.4-.6.1-1.2.4-1.7,1.5-2.3,3.3-4.3,5.9-5.5,2.7-1.3,5.4-2.6,8.2-3.8,1-.5,1.4-1.2,1.2-2.2-.8-4.4-.5-8.8.7-13.1.3-.9.1-1.4-1.1-.9-5,2-10,4.2-14.1,7.8-2.9,2.5-6.2,3.5-10,3.5-3.3,0-6.6.2-9.9.3-.4,0-.9.2-1.2-.2-.4-.5,0-1,.3-1.3.5-.7,1.1-1.4,1.9-2.4-2.9.8-5.3,1.8-7.8,2.3-3.5.7-7.1,1-10.6,0-.8-.3-1.9-.4-2.1-1.4-.2-1,.9-1.3,1.5-1.8,6.1-5.7,13.7-8.6,21.3-11.5,5.6-2.2,11.3-3.6,17.3-4.3.9-.1,1.9-.2,2.1-1.5.2-1.7-.1-2.2-1.9-2.1-10.2.3-19.9-1.8-29.1-6.4-3.1-1.5-6.4-2.3-9.7-3.2-1.8-.5-3.6-1.3-5.2-2.3-.4-.2-.9-.4-.8-1,0-.6.7-.7,1.2-.7,2-.1,4-.5,6-.4,1.5,0,3,0,4.2-.7,4.4-2.3,8.8-1.4,13.2-.1,6.1,1.7,11.8,4.4,17.6,6.8.8.3,1.6.6,2.6.6,1,0,1.8.4,2.6,1.1,3,2.9,6.9,3.7,10.8,4.2,1.4.2,3-.6,4.6-.5,1.4,0,2.8.1,4.1.6,1.9.7,3.8.5,5.8.3,1.5-.2,3-.1,4.5-.2,1.7,0,2.3-.9,1.5-2.3-4.7-7.8-6.2-16.6-8.3-25.3-1-4.3-.4-8.7.1-13,0-.4,0-.8.2-1.1,1.1-3.7.3-6.7-2.9-9.3-2.2-1.7-3.6-4.3-5.1-6.7-.8-1.3-1.6-1.8-3.1-1.5-.6.2-1.5.4-1.7-.5-.2-.9.4-1.5,1.1-1.8,1.7-.9,1.8-.9.6-2.5-.2-.3-.6-.5-.6-1.2,1.8.2,3.4.8,4.9,1.6,1.6,1,3.2,2.1,4.4,3.6,1,1.2,2.1,2,3.6,2.5.9.3,1.8.8,2.7,1.3,2.6,1.5,4.7,3.6,7.7,4.6,1.9.6,3.2,2.3,4.4,4,.9,1.3,1.8,2.7,2.8,3.9,1.3,1.7,2.2,3.5,2.3,5.6,0,.6,0,1.1.6,1.5.6-.1.4-.6.5-.9.3-3.3.7-6.6-.6-9.8-.3-.6-.2-1.4-.1-2.1.3-3.3-.7-6.3-2.5-9.1-.3-.5-.6-1.1-.5-1.7,0-1.6-.6-2.9-1.2-4.3-.3-.7-.8-1-1.5-1.1-5.5-1-11.1-1.9-16.6-3-4.6-.9-9.2-2.1-13.9-3.1-.8-.2-1.5-.4-2.2-.8-4.4-2.2-9.1-2.7-13.9-2.4-.2,0-.3,0-.5,0-.5,0-1.3.2-1.4-.5,0-.6.7-.6,1.1-.8,3.6-1.3,7.2-1,10.8.2,1.1.4,2.4.6,3.6.6,3,.1,5.9,0,8.8.4.9.1,1.1-.2.8-1-.5-1.6-1.5-2.8-3.3-3.2-.5-.1-1.2-.2-1.3-.9-.1-.8.5-1.1,1.1-1.3,1.8-.8,3.1-1.9,4-3.7.6-1.3.3-2.3-1.2-2.5-.8-.1-1.7,0-2.5,0-9.2,1.9-18.5,2.9-27.8,3.8-.6,0-1.2.2-1.8.4-2.2.5-4.4.8-6.6.4-3.2-.6-6.3-1.1-9.1,1.3.3-1.4,1.4-2.1,2.5-2.7,2.8-1.7,5.9-2,9-2.4,6.4-.9,12.8-1.8,19.2-2.5,3.8-.4,7.6-.2,11.4,0,.7,0,1.4,0,2.2,0,2.4,0,2.4,0,2-2.4-.3-1.7,0-2.1,1.8-2.1.4,0,.9.1,1.3-.1.2-.4-.1-.5-.3-.7-2.3-1.8-4.6-3.5-6.9-5.3-1.2-.9-2.3-1.9-3.9-2-.7,0-1.3-.7-1.7-1.2-1.4-2.2-3.6-3.2-5.9-4.1-6.1-2.5-12.3-4.6-18.7-6.3-5.8-1.5-11.4-3.8-15.8-8.3-.8-.8-1.9-.8-2.9-1.2-3.3-1.2-6.3-3-9-5.3v-.7c.7-.6,1.5-1,2.4-1,4.3,0,8.7-.4,12.9.9,5.1,1.6,10.2,3.3,15,5.5.4.2.7.5,1.4.2-1.4-1.8-2.5-3.7-4.1-5.2-4.8-5.1-7.5-11.5-11.1-17.3-1.2-2-1.7-4.3-1.6-6.7,0-.6-.2-1.3.5-1.6.7-.3,1.1.4,1.5.8,3.1,2.7,5.6,5.9,7.5,9.4.6,1,1.2,2,2.2,2.7.5-.7.5-1.4.5-2.1,0-1.4.8-1.7,2-1.2,3.8,1.6,6.5,4.5,9.1,7.6,2.6,3.2,4.5,6.9,6.2,10.6.6,1.2,1.2,1.7,2.7,1.4,3.7-.8,7.3.3,10.9,1.1.3,0,.5.2.8.2.6.1,1.3,0,1.4-.6.2-.7-.6-.6-1-.7-3.5-1-5.8-3.6-5.8-6.8,0-3.3,2.1-6.1,5.6-7.3.6-.2,1.3-.3,1.9-.5,1.7-.4,2.3-1.6,1.7-3.1-.2-.5-.6-.7-1.1-.6-.6,0-1.1.1-1.7.2-2.4.4-2.7,0-2.1-2.2.2-.8,0-1.2-.8-1.4-3.4-.7-6.3-2.8-9.8-3-.3,0-.6,0-.8-.2-4.1-3.3-8.5-6.3-13.4-8.5,0,0,0,0-.2-.3,2-1,4.2-1.3,6.4-1.1,3.5.2,6.9,1.2,10.1,2.8,3.9,2,8.3,2.8,12.3,4.7,4.2,2,8.8,2.2,13.3,3,1.9.3,3.5,1.1,5.2,1.8.6.3,1.4.8,2,.2.6-.5.1-1.3,0-1.9-.7-2-.9-4.4-2.3-6-1.8-2-2.2-4.5-3.1-6.8-.3-.8-.8-1.5-1.5-2-5.8-4.3-10.9-9.3-15.3-15-3.9-5-8.3-9.3-13.8-12.6-1.7-1-3.3-2.2-5-3.4-.3-.2-.9-.4-.7-1,.2-.5.8-.4,1.2-.4,2.9-.1,5.4,1.2,7.9,2.3,1.4.6,2.6,1,4.1,1,4.2,0,7.6,2,10.7,4.5,4,3.2,6.8,7.4,9,12,.3.6.7,1.2,1,1.7.3.4.6,1,1.2.6.5-.3.7-.9.4-1.5-.5-1-.9-2-1.5-3-1.5-2.6-2.9-5.3-4.8-7.6-3.7-4.2-6.5-9.3-11.7-12.1-2.9-1.5-5.9-2.5-9-3.5-5.7-1.7-11.2-3.8-16.6-6.2-1.7-.8-3.3-1.8-5.1-2.4-1.8-.6-3.6-.4-5.8-.6,1.5-1.1,2.8-1.1,4-.8,3.8,1,7.8,1.1,11.6,2.4,1.8.6,3.6,1,5.3,2,2.3,1.3,4.9,1.9,7.3,2.7,4.9,1.7,9.6,3.9,13.2,7.9.4.4.8.7,1.4,1,0-1.5-.7-2.8-1.7-3.8-2.3-2.7-3.1-5.9-3.9-9.2-.8-3.6-1.6-7.1-1.8-10.8-.4-7.3-2.6-14.5-1.9-21.9.1-1.3.2-2.6.6-3.9.2-.9.6-1.8,1.4-2.4.1.2.3.4.3.5-1.3,4.9-.3,9.8.7,14.6,1.4,6.9,2.3,14,3,21,.7,6.2,2.3,12.1,5.9,17,3.7,5.1,6.3,10.8,9.6,16,.6.9.9,1.5,1.8,0-.9,3.9,2.1,6.3,2.7,9.4.6-1.5.2-3,0-4.5-.6-3.8,0-7.4.7-11,1.2-6.3,3.5-12.1,7-17.4.9-1.3,1.9-2.2,3.4-2.8,1.1-.4,1.4,0,1.2,1-.3,1.7-.2,3.6-1.1,5.2-1.8,3.4-2.9,7.1-4,10.7-1.7,5.7-4.3,11.1-4.7,17.1-.2,3.1-1.3,6.1-.2,9.2,0,.2.2.4.4,1.1.3-3,.5-5.6.8-8.1,1.2-8.7,3.2-17.2,8.1-24.7.8-1.3,1.7-2.4,2.9-3.4.7-.5,1.2-1.7,2.3-.4.3.4.7-.2.9-.5.8-1.1,1.7-2,2.8-2.8.9-.6,1.4-.3,1.5.6,0,.7.1,1.5,0,2.2-.9,5.8-1.2,11.8-3.9,17.2-1.1,2.2-2,4.4-2.4,6.9.5-.7,1-1.4,1.6-2.1,1-1.2,1.6-1.1,2.4.3,1.1,2,1.4,4.2,1.3,6.4-.3,4.7.2,9.5-1.2,14.2-.6,1.9-1.3,3.8-1.7,5.8.9-1.1,1.9-2.2,2.7-3.3,2.8-3.9,6.8-6.1,10.7-8.6.3-.2.7-.4,1-.6,1.2-.6,1.4-1.4.4-2.5-.7-.7-1.2-1.6-1.9-2.4-.3-.3-.7-.7-.5-1.2.3-.6.9-.4,1.3-.4,1,.1,2,.3,3,.6,1.1.3,1.8.2,2.3-.9.3-.6.8-1.2,1.2-1.8.5-.7.9-1.5,1.9-.5.4.5.9-.1,1.4,0-.4.8-.9,1.5-1.3,2.3-.7,1.7-.3,2.9,1,4.1,1.8,1.8,4.2,2.7,6.4,3.7,1.2.5,2.1,2.1,3.4,1.9,1.2-.2,1.4-2,2.4-2.8.4-.3.6-.9,1.2-.6.4.3.3.8.2,1.2-1.5,4,.3,6.6,3.3,9.3,5.8,5.2,10.6,11.3,14.6,18,.2.3.3.6.6.9.5-.6.3-1.1.3-1.6-.2-6.5.4-13,1.1-19.5.3-2.6.3-5.6-.4-8.2-.7-2.5-1.6-4.9-2.5-7.4-1.7-4.8-3.8-9.5-5.1-14.4-2-7.5-4.3-14.9-3.5-22.8,0-.6-.1-1.4.7-1.8.7-.3,1.2.3,1.8.7,1.9,1.6,3.3,3.6,4.7,5.6-.3-1-.7-2-.9-3.1-1-4.7-1.7-9.4-3.6-13.8-.2-.5-.3-1,.1-1.4.5-.4,1-.1,1.4.1,2.1,1.4,4.2,3,5,5.4,1.5,4.9,4.1,9.6,5.1,14.6,1.4,7.1,3.6,14.2,3.1,21.6-.1,1.4-.3,2.7-.4,4.1,0,.3-.2.7.2.9.4.2.6-.2.8-.4,1.3-2.1,2.4-4.4,4.2-6.2.4-.5.3-1.2.2-1.8-.4-2.3-.2-4.8-1.4-7-.1-.2-.2-.5.2-.8,1.3,1.7,2.4,3.6,3.2,5.6.4,1,.8,1.4,1.7.5,2.2-1.9,4.6-3.5,7.2-4.9,1.6-.9,3-1.9,4.4-3,3.6-2.9,7.7-5.1,12.2-6.3.7-.2,1.4-.2,2.1,0,.4.1,1.2,0,1.2.7,0,.5-.6.6-1,.8-3.9,1.1-7.2,3-10.3,5.7-4.3,3.8-9.5,6.6-14.3,9.8-2.5,1.6-2.6,1.9-1.4,4.6.7,1.6.9,3.3.9,5,0,1.4.7,1.7,1.9,1.5.2,0,.3,0,.5,0,.7,0,1.7-.6,1.9.3.1.9-1,.5-1.6.6-1.6.3-3.1,1.6-3.1,3.4,0,2.1-.4,4.2-.8,6.2-.1.6-.4,1.5.3,1.8.7.3,1.1-.6,1.5-1.1,4.1-4.4,8.4-8.8,13.3-12.3,4.6-3.2,9.6-5.5,15.2-6.6.6-.1,1.5-.6,1.8.2.3.7-.7.8-1.2,1.1-6,3.1-11.8,6.5-17.1,10.5-.7.5-1.2,1-1,1.9.7,3.9-1.2,6.9-2.8,10.2-2.7,5.4-7.2,9-12,12.5-1.5,1.1-2.8,2.5-4.3,3.6-1.5,1.1-1.8,3-1.7,4.9,1.5-.8,2.4-2.2,3.4-3.4,4-4.5,9.2-7.3,13.9-10.8,4.2-3.1,8.6-5.9,13.1-8.6,2.9-1.8,6.1-2.8,9.6-3.1-11,8.4-21.4,17.5-33.6,24.2,0,.1.2.3.2.4.9-.4,1.9-.8,2.8-1.2,2.6-1.1,5.1-1.6,7.7,0,.3.2.6.2.9.3,2.7.4,2.6.7,1.7,3.4-.8,2-2.1,3.6-4.2,4.6-.8.4-1.4.8-1.5,1.8-.6,5.6-7,7.4-10.7,6.2-1.1-.4-2.3-.9-3.2.3-1,1.5-3,2.5-2.1,5,1.1,2.9.7,6-.3,9.4,2.9-2.5,5.8-4.1,8.7-6,5.9-3.8,12.2-6.6,19.3-7.2,4.1-.4,8.1-1.5,12.1-2.7,1.8-.5,3.6-1.2,5.6-.9.5,0,1.2.1,1.2.7,0,.7-.7.6-1.2.6-6.3.2-11,3.9-16,7-2.4,1.5-4.8,2.4-7.7,2.6-3.2.2-6.1,1.8-9,3-2.9,1.1-5.7,2.5-8.6,3.6-1,.4-1.9.9-2.8,1.4-1.7,1-2.8,2.3-2.7,4.6,0,3.3-1.1,6.4-2.3,9.5,1.3-1.9,2.6-3.7,4.1-5.5,1.4-1.7,3-3.1,4.9-4.2,2-1.2,2.8-.8,2.7,1.5-.2,6.2-1.3,12.1-5.3,17.1-2.3,3-4.3,6.2-6.6,9.2-2.2,3-4.6,5.8-7,8.6-3.8,4.4-6,9.4-6.5,15.2-.3,4-1.3,7.9-1.6,11.9-.8,9.4-1.3,18.8-2.3,28.1-.8,7.2-1.2,14.4-.7,21.5.2,3.7.3,7.4,1,11,.5,2.5,0,5.2-.2,7.8-.1,1.3.4,2.4.5,3.6.2,3,.6,6,.6,8.9,0,5.8.3,11.7,1.3,17.3.8,4.6-.2,9.1.4,13.6.2,1.7.3,3.4.4,5.2.7-.3.7-.8.9-1.2,2.7-7.2,6.5-13.9,9.7-21,1.8-4.1,4.6-7.7,6.6-11.7,1.7-3.4,2.4-7.1,4.5-10.3,1.6-2.6,3-5.3,4.6-7.9,1.8-2.7,3-5.8,5.5-8,1.3-1.1,1.5-3,2.1-4.6,1.3-3.4,2.6-6.8,3.9-10.3,1.3-3.5,2.1-7.1,3.2-10.6.8-2.4-.1-4.7.2-7.1,0-.6-.5-.7-1.1-.7-2.6.2-5.2-.1-7.8.4-.9.2-1.4-.3-1.4-1.2.6-6,1.7-11.1,8-13,1-.3,1.3-.7,1.2-1.8-.6-5.4-1.2-10.9-1.6-16.3-.4-5.9.5-11.7,2.9-17.2.7-1.5,1-1.5,2.3-.5,5.2,4,5.9,9.9,7,15.6.8,4.2-.3,8.4-.4,12.6,0,3.4.3,6.7-.5,10.1.6.1.6-.3.7-.5,1.5-6.3,5.1-11.7,7.2-17.7.2-.7.5-1.3.5-2.1.1-4,.2-8,.3-11.9,0-2,.2-4.1.3-6.1.2-3.8-1.3-7.4-1.8-11.1-.8-5.3-1.1-10.6.7-15.8.5-1.4.7-2.8,1-4.2.2-1.1.7-1.4,1.7-.6,3.2,2.3,4.7,5.6,5.6,9.3.9,3.6.8,7.3,1.3,10.9,0,.2,0,.4.1.6.6-.1.4-.6.5-.9.2-1.1.2-2.4.7-3.4,1.6-3.8,1.6-7.7,1-11.7-.5-3.8-1.8-7.4-2.9-11.1-.3-1.1-1.1-2.8-.4-3.2,1.1-.7,1.8,1,2.6,1.8,2.5,2.4,3.3,5.6,4.1,8.8.2.8,0,2.1.9,2.3.9.2,1.1-1.2,1.6-1.8.6-.7,1-1.4,1.6-2.1,1.1-1.3,1.9-1.2,2.5.4.9,2,1.1,4.1,1.2,6.2.3,4.2-.4,8.4-1.4,12.5-.2.6-.5,1.2,0,1.9.7-.2.6-.9.9-1.3.3-.5.4-1.3,1.2-1.2.7,0,.9.7,1.2,1.3.7,1.3,1,2.8,1.4,4.4,1.1-.4,1.6-1.3,1.6-2.1.1-2.2,1.6-3.6,2.9-5.1,1.9-2,2.7-4.2,3.3-6.9,1.6-7,1.8-14.2,2.6-21.2.1-.9.2-1.9.6-2.7,1.8-4.3,2.6-8.8,3.9-13.2,1-3.3,2.4-6.4,4-9.5.3-.7.7-1.6,1.6-1.5.9,0,1,1.1,1.3,1.8,1.7,4.5,1.4,9.1.6,13.7-1.4,7.9-3.2,15.6-6.1,23.1-.1.3-.2.6-.3,1.2,2-.8,3.8-1.2,5.4-2.4,2.5-2,5.4-2.3,8.5-1.6,1.2.3,1.5,1,.5,1.7-2.6,1.8-4.4,4.5-7.6,5.6-2.6.9-3,1.5-3,4.2,0,2.4-.8,4.7-1.7,6.9-.8,2-1.3,4-1.8,6.1-.2.8-.2,1.4.9.9,5.8-2.1,11.8-3.7,17.9-4.6,2.7-.4,5.4-.8,8.1,0,.4.1.9.1.9.6,0,.5-.5.5-.8.6-10.2,2.5-19.4,7.6-29.2,10.9-.8.3-1.4.7-1.8,1.4-1.2,1.9-2.4,3.7-3.3,5.8-2,4.2-4.5,8-7.6,11.5-.2.2-.6.4-.3.9,1.3-.8,2.5-1.6,3.8-2.4,3-2,6.2-3.4,9.7-3.9,3.4-.5,6.3-2.4,9.7-3.1,2.3-.5,4.5-.4,6.8-.8,3.9-.7,7.7-1.5,11.7-1.6.5,0,1.1,0,1.6.1,0,.6-.4.5-.7.5-3.2,0-6.2,1.1-9.1,2.6-.6.3-1,.7-1.2,1.3-1.3,4.9-4.9,7.9-9.1,10.4-2.3,1.4-4.8,2.4-7.8,3.6,5,.7,9.5.5,13.9.4,2.6,0,5.3-.3,7.3,1.9.3.3,1,.6.7,1.2-.3.5-.8.1-1.2,0-3.8-.8-7.5-.4-11.3-.2-5.3.3-10.6-.1-15.9-.2-.5,0-1.3-.4-1.5.2-.3.8.7.9,1.1,1.1,3.3,1.6,6.9,2.5,10.1,4.3,5.1,2.9,10,6.1,14.6,9.6,1,.8,1.6,1.8,2.4,2.8.3.3.6.8.1,1.2-.4.3-.7,0-1-.3-1-.7-2.1-1.3-3.3-1.6-1-.3-1.4,0-1.2,1,0,.4.2.8-.1,1.1-.5.3-.8,0-1.2-.3-.4-.3-.8-.5-1.2-.9-4.3-3.8-9.1-2.7-13.9-1.5-1.6.4-3.1,1.1-4.7,1.6-.9.3-1,.8-.4,1.4,1.9,2.1,2.8,4.8,3.9,7.3,1.6,4-.6,8.1-2.6,10.2-1.4,1.5-6.8,1.7-8.9.5-1.6-.9-3.1-2.1-4.7-3.4.5,2.6,1,5.1,1.5,7.7.2.9,1,.8,1.6,1,1.4.5,1.7,1.1.5,2.1-1.9,1.6-2.2,3.5-2.2,5.8,0,2.6-1,5-2.3,7.2-.2.4-.5,1-1.1.8-.6-.1-.6-.7-.7-1.2-.4-1.8-.4-3.7-1-5.5-.4-1.1-.9-1.3-1.9-.8-2.7,1.1-5.5,1.7-8.5,1.6-3.2-.1-6.3,0-9.5.3-1.4.1-2.9,0-4.3-.2-1.7-.4-3.4,0-4.7,1.2-1.4,1.2-2.7,2.3-4.7,2.1-.1,0-.3.1-.4.2,0,0-.1.2-.2.3.7.4,1.4.9,2.1,1.2,5.7,2.1,10.3,6,15.4,8.9,3,1.6,5.3,4,7.3,6.7,2.5,3.3,4.9,6.7,7.3,10.2,1.1,1.7,1.9,3.5,2.2,5.5,0,.4.2.9-.3,1.2-.4.2-.7-.2-1-.5-.8-.8-1.7-1.5-2.3-2.4-2.3-2.9-5.2-4.9-8-7.2-2.5-2-4.5-4.6-6.7-6.9-3.6-3.6-7-7.4-10.7-10.9-2-1.8-4.3-3.3-6.9-3.8-1.7-.3-3.4.6-5.2.9-.1,0-.2,0-.3.1-6.2,1-8.2,6.3-11.1,10.6-2.5,3.8-3.4,8.3-5.5,12.3-2.2,4.3-4.8,8.5-6.7,13-3.4,7.7-8,15-9.8,23.4-.4,1.9-1.1,3.7-2,5.5-.9,1.7-1.1,3.4-1.2,5.3-.1,4.7-.8,9.4-1.2,14-.4,4.7-.1,9.5-.2,14.3,0,5.1.4,10.3.4,15.4,0,3-.8,6-.4,9h-4.7Z"></path>
</symbol>
<!-- Olive Branch -->
<symbol id="olive-branch" viewBox="171.1 195 270.9 401.5"> 
    <path class="cls-1" d="M387,400.3c-1.8,1.9-3.1,4.2-4.2,6.6-.1.3-.2.6,0,.8.4.3.6-.1.8-.3,1.8-2,3.2-4.2,3.3-7.1M276.4,342.6c-2.1,1.7-3.2,3.5-3.8,5.7-.2.9.3,1.7,1,1.9.8.3.8-.7.9-1.2.6-1.9,1.1-3.9,1.8-6.3M309.6,356.7c.6-1,.7-2,.3-3-.8-1.8-1.6-3.7-2.4-5.5-.2-.4-.3-1-.9-.7-.6.3-.4.8-.2,1.3,1.1,1.9,1.7,4.1,2.3,6.2.2.5,0,1.2.8,1.6M229.5,448c.4,0,1,.2,1-.4,0-.5-.5-.5-.9-.5-2,0-4.1-.3-6.1,0-.4,0-1,0-1.2.4-.2.5.2,1,.5,1.3.7.6,1.3.8,2.3.3,1.4-.7,2.7-1.9,4.4-1.3M264.7,328.5c1-1.7,1.9-3,2.6-4.3.2-.4.4-.9,0-1.2-.7-.4-1.3-1.2-2.2-1-.6.1-.6.8-.6,1.3,0,1.6-.2,3.2.2,5.2M378.4,430.1c0-.3-.3-.8-.4-1.4-.3-1.4-.8-1.2-1.6-.3-.9,1.1-1.7,2.2-2.6,3.2-.2.2-.4.4-.3.7.2.3.5.2.7.2,1.1-.3,2.2-.6,3.3-1,.5-.2.9-.4.7-1.4M371.8,430.5c1.7-1.8,3.2-3.3,4.7-4.9.6-.6.3-1.1-.1-1.6-.5-.5-1.1-.8-1.7-.2-1.6,1.8-3,3.7-2.8,6.6M267.8,390.2c.9-1.3,2.1-2.2,3.3-3.1,2-1.4,2-1.4.1-3.1-.3-.3-.6-.5-.9-.8-.5-.4-1-.3-1.1.4-.2,2.2-1,4.3-1.4,6.6M384.3,415.2c.2-.5,0-.8-.5-.9-.8-.1-1.4-.6-2.1-1-1.9-.9-2.3-.8-3,1.3-.2.7-.4,1.3.8,1.2,1.2-.2,2.2.3,2.9,1.2.9,1.1,1.3.4,1.7-.3.2-.4.2-1,.2-1.5M259.6,300.7c0,0,.1,0,.2,0,0-1,0-2,0-3,0-.3,0-.7-.5-.7-.3,0-.4.3-.5.6-.4,1.2-.4,2.4-.2,3.6.2.9.6,2,.2,2.8-1.2,2.8.5,5.3.7,8,0,.3.2.6.6.5.3,0,.3-.4.3-.7,0-.7,0-1.4,0-2.2-.2-2.9-.5-5.9-.7-8.8M399.7,426.9c-2-1-3.7-2.6-6.2-1.5-.6.3-1.3,0-2-.2-.9-.2-1.8-.5-2.7-.8,1.2,1.4,2.6,2.5,3.9,3.7.6.5,1,.3,1.5-.2.4-.5.9-.9,1.6-.6,1.3.5,2.6-.2,3.9-.4M356.4,446.6c.8-.4,1-1.4,2-1.5.7,0,1-.7,1.1-1.3.9-3.2,1.6-6.4,1.9-9.6,0-.3,0-.6-.2-.7-.4-.2-.6.1-.8.4-.2.3-.4.6-.5.9-1.2,4-2.3,8-3.5,11.9M247.2,309c-.2-.8-.7-1-1.2-1.3-2.8-1.7-5.6-3.4-8.5-5-.5-.3-1.1-1.5-1.7-.5-.4.7.2,1.7.9,2.3.3.2.6.3.9.4,2.2.5,3.9,1.5,4.9,3.6.3.6.8.9,1.5.9,1-.1,2-.3,3.1-.4M267.9,370.2c.1,0,.2.1.4.2.6-1.4,2.6-2,2.5-3.8-.2-2.3-1.1-4.5-1.9-6.7-.2-.6-.7-.9-1-.1-.5,1-1,2-.9,3.2.3,2.4.6,4.8,1,7.2M391.1,429c-2.4-2.8-5.2-4.6-8.1-6.5-.6-.4-1.2-.3-1.7.3-.5.7,0,1,.4,1.4,1,1.1,2.1,2,3,3.1,2.3,2.8,2.5,2.9,6.3,1.6M297.8,328.9c1.2-.2,2.1-.5,2,1.2,0,.7.9,1.2,1.5,1.3.8.2.6-.8.7-1.2.5-2.1.8-4.3,1.6-6.3.5-1.3-.4-2-1.3-2.5-.9-.5-1.3.5-1.5,1.1-.9,2.1-1.8,4.3-3,6.4M325.9,253c1.7,7.1,3.3,14.2,3.4,21.6,3.7-7.9.9-14.9-3.4-21.6M289,307.5c-.4,2.6-1,4.9.3,7,1.1,1.7,2.6,3.2,3.6,5,.2.3.3.6.7.6.5,0,.6-.5.6-.9,0-1.4.3-2.8.6-4.1.2-.7,0-1.3-.6-1.8-1.8-1.7-3.3-3.6-5.2-5.7M267.1,407.1c.8-1.2,1.5-2.2,1.7-3.4.4-3,1.5-5.7,3.5-8,1.1-1.3,2-2.8,3-4.2.2-.3.7-1.2-.3-.9-1.7.5-3.8.7-4.8,2.5-1.8,3.4-3.4,6.9-3.5,10.9,0,1-.2,2,.3,3.2M271.9,343.4c.4-.3.5-.4.6-.6,2.5-4.1,5.1-8.3,8-12.1.7-1,.5-1.4-.5-1.8-1-.4-1.9-.9-2.9-1.4-1.5-.7-1.8-.6-1.8,1.1,0,4.1-.8,7.9-2.6,11.6-.4.9-.9,1.8-.9,3.2M265.4,337.2c.2.9.3,1.9.6,2.8.1.4.2.9.8.9.4,0,.6-.5.8-.8,2.2-4.2,3.8-8.6,5.1-13.2.3-1,0-1.6-1-1.9-1.1-.4-1.5.2-1.8,1.1-.8,2-1.6,4-2.6,6-.8,1.6-1.7,3.1-2,5.1M245,299.6c.2.7.7,1,1.1,1.3,1.9,1.5,3.8,3.1,4.8,5.3,1.3,3.2,4.7,4.2,6.5,7.1,0-7.1-3.3-12.7-12.4-13.7M356.7,466.8c1.2-1.1,2.8-1.4,4.1-2.1.9-.4,1.8-1,2.4-1.8,1.9-2.8,3.8-5.5,5.9-8.1.4-.6.4-1-.2-1.4-.5-.3-1-.6-1.5-1-1-.7-1.6-.5-2.3.7-1.7,3.2-3.3,6.5-5.5,9.4-1.1,1.4-1.8,3-2.8,4.4M357.8,452.8c-3.9,5.5-6.6,11.6-10.2,17.5,2.2,0,3.5-1.4,5-2.1,1.9-.9,3.1-2.7,3.8-4.5,1.3-3.5,1.4-7.2,1.5-10.8M332,286c-.8,1.9-2.6,3.1-2.9,5.3-.6,5.5-1,11-1.2,16.5,0,1.2.2,2.4.3,4,.9-1.2.9-2.4,1.7-3.1.9-.8,1.2-1.9,1.1-3.1-.3-3.3.5-6.5,1-9.8.5-3.2,1-6.5-.1-9.8M392.1,406.5c.6-.3.7-.4.9-.5,5.7-5.1,8.8-11.6,11.2-18.7.1-.3.3-.7,0-.9-.2-.1-.6,0-.9.2-2.5,1-4.3,3.1-6.7,4.4-1.1.6-1.5,1.4-1.4,2.6.3,3.1-.4,6.1-1.6,8.9-.5,1.2-.8,2.4-1.3,4M232.6,449.7c-.6,0-1.2.3-1.6.7-1.4,1.4-3,1.6-4.9,1.3-1.3-.2-2.6.2-3.6,1-4.5,4-9.4,7.5-14.6,10.5-1.1.6-2.1,1.3-3.5,2.3,4.8-.8,8.8-2.3,12.6-4.5,4.2-2.4,7.9-5.5,12.5-7.1,2-.7,3.3-1.6,3.2-3.8,0-.1,0-.2,0-.4M253.8,399.8c2.9,4.8,4.3,10.1,6.3,15.2,2.1,5.2,2.3,10.7,2.5,16.2.8-.3.7-.7.7-1,.3-3.3.8-6.5.9-9.8.1-2.3.8-4.8,0-7-1-2.6-2.2-5.2-3.6-7.7-1.6-2.7-4.2-4.3-6.8-6M317.6,353.9c.9-1.2.9-1.2.9-3.6,0-6.3-1.8-12.1-6-17-.3-.4-.5-1-1.1-.9-.6.1-.5.8-.6,1.3-.9,2.5-1,5.3-2,7.8-.2.6,0,1.2.4,1.7,1.2,1.5,2.4,2.9,3.6,4.4.6.8,1.2,1.1,2,.3.9-.9,1.5-.6,1.9.6.5,1.6.7,3.3.9,5.4M250.6,449.2c-.5,0-1,.2-1.2.7-.3.7.5.8.9,1,2.9,1.9,5.7,3.8,8,6.3,1.6,1.7,3.5,2.1,5.6,1.9.8,0,1.6-.2,2.5.1,1,.4,1.4-.5,2-.9.6-.5.1-1-.2-1.4-.3-.6-.3-1.2-.3-1.8,0-1-.4-1.7-1.4-2-1.8-.5-3.6-1.2-5.4-1.7-1.8-.5-3.4-1.2-5.2-1.7-1.6-.4-3.4.9-4.8-.5,0,0-.1,0-.2,0M260.5,340c.7-2.8,1.1-5.2.3-7.3-1-2.2-2.7-4.4-5-5.5-4.2-2.1-8.7-3.4-13.2-4.8-.3,0-.7-.2-.8.2-.1.4,1.3,3.9,1.8,4.1,1.6.8,2.9,2.1,4.4,3.1.8.5,1.5,2,2.8.5.1-.2.8,0,1.3.2,2.3.7,3.8,2.4,5.2,4.2,1.2,1.5,1.9,3.2,3.2,5.2M291.5,290.8c-.2,3.1-1,6.3-1.6,9.6-.1.7-.5,1.4.2,1.9,1.7,1.3,3.1,3,4.7,4.5.7.6,1.1.4,1.2-.4.5-3,1.9-5.6,3-8.3.3-.7.4-1.3,0-1.9-1.8-2.7-3.3-5.7-6.5-7.2-.3-.1-.5-.5-.9-.3-.4.2-.2.6-.2.9,0,.3,0,.7,0,1.3M260.7,329.1c0-3.4-.5-6.7-2.4-9.5-1.7-2.5-4.1-4.6-6.1-6.9-.9-1-2-1.3-3.3-1.3-2.8.1-4.7,1.9-6.6,3.6-1,.9-1.7,2-1.3,3.2.4,1.2,1.8,1.4,3,1.5,1.7.2,3.3-.4,4.9-.8,2.2-.5,4,0,5.6,1.5,1.6,1.4,3,3,4.2,4.7.8,1.2.9,2.7,1.9,3.9M413.2,362c-2.6,1.2-6.6,4.8-7.6,7.1-1.1,2.5-1.9,5.1-4.6,6.5-.2.1-.3.5-.5.7-2,3.3-3.9,6.6-4.1,10.6,0,.4-.6.9,0,1.2.4.2.8-.2,1.2-.5,3-2.5,5.5-5.5,8.7-7.8.3-.2.4-.6.6-1,1.8-3.7,3.3-7.4,4.2-11.4.3-1.2.8-2.3,1.4-3.4.3-.6.8-1.2.8-2M413.7,428c1.2.1,2.3-.4,3.5-.6.4,0,1,0,1-.6,0-.5-.5-.6-.8-.8-3.7-2.3-7.7-3.5-11.8-4.5-2.5-.6-5-1-7.4-2.2-2.4-1.2-4.6-2.8-7.3-3.3-.7-.1-1.5-.4-1.9.4-.6,1-1.4,1.7-2.7,1.7-.4,0-.8.2-.9.6,0,.6.5.6.9.8,2.2.8,4.3,1.5,6.6,1.9,1.6.3,3,.9,4.2,2,.9.9,1.9,1.6,3.1,1.8.6.1,1.4.4,1.4,1,0,1.9,1.1,1.3,2.1,1.1.9-.2,1.8-.2,2.7,0,2.4.3,4.9.6,7.3.8M423.5,397c0-.2-.1-.4-.2-.6-5.6,1.3-11.4,1.9-16.9,3.8-5.7,2-9.3,6.6-13.4,10.7.3.3.7.2.9,0,1.7-1,3.5-.8,5.4-.8,4.1,0,7.9-1.1,11.2-3.3,2.6-1.7,5.1-3.8,7.8-5.5,1.9-1.2,3.4-3,5.1-4.5M232.9,341.4c-.9,0-1.8-.2-2.8-.7-4.4-2.2-6.5-7-5.2-12,.2-.7.7-1.5,0-2-2.4-1.6-4.4-3.7-7-5.2-1-.6-1.3-.1-1.1.9.3,2.3.6,4.5,2.1,6.4.6.8,1,1.7,1.3,2.7.5,2,1.6,3.7,2.5,5.4.5.9,1.2,1.5,2.2,1.5,1.1,0,1.9.8,2.1,1.7.4,1.4,1.4,2.2,2.3,3,2.9,2.4,5.7,4.7,8.7,7,1.3,1,2.4,2.1,3.9,2.8.4.2.9.7,1.3.2.4-.4.2-.9,0-1.4-1.8-3.5-3-7.3-3.9-11.2-.3-1.3-.8-1.3-1.7-.6-1.4,1-3,1.4-4.9,1.5M276.9,320.7c-1.5,2.5.6,3.1,2.1,4.1,1.1.7,2.2,1.4,3.3,2,.6.3,1.2.8,1.8.2.7-.6,1.5-1.1,1.2-2.2-.2-.9-.1-1.9,0-2.8.7-3.3-.9-5.7-3.3-7.7-3.8-3.3-8-6-12.1-8.9-1.3-.9-1.6-.8-1.8.9-.3,3.1-.9,6.1-2,9.1-1.1,2.9-1,2.5,1.6,3.3.6.2,1.2.3,1.7.6.9.4,1.5.1,2-.5.7-.7,1.4-1.4,2.2-2.1.3-.2.7-.6,1-.1.3.3,0,.6-.2.9-.5.7-1,1.5-1.5,2.2-.5.7-.3,1.3.4,1.7.6.4,1.2.9,1.9.2.3-.3.6-.8,1.4-.8M287.5,284.6c0-.6.2-1.5-.6-1.7-.8-.2-1.1.6-1.3,1.3-.2.9-.7,1.6-1.3,2.3-1.7,2-3.4,4-5.1,6-2.1,2.4-4.3,4.8-6.4,7.3-.5.6-1.3,1.3-.4,2.3,3.8,4.2,8.2,7.7,12.1,11.8.3.3.7.6.9,0,.6-1.4,2-2.6,1.2-4.5-.4-.9-.5-2-.3-3,.4-2.1-.9-3-2.4-4-.5-.3-1.6-.2-1.4-1.1.2-.7,1.1-.5,1.8-.6.2,0,.4,0,.7,0,1.4.1,1.8-.4,1.6-1.8-.6-3.4-.5-6.9.2-10.3.3-1.3.9-2.5.8-3.9M235.6,466c.1,1.6,0,3.6.2,5.6.2,1.4.7,1.5,2,1,5.6-2.2,10.5-5.9,16.6-7,2.3-.4,3.2-2.7,5.2-3.5.5-.2,1.2-.6,1-1.3-.3-.7-1-.8-1.7-.8-6.2,0-12.1-1.5-17.5-4.8-1.1-.7-2-1.1-3.2-.2-1.4,1-3.2,1.7-2.8,3.9.4,2.2.3,4.4.3,7M319,338.4c.8-2,1.4-4,2.4-5.8,1.8-2.9,1.5-5.8.5-8.7-.9-2.6-2.1-5.1-3.9-7.1-4.1-4.8-8.7-9.2-12.7-14.1-.7-.9-1.2-.9-1.8.2-1.1,2.2-1.4,4.7-2.2,7-.4,1.2-.2,1.9.9,2.6,4.4,2.5,7.5,6.4,9.6,10.8,2.4,5,5.7,9.6,7.1,15.1M379,433.2c-2.6.5-5.2,1.4-7.6,2.6-.7.3-1.1,1.1-1.3,1.9-.7,2.7-1.4,5.5-2.2,8.2-.3,1,0,1.6.9,1.9.8.3,1.6.8,2.5.9,1.9.3,2.9,1.4,3.8,2.9,1,1.7,2.2,3.2,3.3,4.8.4.6.8,1,1.6.8,2.2-.6,4.4-1.1,6.7-1.6,1-.2,1.3-.7.9-1.7-.7-1.7-1.3-3.4-1.8-5.2-1.2-5-2.2-10-5.4-14.3-.4-.6-.6-1.4-1.6-1.3M278.9,363.6c3.9-1.5,7.8-3,12.1-2,3.5.8,6,3.8,6,7.3,0,3.4-2.6,6.6-6.1,7.2-5.7,1-10.6-.6-14.2-5.3-.3-.4-.6-.8-1.2-.6-.7.3-.4.8-.2,1.3.7,1.8,1,3.7,1.5,5.5.6,2.4,1.3,4.8,2.6,7,.5.8,1,1.3,1.8.3,2.6-3.3,6.3-5,9.9-6.6,4.3-2,8.3-4.3,11.9-7.4.6-.5,1.2-.9,1-1.8-.6-4.4-1.9-8.7-4-12.5-1.9-3.4-4.4-6.4-6.5-9.7-.5-.8-.9-.6-1.4,0-.2.4-.5.8-.7,1.1-2.5,3.9-5,7.8-8.1,11.3-1.4,1.6-3.3,2.8-4.4,4.7M266.2,449.7c-1.9-4.2-2.8-8.4-4-12.5-.7-2.6-1.5-5.1-1.9-7.8-.4-2.6-1.2-5.1-2.3-7.5-2.4-5.3-5.6-10.1-8.6-15.1-.7-1.2-1.2-2.7-2.7-3.9.5,2.1,1,3.8,1.4,5.5,1.3,6.3,1.3,12.6,1.4,19,0,3.6.2,7.1,1,10.6.8,3.2,2.5,5.9,5.1,7.8,3,2.2,6.5,3.4,10.7,3.9M279.4,420.9c.7-.2,1.7.5,2.6,0,1.4-1,3.1-1.3,4.7-1.7,1.5-.4,1.7-1,1.2-2.3-2.7-6.9-5.3-13.7-8-20.6-.4-.9-.9-1.2-1.6-.5-1.4,1.2-2.8,2.3-4.1,3.7-4,4.1-5.8,9.4-7.4,14.7-1.3,4.4-.8,9-1.3,13.4-.2,1.9-.2,3.8-.3,5.7,0,.4,0,1,.5,1.1.6,0,.7-.5.8-.9.3-1.7.8-3.4,1.6-4.9,3.1-5.9,5.7-8.2,11.4-7.6M304.9,476.8c.5-1.1,0-1.8,0-2.5.1-7-1.9-13.5-4.4-19.9-1.8-4.5-3.7-9-5-13.6-1.5-5.4-3.3-10.6-4.9-16-.4-1.4-1.1-1.7-2.4-1-1.6.8-3.4,1.4-5.1,2-3.9,1.5-7.9,2.7-11.5,4.9-.6.4-1.2.7-1.4,1.4-.4,2.1-1.4,4.3-.9,6.4.7,3,.5,6,.5,9,0,2.6,1.2,4.4,3.3,5.8,1.6,1.1,3.5,2,5,3.3,4.6,4.3,10.1,7.5,15.1,11.3,3.9,2.9,8.7,4.6,11.8,9M308.9,387.3c0-2,0-3.9-.8-5.9-1.2-2.6-2.9-5-3.4-8,0-.3-.1-.6-.5-.5-.2,0-.4.4-.6.6-2.1,2.7-4.5,5.1-7.7,6.5-1.7.7-3,1.8-4.3,3.1-.3.3-.8.5-.6,1.1.2.4.7.3,1.1.3,2.4,0,4.8.5,7.1-.5.4-.2.9-.2,1.3-.1.5,0,1.1.3,1.1.9,0,.7-.6.8-1.1.7-2.4,0-4.6.9-6.9,1-1.9,0-3.4,1.4-5.1,1.7-2,.3-3.8,1.1-5.2,2.6-.9,1-1.2,1.8-.7,3.1,2.5,7.8,6,15.3,8.6,23,.5,1.6,1.4,2.3,3,2,1.9-.3,3.8-.2,5.5-1.4.4-.3,1.1-.5,1.3.1.2.6-.5.6-.9.7-1.8.7-3.7,1.4-5.5,2-1.7.7-1.9,1.1-1.3,2.9,1.1,3.3,2.2,6.5,3.3,9.8,2.4,7.3,4.8,14.6,7.9,21.7.1.3.2.9.7.7.4,0,.3-.6.3-.9,0-2.2.3-4.3.4-6.5.2-6.8,1.2-13.5,1.9-20.3.8-7.6,1.4-15.1.5-22.6,0-.5,0-1,0-1.5.2-5.5.4-11,.7-16.5M307.6,596.5c.4-3.6.9-7.3.7-11-.2-2.6,0-5.2,0-7.9,0-3-.2-6-.9-9-.2-.7-.2-1.6,0-2.3,1-4.3.8-8.7,1.1-13,.2-3.6,1.4-7,1.1-10.6-.5-6.7-.3-13.5-.8-20.2-.3-3.5-.2-7.1-.6-10.7-.6-6.1-.2-12.4-2.3-18.4-.6-1.8-.2-3.7-.4-5.5-.9-7.1-4.4-12.2-10.8-15.7-5.8-3.2-11-7.4-16.5-11-.6-.4-1.2-.6-1.9-.5-3.6.6-7.4.7-10.5,2.9-2.2,1.5-4.1,3.4-6.1,5.1-.5.4-.5,1.1-.5,1.7,0,1.2,0,2.4-.3,3.7-.2.9-.2,1.9-1.4,2.2-1.2.3-2.5.2-3.2-.9-1-1.7-2.1-1.3-3.4-.5-2.6,1.6-5.8,2.1-8.5,3.4-1.5.7-3,1.4-4.5,2.3-.5.3-.8.6-1,1.1-2.1,4.7-3.6,9.6-3.7,14.8,0,.6.2,1.5-.5,1.6-.8.2-1.2-.8-1.4-1.4-.7-1.5-.6-3.1-.3-4.6.5-2.1.5-4.3.5-6.5,0-1.3-.5-1.6-1.8-1.3-4.4,1.2-8.9,2.3-13.3,3.4-.6.1-1.2.6-1.7,0-.4-.6.1-1.2.4-1.7,1.5-2.3,3.4-4.3,5.9-5.6,2.7-1.3,5.4-2.6,8.2-3.8,1-.5,1.4-1.2,1.2-2.2-.9-4.5-.5-8.9.7-13.2.3-1,.1-1.4-1.1-1-5,2.1-10,4.2-14.1,7.8-2.9,2.5-6.2,3.6-10,3.5-3.3,0-6.6.2-9.9.3-.4,0-.9.2-1.2-.2-.4-.5,0-1,.3-1.4.5-.7,1.1-1.4,1.9-2.4-2.9.8-5.3,1.8-7.8,2.3-3.5.7-7.1,1-10.6,0-.8-.3-1.9-.4-2.1-1.4-.2-1,.9-1.3,1.5-1.8,6.1-5.7,13.7-8.6,21.3-11.6,5.6-2.2,11.4-3.6,17.3-4.3.9-.1,1.9-.2,2.1-1.5.2-1.7-.1-2.2-1.9-2.1-10.3.3-19.9-1.9-29.1-6.5-3.1-1.5-6.4-2.3-9.7-3.2-1.8-.5-3.6-1.3-5.2-2.3-.4-.2-.9-.4-.8-1,0-.6.7-.7,1.2-.7,2-.1,4-.5,6-.4,1.5,0,3,0,4.3-.7,4.4-2.3,8.8-1.4,13.2-.1,6.1,1.8,11.8,4.4,17.6,6.9.8.3,1.6.6,2.6.6,1,0,1.9.4,2.6,1.1,3,2.9,6.9,3.8,10.9,4.2,1.4.2,3-.6,4.6-.5,1.4,0,2.8.1,4.1.6,1.9.7,3.8.5,5.8.3,1.5-.2,3-.1,4.5-.2,1.7,0,2.4-.9,1.5-2.3-4.7-7.9-6.2-16.8-8.3-25.5-1-4.3-.4-8.8.1-13.2,0-.4,0-.8.2-1.2,1.1-3.8.3-6.8-3-9.4-2.2-1.8-3.6-4.4-5.1-6.8-.8-1.3-1.6-1.9-3.1-1.5-.6.2-1.5.4-1.7-.5-.2-.9.4-1.5,1.1-1.9,1.7-.9,1.8-.9.6-2.5-.2-.3-.6-.5-.6-1.2,1.8.2,3.4.8,4.9,1.6,1.6,1,3.2,2.1,4.4,3.6,1,1.2,2.1,2.1,3.6,2.5.9.3,1.8.8,2.7,1.3,2.6,1.5,4.7,3.6,7.7,4.6,1.9.6,3.2,2.3,4.4,4,.9,1.3,1.8,2.7,2.8,4,1.3,1.7,2.2,3.5,2.3,5.7,0,.6,0,1.1.6,1.5.6-.1.4-.6.5-.9.3-3.3.7-6.7-.6-9.9-.3-.6-.2-1.4-.1-2.2.3-3.4-.7-6.4-2.5-9.2-.3-.5-.6-1.1-.5-1.7,0-1.6-.6-2.9-1.2-4.3-.3-.7-.8-1-1.5-1.1-5.5-1-11.1-1.9-16.6-3.1-4.6-.9-9.3-2.1-13.9-3.2-.8-.2-1.5-.4-2.2-.8-4.4-2.3-9.1-2.7-13.9-2.4-.2,0-.3,0-.5,0-.5,0-1.3.2-1.4-.5,0-.6.7-.6,1.1-.8,3.6-1.3,7.2-1,10.8.2,1.1.4,2.4.6,3.6.6,3,.1,5.9,0,8.9.5.9.1,1.1-.2.8-1-.5-1.7-1.5-2.8-3.3-3.2-.5-.1-1.2-.2-1.3-.9-.1-.8.5-1.1,1.1-1.3,1.8-.8,3.1-1.9,4-3.8.6-1.3.3-2.3-1.2-2.5-.8-.1-1.7,0-2.5,0-9.2,2-18.5,3-27.8,3.9-.6,0-1.2.2-1.8.4-2.2.5-4.4.9-6.6.4-3.2-.6-6.3-1.1-9.1,1.4.3-1.4,1.4-2.1,2.5-2.8,2.8-1.7,5.9-2,9-2.4,6.4-.9,12.8-1.8,19.2-2.5,3.8-.4,7.6-.2,11.4,0,.7,0,1.4,0,2.2,0,2.4,0,2.4,0,2-2.4-.3-1.8,0-2.1,1.8-2.1.4,0,.9.1,1.3-.1.2-.4-.1-.5-.3-.7-2.3-1.8-4.6-3.6-6.9-5.3-1.2-.9-2.3-2-3.9-2.1-.7,0-1.3-.7-1.7-1.3-1.4-2.2-3.6-3.3-5.9-4.2-6.1-2.5-12.3-4.6-18.7-6.3-5.8-1.5-11.4-3.8-15.8-8.4-.8-.8-1.9-.8-2.9-1.2-3.3-1.2-6.4-3-9-5.3v-.7c.7-.6,1.5-1,2.4-1,4.3,0,8.7-.4,13,.9,5.1,1.6,10.2,3.3,15.1,5.6.4.2.7.5,1.4.2-1.4-1.8-2.6-3.7-4.1-5.3-4.9-5.1-7.5-11.6-11.1-17.5-1.2-2-1.7-4.4-1.6-6.8,0-.6-.2-1.4.5-1.7.7-.3,1.1.4,1.5.8,3.1,2.7,5.6,5.9,7.6,9.5.6,1,1.2,2,2.2,2.8.5-.7.5-1.5.5-2.1,0-1.4.8-1.7,2-1.2,3.8,1.7,6.5,4.6,9.1,7.7,2.6,3.2,4.5,6.9,6.2,10.7.6,1.2,1.2,1.7,2.7,1.4,3.7-.8,7.3.3,10.9,1.1.3,0,.5.2.8.2.6.1,1.3,0,1.4-.6.2-.7-.6-.6-1-.7-3.6-1.1-5.8-3.7-5.9-6.9,0-3.3,2.1-6.2,5.6-7.3.6-.2,1.3-.3,1.9-.5,1.7-.4,2.3-1.6,1.7-3.1-.2-.5-.6-.7-1.1-.6-.6,0-1.1.1-1.7.2-2.4.4-2.7,0-2.1-2.2.2-.8,0-1.2-.8-1.4-3.4-.7-6.3-2.8-9.9-3-.3,0-.6,0-.8-.3-4.1-3.4-8.5-6.3-13.4-8.6,0,0,0,0-.2-.3,2-1,4.2-1.3,6.4-1.1,3.5.2,6.9,1.2,10.1,2.8,3.9,2,8.3,2.9,12.3,4.7,4.3,2,8.8,2.3,13.3,3,1.9.3,3.5,1.1,5.2,1.8.6.3,1.4.8,2,.2.6-.5.1-1.3,0-1.9-.7-2-.9-4.4-2.3-6-1.8-2-2.2-4.5-3.1-6.9-.3-.8-.8-1.5-1.5-2-5.8-4.3-10.9-9.4-15.3-15.1-3.9-5.1-8.3-9.4-13.8-12.7-1.7-1-3.3-2.3-5-3.4-.3-.2-.9-.4-.7-1,.2-.5.8-.4,1.2-.4,2.9-.1,5.4,1.2,7.9,2.3,1.4.6,2.6,1,4.1,1,4.2,0,7.6,2,10.7,4.6,4,3.2,6.8,7.5,9,12.1.3.6.7,1.2,1,1.7.3.4.6,1,1.2.6.5-.3.7-.9.4-1.5-.5-1-.9-2-1.5-3-1.5-2.6-2.9-5.4-4.8-7.6-3.7-4.2-6.5-9.4-11.7-12.2-2.9-1.5-5.9-2.6-9-3.5-5.7-1.8-11.2-3.8-16.6-6.3-1.7-.8-3.3-1.8-5.1-2.4-1.8-.6-3.6-.4-5.8-.6,1.5-1.1,2.8-1.1,4-.8,3.8,1,7.8,1.1,11.6,2.4,1.8.6,3.6,1,5.3,2,2.3,1.3,4.9,1.9,7.3,2.8,4.9,1.7,9.6,3.9,13.2,7.9.4.4.8.7,1.4,1,0-1.5-.7-2.8-1.7-3.9-2.3-2.7-3.1-6-3.9-9.3-.8-3.6-1.6-7.2-1.8-10.9-.4-7.4-2.6-14.6-1.9-22.1.1-1.3.2-2.7.6-4,.2-.9.6-1.8,1.4-2.4.1.2.3.4.3.5-1.3,5-.3,9.9.7,14.7,1.4,7,2.3,14.1,3,21.2.7,6.2,2.3,12.2,5.9,17.2,3.7,5.1,6.3,10.9,9.6,16.1.6.9.9,1.5,1.8,0-.9,3.9,2.1,6.3,2.8,9.5.6-1.5.2-3.1,0-4.5-.6-3.8,0-7.5.7-11.1,1.2-6.3,3.5-12.2,7-17.6.9-1.3,1.9-2.3,3.4-2.8,1.1-.4,1.4,0,1.2,1-.3,1.8-.2,3.6-1.1,5.2-1.8,3.4-2.9,7.1-4,10.8-1.7,5.7-4.3,11.2-4.7,17.2-.2,3.1-1.3,6.2-.2,9.3,0,.2.2.4.4,1.1.3-3,.5-5.6.8-8.2,1.2-8.8,3.2-17.3,8.1-24.9.8-1.3,1.7-2.5,2.9-3.4.7-.5,1.2-1.7,2.3-.4.3.4.7-.2.9-.5.8-1.1,1.7-2,2.8-2.8.9-.6,1.4-.3,1.5.6,0,.7.1,1.5,0,2.2-.9,5.9-1.2,11.9-3.9,17.4-1.1,2.2-2,4.5-2.4,7,.5-.7,1.1-1.4,1.6-2.1,1-1.2,1.6-1.1,2.4.3,1.1,2,1.4,4.3,1.3,6.5-.3,4.8.2,9.6-1.2,14.3-.6,1.9-1.3,3.8-1.7,5.8.9-1.1,1.9-2.2,2.7-3.4,2.8-3.9,6.8-6.2,10.7-8.7.3-.2.7-.4,1-.6,1.3-.7,1.4-1.4.4-2.5-.7-.7-1.2-1.6-1.9-2.4-.3-.3-.7-.7-.5-1.2.3-.6.9-.4,1.3-.4,1,.1,2,.3,3,.6,1.1.3,1.8.2,2.3-.9.3-.6.8-1.2,1.2-1.8.5-.7.9-1.5,1.9-.5.4.5.9-.1,1.4,0-.4.8-.9,1.5-1.3,2.3-.7,1.7-.3,2.9,1,4.2,1.8,1.8,4.2,2.7,6.5,3.7,1.2.5,2.1,2.1,3.4,1.9,1.2-.2,1.4-2,2.4-2.8.4-.3.6-1,1.2-.6.4.3.3.8.2,1.2-1.5,4.1.3,6.6,3.3,9.3,5.8,5.2,10.6,11.4,14.6,18.2.2.3.3.6.6.9.5-.6.3-1.1.3-1.7-.2-6.6.4-13.1,1.1-19.7.3-2.6.3-5.6-.4-8.3-.7-2.5-1.6-5-2.5-7.4-1.7-4.8-3.8-9.6-5.1-14.5-2-7.5-4.3-15.1-3.5-23,0-.6-.1-1.4.7-1.8.7-.3,1.2.3,1.8.7,1.9,1.6,3.3,3.6,4.7,5.7-.3-1-.7-2.1-.9-3.1-1-4.7-1.8-9.4-3.6-13.9-.2-.5-.3-1,.1-1.4.5-.4,1-.1,1.4.1,2.1,1.4,4.2,3,5,5.5,1.5,5,4.1,9.6,5.1,14.7,1.4,7.2,3.6,14.3,3.1,21.8-.1,1.4-.3,2.8-.4,4.2,0,.3-.2.7.2.9.4.2.6-.2.8-.4,1.3-2.1,2.4-4.4,4.2-6.2.4-.5.3-1.2.2-1.8-.4-2.4-.2-4.8-1.4-7-.1-.2-.2-.5.2-.9,1.3,1.7,2.4,3.6,3.2,5.6.4,1,.8,1.4,1.7.5,2.2-2,4.6-3.5,7.2-4.9,1.6-.9,3-2,4.4-3.1,3.7-2.9,7.7-5.1,12.2-6.4.7-.2,1.4-.2,2.1,0,.4.1,1.2,0,1.2.7,0,.5-.6.6-1,.8-3.9,1.1-7.2,3-10.3,5.7-4.4,3.8-9.5,6.7-14.3,9.9-2.5,1.6-2.6,2-1.4,4.6.7,1.6.9,3.4.9,5.1,0,1.4.7,1.8,1.9,1.5.2,0,.3,0,.5,0,.7,0,1.7-.6,1.9.3.1.9-1,.5-1.6.6-1.6.3-3.1,1.6-3.1,3.5,0,2.2-.4,4.2-.8,6.3-.1.6-.4,1.5.3,1.8.7.3,1.1-.6,1.5-1.1,4.1-4.5,8.4-8.9,13.3-12.4,4.6-3.2,9.7-5.6,15.2-6.7.6-.1,1.5-.6,1.8.2.3.7-.7.8-1.2,1.1-6,3.2-11.8,6.5-17.2,10.6-.7.5-1.2,1.1-1,1.9.7,3.9-1.2,7-2.8,10.2-2.7,5.4-7.2,9.1-12,12.6-1.5,1.1-2.8,2.5-4.3,3.7-1.5,1.1-1.8,3-1.7,4.9,1.5-.8,2.4-2.3,3.5-3.5,4-4.5,9.2-7.4,13.9-10.9,4.2-3.1,8.6-6,13.1-8.7,2.9-1.8,6.1-2.8,9.6-3.2-11,8.5-21.5,17.6-33.7,24.4,0,.1.2.3.2.4.9-.4,1.9-.8,2.8-1.2,2.6-1.1,5.1-1.6,7.7,0,.3.2.6.3.9.3,2.7.4,2.7.7,1.7,3.4-.8,2-2.1,3.6-4.2,4.6-.8.4-1.4.8-1.5,1.8-.6,5.7-7,7.5-10.7,6.2-1.1-.4-2.3-.9-3.2.3-1,1.5-3,2.5-2.1,5,1.1,3,.7,6-.3,9.5,2.9-2.5,5.9-4.2,8.7-6,5.9-3.9,12.2-6.7,19.3-7.3,4.1-.4,8.1-1.5,12.1-2.7,1.8-.5,3.6-1.2,5.6-.9.5,0,1.2.1,1.2.7,0,.7-.7.6-1.2.6-6.3.2-11,4-16,7.1-2.4,1.5-4.8,2.4-7.7,2.6-3.2.2-6.1,1.8-9,3-2.9,1.1-5.7,2.6-8.6,3.6-1,.4-1.9.9-2.8,1.4-1.7,1-2.8,2.3-2.7,4.6,0,3.3-1.1,6.5-2.3,9.5,1.3-1.9,2.6-3.8,4.1-5.6,1.4-1.7,3-3.1,4.9-4.2,2-1.2,2.8-.8,2.7,1.5-.2,6.2-1.3,12.2-5.3,17.3-2.3,3-4.3,6.2-6.6,9.3-2.2,3-4.6,5.9-7,8.7-3.8,4.4-6,9.5-6.5,15.3-.3,4-1.3,8-1.6,12-.8,9.4-1.3,18.9-2.3,28.3-.8,7.2-1.2,14.5-.7,21.7.2,3.7.3,7.4,1,11.1.5,2.5,0,5.2-.2,7.8-.1,1.3.4,2.4.5,3.6.2,3,.6,6,.6,9,0,5.9.3,11.8,1.3,17.5.8,4.7-.2,9.2.4,13.7.2,1.7.3,3.4.4,5.2.7-.3.7-.8.9-1.2,2.7-7.3,6.5-14.1,9.7-21.1,1.8-4.1,4.6-7.8,6.6-11.8,1.7-3.4,2.4-7.2,4.5-10.4,1.6-2.6,3-5.4,4.6-7.9,1.8-2.7,3-5.8,5.5-8.1,1.3-1.1,1.5-3.1,2.1-4.7,1.3-3.4,2.6-6.9,3.9-10.3,1.3-3.5,2.1-7.2,3.2-10.7.8-2.4-.1-4.8.2-7.1,0-.6-.5-.8-1.1-.7-2.6.2-5.2-.1-7.8.4-.9.2-1.4-.3-1.4-1.2.6-6.1,1.7-11.2,8.1-13.1,1-.3,1.3-.8,1.2-1.8-.6-5.5-1.2-11-1.6-16.5-.4-6,.5-11.8,2.9-17.3.7-1.5,1-1.5,2.3-.5,5.2,4,5.9,9.9,7,15.8.8,4.3-.3,8.4-.4,12.7,0,3.4.3,6.8-.5,10.2.6.1.6-.3.7-.6,1.5-6.3,5.1-11.8,7.2-17.8.2-.7.5-1.3.5-2.1.1-4,.2-8,.3-12,0-2.1.2-4.1.3-6.2.2-3.9-1.3-7.5-1.8-11.2-.8-5.4-1.1-10.6.7-15.9.5-1.4.7-2.8,1-4.2.2-1.1.7-1.4,1.7-.6,3.2,2.4,4.7,5.7,5.6,9.4.9,3.6.8,7.3,1.3,11,0,.2,0,.4.1.7.6-.1.4-.6.5-.9.2-1.1.2-2.4.7-3.4,1.6-3.8,1.6-7.8,1-11.8-.5-3.8-1.8-7.5-2.9-11.2-.3-1.1-1.1-2.8-.4-3.2,1.1-.7,1.8,1,2.6,1.8,2.5,2.4,3.3,5.6,4.1,8.8.2.8,0,2.2.9,2.3.9.2,1.1-1.2,1.6-1.9.6-.7,1-1.4,1.6-2.1,1.1-1.3,1.9-1.2,2.5.4.9,2,1.1,4.1,1.2,6.2.3,4.3-.4,8.5-1.4,12.6-.2.6-.5,1.3,0,1.9.7-.2.6-.9.9-1.3.3-.5.4-1.3,1.2-1.2.7,0,.9.7,1.2,1.3.7,1.3,1,2.8,1.4,4.4,1.1-.4,1.6-1.4,1.6-2.2.1-2.2,1.6-3.7,2.9-5.1,1.9-2,2.8-4.3,3.3-6.9,1.6-7.1,1.8-14.3,2.6-21.4.1-.9.2-1.9.6-2.8,1.8-4.3,2.6-8.9,3.9-13.3,1-3.3,2.4-6.5,4-9.6.3-.7.7-1.6,1.6-1.5.9,0,1,1.1,1.3,1.8,1.7,4.5,1.4,9.1.6,13.8-1.4,7.9-3.2,15.7-6.1,23.3-.1.3-.2.6-.3,1.2,2-.8,3.8-1.2,5.4-2.4,2.5-2,5.5-2.4,8.6-1.6,1.2.3,1.5,1,.5,1.7-2.6,1.8-4.4,4.5-7.6,5.6-2.6.9-3,1.6-3,4.3,0,2.5-.8,4.7-1.7,7-.8,2-1.3,4-1.8,6.1-.2.8-.2,1.4.9,1,5.8-2.1,11.8-3.7,17.9-4.7,2.7-.4,5.4-.8,8.1,0,.4.1.9.1.9.6,0,.5-.5.6-.8.6-10.2,2.5-19.4,7.6-29.2,11-.8.3-1.4.7-1.8,1.4-1.2,1.9-2.4,3.8-3.3,5.8-2,4.2-4.5,8.1-7.6,11.6-.2.2-.6.4-.3.9,1.3-.8,2.5-1.6,3.8-2.4,3-2,6.2-3.4,9.7-3.9,3.4-.5,6.4-2.4,9.7-3.1,2.3-.5,4.5-.4,6.8-.8,3.9-.7,7.7-1.5,11.7-1.6.5,0,1.1,0,1.6.1,0,.7-.4.5-.7.5-3.2.1-6.2,1.2-9.1,2.6-.6.3-1,.7-1.2,1.3-1.3,5-4.9,7.9-9.1,10.4-2.3,1.4-4.8,2.4-7.8,3.6,5,.7,9.5.5,14,.4,2.6,0,5.3-.3,7.3,1.9.3.3,1,.6.7,1.2-.3.5-.8.1-1.2,0-3.8-.8-7.5-.4-11.3-.2-5.3.3-10.6-.1-15.9-.2-.5,0-1.3-.4-1.5.2-.3.8.7.9,1.1,1.1,3.3,1.6,6.9,2.5,10.1,4.4,5.1,2.9,10,6.1,14.6,9.7,1,.8,1.6,1.8,2.4,2.8.3.3.6.8.1,1.2-.4.3-.7,0-1-.3-1-.8-2.1-1.3-3.3-1.6-1-.3-1.4,0-1.2,1,0,.4.2.8-.1,1.1-.5.3-.8,0-1.2-.3-.4-.3-.8-.6-1.2-.9-4.3-3.9-9.1-2.8-13.9-1.5-1.6.4-3.2,1.1-4.7,1.6-.9.3-1,.8-.4,1.4,1.9,2.1,2.8,4.8,3.9,7.4,1.6,4-.6,8.2-2.6,10.3-1.4,1.5-6.8,1.7-8.9.5-1.6-.9-3.1-2.1-4.7-3.4.5,2.6,1,5.2,1.5,7.7.2.9,1,.8,1.6,1,1.4.5,1.7,1.1.5,2.1-1.9,1.6-2.2,3.6-2.2,5.8,0,2.6-1,5-2.3,7.3-.2.4-.5,1-1.1.8-.6-.1-.6-.7-.7-1.2-.4-1.8-.4-3.8-1-5.6-.4-1.2-.9-1.3-2-.9-2.7,1.1-5.5,1.7-8.5,1.6-3.2-.1-6.4,0-9.5.3-1.4.1-2.9,0-4.3-.2-1.7-.4-3.4,0-4.7,1.2-1.4,1.2-2.7,2.3-4.7,2.1-.1,0-.3.1-.4.2,0,0-.1.2-.2.3.7.4,1.4.9,2.1,1.2,5.7,2.1,10.3,6.1,15.5,9,3,1.7,5.3,4,7.3,6.8,2.5,3.4,4.9,6.8,7.3,10.2,1.2,1.7,1.9,3.5,2.2,5.5,0,.4.2,1-.3,1.2-.4.2-.7-.2-1-.5-.8-.8-1.7-1.5-2.3-2.4-2.3-2.9-5.2-5-8-7.3-2.5-2.1-4.5-4.7-6.8-6.9-3.6-3.6-7-7.5-10.8-11-2-1.9-4.3-3.3-7-3.8-1.7-.3-3.4.6-5.2.9-.1,0-.2,0-.3.1-6.2,1-8.2,6.3-11.1,10.7-2.5,3.8-3.4,8.3-5.5,12.4-2.2,4.4-4.8,8.6-6.8,13.1-3.4,7.8-8,15.1-9.8,23.6-.4,1.9-1.1,3.8-2,5.5-.9,1.7-1.1,3.4-1.2,5.3-.1,4.7-.8,9.4-1.2,14.2-.4,4.8-.1,9.6-.2,14.4,0,5.2.4,10.4.4,15.6,0,3-.8,6-.4,9.1h-4.7Z"></path> 
</symbol>
<!-- Cow Outline -->
<symbol id="cow-outline" viewBox="137.6 295.4 338.27 201.36">
<path class="cls-1" d="M150.9,408.5c1.3-3.1,2.4-5.8,2.9-8.7,1.6-9.3.3-18.6-1-27.8-1.5-10.5-3.4-20.9-4.5-31.4-.2-2.1,0-4.3-1.7-6.6-1.1,3.1-2.2,5.7-2,8.6.5,9.9,1.8,19.7,3,29.5.3,2.2.1,4.4.7,6.6,2.3,7.6,2,15.4,2.1,23.1,0,2.1-.5,4.2.5,6.7M330.7,421.2c-1.4,3.1-1.3,6.3-1.6,9.4-.5,4.3-1.9,8.1-5.3,11.2-1.4,1.3-2.5,2.9-2.4,4.7,0,5.9-.3,11.8.3,17.7.6,5.5,4.1,9.5,7.2,13.8.3.4.8.7,1.1,1.1,3.2,3.3,2.6,5.7-2.1,6.6-8.1,1.5-16.9-1.7-17.7-11.1-.2-2-.7-4.2-3.2-5.3-1.5-.6-1-2-.6-2.9,1.2-2.4,1.5-5.1,2.8-7.5,1.5-2.7.9-5.9,1.3-8.8.7-4.7,1.8-9.4,1.3-14.2-.2-1.5-1.2-2.6-1.3-4-.5-4.6.7-9,2.1-13.3,1.4-4.4.3-8.6.2-12.9,0-2.1-2.3-1.5-3.7-1.1-5.9,1.9-11.9,3.9-17.8,6-14.7,5.4-29.9,7.8-45.6,6.7-8.7-.6-16.7-3.5-24.7-6.7-1.9-.7-3.4-2.4-4.4-4.1-.8-1.2-1.8-2.1-2.8-3.1-.6-.6-1.3-1-2.2-.7-1.1.3-.7,1.1-.8,1.8-.3,2.1-2.4,3.4-3.8,4.8-3.6,3.5-6.5,7.2-5.5,12.4.2.9-.3,1.9-.7,2.7-.5,1-1.4,1.6-2.6,1.5-1.2-.1-1.6-.9-1.9-1.9-.4-1.4-.8-2.8-1.4-4.1-1-2.1-2.5-2.3-4.2-.7-2.1,1.9-3.6,4.1-2.9,7,.2.9-.1,1.7-.5,2.5-.8,1.7-2.1,1.9-3.3.4-.8-.9-1.4-2-1.9-3.1-.8-1.7-2.3-2.1-3.9-2.5-1-.3-1.6.2-1.8,1.1-.2.6-.3,1.2-.4,1.7-1.1,5.3-2.1,10.6-3.1,15.8-1.4,7.3-.3,14.8,1.8,22,2.1,7.4,6,13.7,12.2,18.6,2,1.6,2,3.3-.1,4.7-3.6,2.5-7.9,2.4-11.8,1.3-3.5-1-6.1-3.4-6.1-7.4,0-.7-.3-1.4-.6-1.9-.5-.9-1.2-1.6-2.4-1.1-1.2.5-1,1.4-.6,2.4,1.4,3.3,3,6.6,5.8,9.2,2.6,2.4,2,4.5-1.6,5.6-5,1.6-12.4-.7-15.5-4.6-1.2-1.5-1-3.2-1.1-4.9-.2-2.8-.7-3.1-3.6-2.3-2.1.6-2.5-.6-2.4-2,.1-2.6.3-5.1.6-7.6,1.1-10.4.3-20.8-.8-31.1-.2-2-.6-3.9-.6-5.9,0-5.7-2.5-10.8-4.4-16-1.7-4.7-1-9.3.2-13.9,3.5-13.5,3.7-27,0-40.5-.9-3.3-.8-6.8-1.6-10.1-2-7.4-1.1-14.9-1.8-22.3-.6-6,.5-12.1,4.1-16.9,2.7-3.7,6.6-6.9,12.3-7.7,4.2-.6,8.6.2,12.7-1.1.6-.2,1.5-.1,2.1.1,4.6,1.9,9.3,1.6,14.1.8,3.7-.7,7.5-.2,11.2.8,8.9,2.2,18,1,27,.9,6,0,12-.8,18-.9,7.1-.2,14.2.7,21.3.2,3.7-.3,7.3.9,11.1,1,4.6,0,9-.5,13.2-1.6,4.1-1.1,8.1-.3,12.2-.2,5.2,0,10.4.3,15.5.1,10.2-.4,20.4-2.4,30.6-1.6,7.9.6,16,.2,23.8,2,2.6.6,5.3,0,7.9.8,1.1.4,1.5-.5,1.3-1.3-.5-2.1,1.1-2.7,2.6-3.3,6.1-2.4,13.6-.8,18.1,3.8,2.8,2.9,4.6,3.3,7.9,1.6,1.7-.9,1.9-1.8.2-2.8-.5-.3-1-.5-1.4-.8-4.4-2.5-4.7-5.9-.9-9.1,1.2-1,2.5-1.7,3.8-2.6.5-.3,1.2-.6,1.7,0,.4.5-.1.9-.5,1.3-.4.5-.9.9-1.2,1.4-.7,1-.7,1.7.8,2.1,1.7.5,3.2.8,5,0,8.7-3.1,17.4-4.3,26.3-.6,2.2.9,4.7.5,7,0,1.1-.3,1.5-.8,1.2-1.9-.5-1.9.5-1.8,1.9-1.2,4.3,2.1,4.6,6.4.7,9-1.1.7-2.5,1.1-3.7,1.6-1.5.5-3.5.9-2.8,3,.4,1.3,3.6,1.9,5.1,1,2.1-1.3,4.2-2.7,6.2-4.2,3.7-2.9,14.1-3.9,18.4-1.7,1.3.7,1.9,1.8,1.8,3.2,0,.8-.4,1.5-.7,2.2-3,6.8-12.5,12-20.3,11.2-1.1-.1-2.2-.1-3.3-.3-2.3-.2-4.2-.1-3.3,2.9,0,.2.1.5,0,.5-3.2,1.3-1.2,4.3-2.2,6.3-1.1,2.2-1.2,4.6-1.4,7-.3,3.1-.9,6.1-2,9-1.8,4.6-1.3,9.2-.2,13.8.4,1.8.6,3.7,1,5.5.6,2.5-.6,3.8-2.9,4.8-2.2.9-4.5.8-6.7.9-5.2.3-10.3.6-15.2-1.9-2.1-1-3.2-2.1-2.6-4.4.2-.8.8-2-.4-2.5-1-.4-1.9.2-2.7.8-5.8,5-10.9,10.5-14.7,17-2.4,4.2-5.7,7.6-10,9.9-3.2,1.7-5.6,4.3-8.4,6.4-4.5,3.2-7.4,7.7-11.1,11.4-3.7,3.7-8.8,5.4-14.2,5.5-1.6,0-2.3.4-2.5,1.9-.8,4.2-1.3,8.5-.6,12.7.8,4.7.3,9.3-1.8,13.6-1.9,3.8-2,7.5-1.1,11.5.9,4,2.4,7.9,3.6,11.8,1.3,4.3,3.8,8.1,5.5,12.2,1,2.3,2.8,3.9,4.6,5.7,2.9,2.9,2.3,5.2-1.9,6-5.9,1.2-11.4.5-15.8-4.1-1.2-1.3-1.4-2.7-1.3-4.3.1-3.6-.7-4.3-4.5-4.3-.9,0-1.5-.3-1.6-1-.2-.7-.4-1.6-.1-2.3,1.9-4.8.8-9.8,1.2-14.7.2-2.3-.4-4.7-.7-7.1-.4-3,0-6-1-9.1-.6-1.9-1.1-3.9-2.5-5.2-1.8-1.7-1.7-3.5-1.1-5.4,1.4-4.3.3-8.3-.9-12.4">
</path>
</symbol>
<!-- Cow -->
<symbol id="cow" viewBox="136.75 295.01 339.77 201.6">
 <path class="cls-1" d="M149.7,408.4c1.3-3.1,2.4-5.9,2.9-8.8,1.6-9.4.3-18.7-1-28-1.5-10.6-3.4-21.1-4.6-31.7-.2-2.1,0-4.4-1.7-6.7-1.1,3.1-2.2,5.7-2,8.7.5,10,1.8,19.9,3,29.8.3,2.2.1,4.5.8,6.7,2.3,7.6,2,15.5,2.2,23.3,0,2.1-.5,4.3.5,6.8M331,421.2c-1.4,3.1-1.3,6.3-1.6,9.4-.5,4.4-1.9,8.2-5.3,11.3-1.4,1.3-2.5,2.9-2.5,4.8,0,5.9-.3,11.9.3,17.8.6,5.6,4.2,9.6,7.3,13.9.3.4.8.7,1.1,1.1,3.3,3.3,2.6,5.8-2.1,6.7-8.2,1.5-17-1.7-17.9-11.2-.2-2.1-.7-4.3-3.3-5.3-1.5-.6-1.1-2-.6-3,1.2-2.4,1.5-5.1,2.9-7.5,1.5-2.7.9-5.9,1.3-8.9.7-4.7,1.8-9.4,1.3-14.3-.2-1.6-1.2-2.6-1.3-4.1-.5-4.7.7-9.1,2.1-13.4,1.4-4.4.3-8.7.2-13.1,0-2.1-2.3-1.5-3.8-1.1-6,2-12,3.9-17.9,6.1-14.8,5.4-30.1,7.9-46,6.7-8.8-.6-16.9-3.5-24.9-6.7-1.9-.8-3.4-2.4-4.5-4.1-.8-1.2-1.8-2.1-2.8-3.2-.6-.6-1.3-1-2.2-.7-1.1.3-.7,1.1-.8,1.9-.3,2.2-2.4,3.4-3.8,4.8-3.6,3.5-6.6,7.2-5.6,12.5.2,1-.3,1.9-.7,2.7-.5,1-1.4,1.6-2.7,1.5-1.2-.1-1.7-.9-2-1.9-.4-1.4-.8-2.8-1.4-4.2-1-2.1-2.5-2.3-4.2-.8-2.1,2-3.7,4.1-2.9,7.1.2.9-.1,1.7-.5,2.5-.8,1.7-2.1,1.9-3.4.4-.8-.9-1.5-2-2-3.1-.8-1.7-2.3-2.1-3.9-2.5-1-.3-1.6.2-1.8,1.1-.2.6-.3,1.2-.4,1.8-1.1,5.3-2.1,10.7-3.1,16-1.4,7.4-.3,14.9,1.8,22.2,2.1,7.4,6,13.8,12.4,18.8,2,1.6,2,3.3-.1,4.7-3.7,2.5-8,2.4-11.9,1.3-3.5-1-6.2-3.5-6.2-7.4,0-.7-.3-1.4-.6-2-.5-.9-1.2-1.6-2.4-1.1-1.2.5-1,1.4-.6,2.4,1.4,3.4,3,6.6,5.9,9.3,2.7,2.5,2,4.5-1.6,5.7-5,1.6-12.5-.7-15.6-4.7-1.2-1.5-1-3.3-1.1-5-.2-2.8-.7-3.2-3.6-2.3-2.1.6-2.5-.6-2.5-2,.1-2.6.3-5.2.6-7.7,1.1-10.5.3-21-.9-31.4-.2-2-.6-3.9-.6-5.9,0-5.7-2.6-10.9-4.5-16.1-1.7-4.7-1-9.4.2-14,3.5-13.7,3.8-27.2,0-40.9-.9-3.3-.8-6.9-1.6-10.2-2-7.4-1.1-15-1.8-22.5-.6-6.1.5-12.2,4.1-17,2.7-3.7,6.7-7,12.4-7.8,4.3-.6,8.6.2,12.8-1.1.6-.2,1.5-.1,2.2.1,4.7,1.9,9.4,1.6,14.2.8,3.7-.7,7.6-.2,11.3.8,9,2.3,18.1,1,27.2.9,6.1,0,12.1-.8,18.2-.9,7.2-.2,14.3.8,21.5.2,3.8-.3,7.4.9,11.2,1,4.6,0,9-.5,13.3-1.7,4.2-1.2,8.2-.3,12.3-.2,5.2,0,10.5.3,15.7.1,10.3-.4,20.6-2.4,30.9-1.6,8,.6,16.1.2,24,2.1,2.6.6,5.3,0,7.9.9,1.1.4,1.5-.5,1.3-1.3-.5-2.1,1.1-2.7,2.7-3.3,6.2-2.4,13.7-.8,18.2,3.8,2.9,3,4.7,3.3,7.9,1.6,1.7-.9,1.9-1.8.2-2.8-.5-.3-1-.5-1.4-.8-4.4-2.5-4.8-6-.9-9.2,1.2-1,2.5-1.8,3.8-2.6.5-.3,1.2-.7,1.7,0,.4.5-.1,1-.5,1.3-.4.5-.9.9-1.2,1.4-.7,1-.7,1.7.8,2.1,1.7.5,3.2.8,5.1,0,8.7-3.2,17.6-4.3,26.6-.6,2.2.9,4.7.5,7.1,0,1.1-.3,1.5-.8,1.2-1.9-.5-2,.5-1.9,1.9-1.2,4.4,2.1,4.7,6.5.7,9.1-1.2.8-2.5,1.1-3.8,1.6-1.5.6-3.5.9-2.8,3.1.4,1.3,3.7,2,5.2,1.1,2.2-1.3,4.3-2.7,6.3-4.3,3.8-2.9,14.2-3.9,18.5-1.7,1.4.7,1.9,1.8,1.8,3.2,0,.8-.4,1.5-.7,2.2-3.1,6.9-12.6,12.1-20.5,11.3-1.1-.1-2.2-.1-3.3-.3-2.3-.2-4.3-.1-3.3,2.9,0,.2.1.5,0,.5-3.3,1.3-1.2,4.3-2.3,6.4-1.1,2.2-1.2,4.7-1.5,7.1-.3,3.1-.9,6.1-2.1,9.1-1.8,4.6-1.3,9.3-.2,13.9.4,1.8.6,3.8,1,5.6.6,2.5-.6,3.9-3,4.8-2.2.9-4.5.8-6.8.9-5.2.3-10.4.6-15.3-1.9-2.1-1-3.3-2.1-2.6-4.4.2-.8.8-2-.4-2.5-1-.4-2,.2-2.7.8-5.8,5-11,10.6-14.8,17.1-2.4,4.2-5.8,7.6-10.1,10-3.2,1.8-5.6,4.4-8.5,6.4-4.6,3.2-7.4,7.7-11.2,11.5-3.7,3.8-8.9,5.4-14.4,5.6-1.7,0-2.3.4-2.6,1.9-.8,4.3-1.3,8.5-.6,12.8.8,4.7.3,9.4-1.8,13.7-1.9,3.9-2,7.6-1.1,11.6.9,4,2.5,7.9,3.6,11.9,1.3,4.4,3.8,8.2,5.6,12.3,1,2.3,2.9,4,4.6,5.7,2.9,2.9,2.3,5.2-1.9,6.1-6,1.2-11.5.5-15.9-4.1-1.2-1.3-1.4-2.7-1.3-4.3.1-3.7-.7-4.4-4.6-4.3-.9,0-1.5-.3-1.7-1-.2-.7-.4-1.6-.1-2.3,1.9-4.8.8-9.9,1.2-14.8.2-2.3-.4-4.8-.7-7.1-.4-3,0-6.1-1-9.1-.6-2-1.1-3.9-2.6-5.3-1.8-1.7-1.7-3.5-1.1-5.5,1.4-4.3.3-8.4-.9-12.5"></path> 
</symbol>
<!-- Fish Outline -->
<symbol id="fish-outline" viewBox="107.83 278.74 396.68 235.01">
<path class="cls-1" d="M111.3,506.5c-.7-.4-1.5.2-1.9-.5.2-.9,1.6-.9,1.8-1.8-.8-.5-2.5.2-2.6-1.4-.1-2.5,1.9-3.4,4-4.3-.7-.7-1.5-.2-2.1-.3-.7-.1-1.8.3-1.9-.7-.1-.9.2-1.7,1.3-2.2,1.1-.5,2.1-1.3,2.8-2.2-.1-.4-.5-.3-.8-.3-2.7.2-3.5-.7-2.7-3.1.3-1.1,1.2-2,.2-3.2-.6-.7.3-2.1,1.5-2.7.9-.5,2.5-.6,1.3-2,2.4-1.7-.2-2.9-.2-4.3,0-1.8.4-3,2.2-3.7,1.9-.7,1.9-1.2.2-1.9-.3-.1-.6-.5-.7-.8-.4-2,.2-4.1,0-6.2,0-.8,1.1-1.7.8-2.9-.2-.8,1-1.7,2.2-2.1,1.3-.4,1.7-.9.5-1.7-1-.6-.9-1.8-.1-2.2,2.4-1.2,2.5-3.5,3.8-5.1.8-1,1.5-1.5,2.7-1.6,7.4-.9,14.6-.8,21.4,1,2.8.7,4.6,2.8,6.6,4.5,3.3,2.9,7,5.6,11.7,6.7,3.9.9,7.3-.2,10.6-2.7-.8-.8-2,.3-2.9-.3,2.2-1.4,5-1.3,7.1-3.2-2.2-.9-4.4.2-6.7.1,1.4-1.2,3.1-1.1,4.1-2.2-1.9-1.1-1.9-1.5.2-2.9,5.2-3.3,9.5-7.5,14.4-11.1.3-.2.7-.6.7-.9.4-2.8,3.1-4.2,5.3-5.7,5.7-3.8,11.1-7.9,16.1-12.4,5.3-4.8,10.8-9.3,15.7-14.3.5-.6,1-1.3,1.7-1.6,5.5-2.9,9.3-7.5,13.9-11.2,4.9-4,10.8-6.2,16-9.6,5.1-3.4,11.4-4,16.2-7.8,6.7-5.2,14-9.8,20.8-15,9.7-7.6,20-14.5,31.1-20.3,3.1-1.6,5.9-3.7,9-5.4,10.9-6,21.6-12,33.2-16.8,9.4-3.9,18.5-8.3,27.7-12.5,7.4-3.4,15.1-6.2,22.9-8.6,12.1-3.8,24-8.2,36-12.2,3.3-1.1,6.6-2.4,10.1-2.4,1.3,0,2.7-.5,4-1.1,3.9-1.7,7.9-2.7,11.8-1.1.7.3,1.4,0,2.1,0,3.4-.8,5.2.4,5.1,3.5,0,1.9-.7,3.7-1.2,5.5-.8,3-1.7,6.1-2.4,9.1-.2.7-.4,1.8.6,2,.7.2,1.1-.8,1.6-1.2,3.2-2.9,6.5-5.7,9.6-8.7,1.3-1.4,3.2-.8,4.5.8,2.4,3.2,1.8,6.9-.2,10.2-5.1,8.4-7.6,17.7-14.5,25.4-2.6,2.9-4.5,6.1-7.5,8.7-.5.5-1.1,1-1.4,1.6-2.6,5.2-7.6,8.9-11.4,13.4-2.8,3.3-5.8,6.6-8.8,9.9-3.9,4.3-8.4,8.2-13.4,11.6-3,2-5.2,4.7-7.7,7.2-6.5,6.2-13.7,11.8-20.6,17.7-4.3,3.7-8.9,6.9-13.2,10.5-1,.8-2.1,1.5-3.2,2.2-5.3,3-9.6,7-14.2,10.7-4.1,3.4-7.4,7.6-12,10.6-2.4,1.6-3.5,4.5-5.9,6.4-1.9,1.5-3.7,3.1-5.6,4.6-1.4,1.1-2.8,1.4-4.3.2-1.4-1.1-3-1-4.3.6-1.3,1.6-3.4,1.8-5,2.9-4.7,3.3-9.5,6.6-14.5,9.4-5.7,3.2-11.7,5.7-17.6,8.7-4,2-7.9,4.2-12.2,5.7-4.3,1.5-8.5,3.3-12.9,4.5-2.3.6-4.6,1.3-6.8,2-2.2.8-4.3,1.4-6.6,1.5-2.4,0-4.6,1.2-6.7,2.1-5.5,2.3-11.4,3.4-17,5.4-1.1.4-2.1.9-3,1.6-5.9,4.7-12.8,7.7-19.7,10.6-4.7,2-9.4,4.2-14.4,5.4-1.5.3-2.8.3-3.9,0-1.5-.5-.8-2.1-.3-2.8,1.6-2.4,1.3-5.4,3.9-7.5,1.5-1.2-.8-2.3,0-3.8.2-.3-1.5-.6-2.5-.5-5.5.7-11,1-16.5,1.1-4.2,0-8.3,1.5-12.5,1.7-4.6.3-9.1.2-13.7.9-5.8.9-11.7,1.1-17,4.3-.5.3-1.1.5-1.4.9-6.5,6.4-15.1,9.2-23.4,12.4-4.4,1.7-8.8,3.7-13.6,3.7-1.4,0-3.4,0-3.5-.9-.3-1.8-1.7-2.5-2.6-3.7-.5-.7.1-1.2.8-1.7"></path> 
</symbol>
<!-- Fish -->
<symbol id="fish" viewBox="113.88 281.82 383.9 229.08">
<path class="cls-1" d="M116.6,504.8c-.7-.4-1.5.2-1.8-.5.2-.9,1.5-.9,1.7-1.8-.8-.5-2.4.2-2.5-1.4-.1-2.5,1.9-3.3,3.9-4.2-.6-.7-1.4-.2-2.1-.4-.7-.1-1.7.3-1.9-.7-.1-.9.2-1.7,1.2-2.2,1.1-.5,2-1.2,2.7-2.1-.1-.4-.5-.4-.8-.3-2.7.2-3.4-.8-2.7-3.1.3-1.1,1.2-2,.1-3.2-.6-.7.2-2,1.4-2.7.9-.5,2.5-.6,1.3-2,2.3-1.6-.2-2.8-.2-4.3,0-1.8.3-2.9,2.1-3.6,1.8-.7,1.8-1.2.2-1.9-.3-.1-.6-.5-.7-.8-.4-2,.2-4.1,0-6.2,0-.8,1-1.7.7-2.9-.2-.8,1-1.7,2.1-2.1,1.3-.4,1.7-.9.5-1.7-1-.6-.9-1.8-.2-2.2,2.4-1.2,2.4-3.4,3.7-5.1.8-1,1.5-1.5,2.6-1.6,7.2-.8,14.2-.6,20.9,1.2,2.7.7,4.5,2.8,6.5,4.6,3.3,2.9,6.8,5.6,11.5,6.8,3.8,1,7.2-.2,10.4-2.6-.8-.8-2,.2-2.9-.4,2.1-1.4,4.9-1.2,6.9-3.1-2.1-.9-4.3.1-6.6,0,1.3-1.2,3-1.1,4-2.2-1.9-1.1-1.9-1.5.2-2.9,5-3.3,9.2-7.4,14-10.9.3-.2.7-.6.7-.9.4-2.8,3-4.2,5.1-5.6,5.5-3.7,10.8-7.8,15.6-12.2,5.1-4.7,10.5-9.1,15.2-14.1.5-.6,1-1.3,1.7-1.6,5.3-2.8,9-7.4,13.5-11.1,4.8-3.9,10.5-6.1,15.5-9.4,5-3.3,11.1-3.9,15.8-7.6,6.5-5.1,13.6-9.6,20.2-14.8,9.4-7.5,19.5-14.2,30.2-19.9,3-1.6,5.8-3.7,8.7-5.3,10.5-5.8,21-11.8,32.2-16.4,9.1-3.8,18-8.1,26.9-12.2,7.2-3.3,14.7-6,22.3-8.4,11.8-3.6,23.4-7.9,35-11.8,3.2-1.1,6.4-2.3,9.9-2.3,1.3,0,2.6-.5,3.9-1,3.8-1.7,7.7-2.7,11.5-1,.7.3,1.3,0,2,0,3.3-.8,5.1.5,5,3.5,0,1.9-.6,3.7-1.1,5.5-.8,3-1.6,6-2.3,9.1-.2.7-.4,1.8.6,2,.7.2,1.1-.7,1.6-1.2,3.1-2.9,6.3-5.6,9.3-8.6,1.3-1.3,3.1-.8,4.4.9,2.4,3.2,1.8,6.9,0,10.1-4.9,8.3-7.3,17.6-14,25.2-2.5,2.8-4.4,6-7.3,8.6-.5.5-1,1-1.3,1.6-2.5,5.2-7.4,8.8-11,13.2-2.8,3.3-5.7,6.5-8.5,9.7-3.8,4.3-8.1,8.1-13,11.4-2.9,1.9-5,4.7-7.5,7.1-6.3,6.2-13.3,11.7-19.9,17.5-4.1,3.6-8.7,6.8-12.8,10.3-.9.8-2,1.5-3.1,2.1-5.2,2.9-9.4,6.8-13.8,10.6-4,3.4-7.2,7.5-11.6,10.5-2.4,1.6-3.4,4.5-5.7,6.3-1.8,1.5-3.6,3-5.4,4.5-1.4,1.1-2.8,1.4-4.2.2-1.4-1.2-3-1-4.2.6-1.2,1.5-3.3,1.7-4.8,2.8-4.6,3.2-9.2,6.5-14.1,9.2-5.5,3.1-11.4,5.6-17.1,8.5-3.9,2-7.7,4.1-11.8,5.6-4.2,1.5-8.2,3.2-12.5,4.4-2.2.6-4.4,1.2-6.6,2-2.1.7-4.2,1.4-6.5,1.4-2.4,0-4.5,1.2-6.6,2-5.4,2.3-11.1,3.3-16.6,5.2-1.1.4-2.1.9-2.9,1.6-5.7,4.6-12.4,7.6-19.2,10.4-4.6,1.9-9.1,4.1-14,5.2-1.4.3-2.7.3-3.9-.1-1.4-.5-.8-2.1-.3-2.8,1.6-2.4,1.2-5.4,3.8-7.5,1.5-1.2-.8-2.3,0-3.8.2-.3-1.5-.6-2.5-.5-5.4.6-10.8.9-16.1.9-4.1,0-8.1,1.4-12.2,1.6-4.5.2-8.9,0-13.4.7-5.7.8-11.4,1-16.6,4.2-.5.3-1,.5-1.4.9-6.3,6.3-14.6,9-22.8,12.1-4.3,1.6-8.5,3.6-13.2,3.5-1.4,0-3.3,0-3.5-1-.3-1.8-1.7-2.5-2.6-3.7-.5-.7.1-1.2.8-1.7"></path>
</symbol>
<!-- Fortune Cookie 1 Outline -->
<symbol id="fortune-cookie-outline" viewBox="242.14 312.01 127.71 167.86">
<path class="cls-1" d="M251.8,409.8c1.2,1.7,2.8,3.5,4.6,4.7,5.4,3.6,11.2,5.4,17.8,3.4,2.5-.8,5.1-1.5,7.6-2,2.3-.4,2.5-.2,3.2,2.1.1.3.1.6,0,.9-1.1,3.5,0,6.3,2.1,8.9.4.5.8.8,1.4.8,3.4,0,5.5,2.3,7.8,4.2,1.5,1.3,3.2,2.4,4.8,3.5.3.2.8.3.7.8,0,.5-.6.5-.9.6-.3,0-.7.2-1,.1-2.5-.1-4.8.7-7,1.9-2,1.1-4.3,1.6-6.4,2.5-3.2,1.4-6.3,3.1-9.2,5.2-.5.3-1,.6-1.5.8-1.9.7-3.5,2.1-5.2,3.2-.7.5-.9,1.4-.8,2.2,0,1.4.6,2.7,0,4.1-.2.5.2,1.1.4,1.6,1,2.8,2.7,4.9,4.8,6.9,1.8,1.7,3.5,3.5,5.7,4.6,5.8,2.9,11.8,5.2,18.2,6.6,6.7,1.5,13.4,1.5,20.2,1.1,1.3,0,2.6.1,3.8.2,6.2.5,12.5.5,18.7.3,2.3,0,4.7-.2,7-.9,5-1.7,9-5.1,9.8-11.3.5-4.2,2.2-8.1,4.9-11.6,3.7-4.8,5.8-10.3,5.8-16.5,0-2.8-.6-5.4-.7-8-.2-4.6-2.2-8.2-4.7-11.5-2-2.6-4-5.3-6.5-7.4-3.5-3-7-6.1-11.8-7.1-1-.2-1.9-.6-2.7-1.4-1.2-1.1-2.8-1.2-4.3-1.6-5.8-1.6-11.8-2.1-17.9-1.5-2.1.2-4.3.6-6.5.9-.7,0-.9-.2-.5-.7,1.6-1.8,1.6-4.2,2.4-6.3.8-1.8,1.6-3.7,2.9-5.3.9-1.1,1.2-2.5,1.8-3.8,2.4-5.3,4.6-10.7,7.1-16,2.2-4.5,3.7-9.4,4.7-14.3.3-1.5.7-3,.7-4.4,0-2.2.1-4.6-.5-6.7-.4-1.5-.3-3.1-.6-4.7-.3-1.9-.7-3.8-2.7-4.7-.1,0-.2-.2-.3-.4-1.4-3-3.4-5.4-6.5-6.6-2.4-.9-5-1.7-7.7-.3-.9.5-1.9.9-2.4,1.8-2.2,3.7-5.5,6.4-8.3,9.5-2.4,2.7-5,5.3-7.5,7.9-.3.3-.7.6-1.2.9-.6.4-1.3,1.4-1.8,1.1-.6-.4-.3-1.5-.2-2.3.3-7.9-.2-15.7-.4-23.6,0-.3,0-.7,0-1,.3-1.4.1-2.7-.6-3.9-.9-1.4-2-2.5-3.1-3.7-1-1.1-2.7-.9-4.2-.6-3.1.6-6.3,1.2-9.1,2.9-2.7,1.6-5.5,3-8,4.9-1.3.9-2.6,1.7-3.9,2.6-6.2,4-10.6,9.7-13.8,16.3-1.9,3.8-3,7.8-4.2,11.9-.6,2.1,0,4.1-.4,6.1-.1.5,0,1.1-.2,1.6-1.4,2.9-.8,5.9-.6,8.8,0,2.6.1,5.3-.9,7.6-2.1,4.7-.6,9.2-.5,13.8.1,5.2,2.1,9.8,4.1,14.5.9,2,2.1,3.9,3.6,5.7"></path>
</symbol>
<!-- Fortune Cookie 1 -->
<symbol id="fortune-cookie" viewBox="242.57 308.83 129.03 174.81">
<path class="cls-1" d="M250.5,411.3c1.3,1.8,2.8,3.6,4.7,4.9,5.5,3.7,11.5,5.6,18.3,3.4,2.6-.8,5.2-1.6,7.9-2.2,2.4-.5,2.6-.2,3.3,2.1.1.3.1.6,0,.9-1.2,3.7,0,6.7,2,9.4.4.5.9.8,1.5.8,3.5,0,5.6,2.4,8,4.3,1.6,1.3,3.2,2.5,4.9,3.7.3.2.8.3.8.8,0,.5-.6.5-1,.6-.3.1-.7.2-1,.2-2.6-.1-4.9.8-7.2,2.1-2.1,1.2-4.4,1.7-6.6,2.7-3.3,1.6-6.5,3.4-9.5,5.6-.5.3-1,.7-1.5.9-2,.8-3.7,2.2-5.4,3.5-.8.6-.9,1.5-.9,2.4,0,1.4.5,2.9,0,4.4-.2.6.2,1.1.4,1.7,1,2.9,2.7,5.2,4.9,7.2,1.9,1.7,3.6,3.7,5.9,4.8,6,2.9,12.1,5.3,18.7,6.7,6.9,1.5,13.8,1.5,20.9.9,1.3,0,2.6,0,4,.2,6.4.5,12.8.4,19.3,0,2.4,0,4.9-.2,7.2-1.1,5.2-1.8,9.4-5.5,10.2-12,.6-4.5,2.3-8.5,5.1-12.2,3.9-5.1,6.1-10.9,6.2-17.5,0-2.9-.6-5.7-.7-8.5-.1-4.8-2.2-8.6-4.7-12-2-2.7-4.1-5.5-6.6-7.7-3.6-3.1-7.2-6.3-12-7.3-1-.2-2-.7-2.8-1.4-1.2-1.1-2.9-1.2-4.4-1.7-6-1.7-12.2-2.1-18.4-1.4-2.2.2-4.5.7-6.7,1-.7,0-.9-.2-.5-.7,1.6-2,1.7-4.5,2.6-6.7.8-2,1.7-3.9,3.1-5.6.9-1.1,1.3-2.7,1.9-4,2.6-5.6,4.8-11.4,7.5-16.9,2.3-4.8,4-9.9,5-15.1.3-1.5.7-3.1.8-4.6,0-2.4.2-4.8-.4-7.1-.4-1.6-.3-3.3-.5-4.9-.3-2-.7-4-2.7-4.9-.1,0-.2-.3-.3-.4-1.4-3.1-3.4-5.7-6.6-6.9-2.5-.9-5.2-1.7-7.9-.2-.9.5-1.9,1-2.5,1.9-2.3,3.9-5.7,6.8-8.7,10.1-2.6,2.9-5.2,5.7-7.8,8.5-.3.4-.8.6-1.2.9-.6.4-1.4,1.5-1.8,1.2-.7-.4-.3-1.6-.2-2.4.4-8.3,0-16.6-.1-24.9,0-.4,0-.8,0-1.1.4-1.5.2-2.8-.6-4.1-.9-1.5-2.1-2.7-3.2-3.9-1-1.2-2.8-.9-4.3-.6-3.2.7-6.6,1.4-9.4,3.2-2.8,1.8-5.7,3.2-8.3,5.2-1.3,1-2.7,1.9-4.1,2.8-6.4,4.3-11,10.3-14.4,17.3-2,4-3.2,8.3-4.4,12.6-.6,2.2,0,4.3-.5,6.5-.1.5,0,1.2-.2,1.7-1.5,3.1-.8,6.2-.8,9.3,0,2.7,0,5.6-1,8-2.2,5-.8,9.8-.7,14.6,0,5.5,2,10.4,4,15.2.9,2.1,2.1,4,3.7,6"></path>
</symbol>
<!-- Hand Outline -->
<symbol id="hand-outline" viewBox="121.05 335.99 370.05 120.46">
<path class="cls-1" d="M414,432.1c1.8,1.1,3.8,1.5,5.6,2.1,5,1.7,10.3,2.4,15.5,2.9.7,0,1.4,0,2.1-.1.4,0,.9-.2.8-.7,0-.5-.5-.5-.9-.6-1.8-.1-3.5-.2-5.3-.5-3.5-.5-6.8-1.7-10.2-2.5-2.5-.6-5-.8-7.6-.6M458.6,416.2c-3.2,0-6.3-.3-9.4-.5-6.4-.4-12.8-1.3-19.1-2.4-2-.3-4-.5-6-.8-.7,0-1.5-.2-1.7.7-.1.9.7.9,1.3,1.1,2.7,1.1,5.7.8,8.5,1.5,4.8,1.2,9.6,2.1,14.6,2.1,2.8,0,5.5-.5,8.3-.4,1.3,0,2.6-.4,3.6-1.4M122.5,364c5,.8,10,1.7,15.1,2.6,6.3,1.1,12.5,2.5,18.8,3.3,6.4.8,12.8,2,19.3,2.6,7.4.7,14.7,1.7,22.1,2.4,7.8.7,15.6,1.5,23.4,1.7,4.5.1,9,.5,13.4.5,5.7,0,11.5-.1,17.2.2,6.1.4,12.2-.7,18.3-.8,9.3,0,18.6-1.5,27.9-1.8,7.6-.2,15.1-.9,22.7-.6,5.8.2,11.3-1,16.6-3.4,2.8-1.3,5.4-3.2,8.4-4.1,6.1-1.8,12.3-3.5,18.4-5.3,6.5-1.9,13-3.6,19.3-6,3.1-1.2,6.4-2.1,9.7-2.3,3.1-.2,6.1-.8,9.1-1.9,4.3-1.7,8.9-2.3,13.1-4.3,2.3-1.1,4.9-1.9,7.5-1.9,2.8,0,5.3-1.1,7.5-2.8,3.1-2.4,6.4-4.4,10.3-5.2,3-.7,5.3,1,5.8,4.1.4,2.7-.5,4.9-1.9,7.1-3.1,5-6.9,9.4-11.7,12.9-2.5,1.9-5.2,3.2-8.3,3.7-1.5.3-2.9.8-4.3,1.2-.4.1-.9.4-.9.9,0,.6.6.7,1,.8.3.1.7.2,1,.3,7.9,2.6,16.3,2.2,24.3,3.9,3.9.8,8.2,0,12.2,1.1,3.9,1,7.8,1.5,11.7,2,2.8.3,5.7-.2,8.4.5,3.7.9,7.5,1,10.3,4.4,3.4,4.1,2.8,9.1-2.1,11.3-5.1,2.2-10.4,2.4-15.8,1.6-2.4-.4-4.9-.7-7.4-.8-3.1,0-6.2.7-9.3.8-5.9.1-11.8-.7-17.7-1.3-2.9-.3-5.7-.6-8.6-.9-.7,0-1.5-.2-1.6.8,0,1,.9.9,1.5,1,.2,0,.3,0,.5,0,4.5.7,9,.9,13.5,1.8,3.9.8,7.9,1.7,11.9,1.6,2.8,0,5.5.6,8.2,1.1,3.4.6,7,.9,10.5,0,2.6-.6,5.2-.8,7.8-1.2,1.3-.2,2.6,0,3.5,1,1.2,1.3,2.3,2.6,3,4.2,1.9,4.7-.3,9.4-4.5,10.1-.5,0-.9.4-1.4.7-2.3,1.6-4.7,2.9-7.7,2.8-.5,0-1,0-1.2.5-.2.5.3.7.5,1,2.7,4.2,2.1,8.7-2.6,10.9-.6.3-1.1.7-1.6,1.3-1.9,2.8-4.5,4.6-7.9,5.1-1.8.3-3.5.5-5.3.8-1.2.2-1.7.8-1.3,2.1.6,2.1,0,3.9-1.4,5.5-.9,1-1.5,2.1-2,3.4-1.1,2.6-2.6,4.9-5.5,5.6-3.7,1-7.4,1.9-11,3.1-.7.2-1.5.2-2.2.2-4.3.2-8.4-1.3-12.6-1.8-6.5-.9-12.8-2.8-19.4-2.8-4.3,0-8.5-.6-12.7-1.4-5.1-1-10.3-2.1-15.5-2.6-5.6-.6-11.2-1.4-16.6-3.2-4.8-1.5-9.4-3.3-14.2-4.8-2.8-.9-5.6-1.7-8.5-2-6.5-.8-13-.5-19.4.6-10.4,1.7-20.8,2.4-31.2,3.4-6.5.7-13,1.9-19.5,2.8-10.1,1.4-20.3,2.2-30.4,3.5-14.1,1.7-28.1,3.8-42.1,5.6-14.9,1.9-52.2,3.1-67.1,4.5l.7-91.5Z"></path>
</symbol>
<!-- Hand -->
<symbol id="hand" viewBox="121.5 337.04 368.55 118.96">
<path class="cls-1" d="M413.6,432.4c1.8,1.1,3.8,1.5,5.6,2.1,5,1.7,10.3,2.4,15.5,2.9.7,0,1.4,0,2.1-.1.4,0,.9-.2.8-.7,0-.5-.5-.5-.9-.6-1.8-.1-3.5-.2-5.3-.5-3.5-.5-6.8-1.7-10.2-2.5-2.5-.6-5-.8-7.6-.6M458.2,416.5c-3.2,0-6.3-.3-9.4-.5-6.4-.4-12.8-1.3-19.1-2.4-2-.3-4-.5-6-.8-.7,0-1.5-.2-1.7.7-.1.9.7.9,1.3,1.1,2.7,1.1,5.7.8,8.5,1.5,4.8,1.2,9.6,2.1,14.6,2.1,2.8,0,5.5-.5,8.3-.4,1.3,0,2.6-.4,3.6-1.4M122.2,364.3c5,.8,10,1.7,15.1,2.6,6.3,1.1,12.5,2.5,18.8,3.3,6.4.8,12.8,2,19.3,2.6,7.4.7,14.7,1.7,22.1,2.4,7.8.7,15.6,1.5,23.4,1.7,4.5.1,9,.5,13.4.5,5.7,0,11.5-.1,17.2.2,6.1.4,12.2-.7,18.3-.8,9.3,0,18.6-1.5,27.9-1.8,7.6-.2,15.1-.9,22.7-.6,5.8.2,11.3-1,16.6-3.4,2.8-1.3,5.4-3.2,8.4-4.1,6.1-1.8,12.3-3.5,18.4-5.3,6.5-1.9,13-3.6,19.3-6,3.1-1.2,6.4-2.1,9.7-2.3,3.1-.2,6.1-.8,9.1-1.9,4.3-1.7,8.9-2.3,13.1-4.3,2.3-1.1,4.9-1.9,7.5-1.9,2.8,0,5.3-1.1,7.5-2.8,3.1-2.4,6.4-4.4,10.3-5.2,3-.7,5.3,1,5.8,4.1.4,2.7-.5,4.9-1.9,7.1-3.1,5-6.9,9.4-11.7,12.9-2.5,1.9-5.2,3.2-8.3,3.7-1.5.3-2.9.8-4.3,1.2-.4.1-.9.4-.9.9,0,.6.6.7,1,.8.3.1.7.2,1,.3,7.9,2.6,16.3,2.2,24.3,3.9,3.9.8,8.2,0,12.2,1.1,3.9,1,7.8,1.5,11.7,2,2.8.3,5.7-.2,8.4.5,3.7.9,7.5,1,10.3,4.4,3.4,4.1,2.8,9.1-2.1,11.3-5.1,2.2-10.4,2.4-15.8,1.6-2.4-.4-4.9-.7-7.4-.8-3.1,0-6.2.7-9.3.8-5.9.1-11.8-.7-17.7-1.3-2.9-.3-5.7-.6-8.6-.9-.7,0-1.5-.2-1.6.8,0,1,.9.9,1.5,1,.2,0,.3,0,.5,0,4.5.7,9,.9,13.5,1.8,3.9.8,7.9,1.7,11.9,1.6,2.8,0,5.5.6,8.2,1.1,3.4.6,7,.9,10.5,0,2.6-.6,5.2-.8,7.8-1.2,1.3-.2,2.6,0,3.5,1,1.2,1.3,2.3,2.6,3,4.2,1.9,4.7-.3,9.4-4.5,10.1-.5,0-.9.4-1.4.7-2.3,1.6-4.7,2.9-7.7,2.8-.5,0-1,0-1.2.5-.2.5.3.7.5,1,2.7,4.2,2.1,8.7-2.6,10.9-.6.3-1.1.7-1.6,1.3-1.9,2.8-4.5,4.6-7.9,5.1-1.8.3-3.5.5-5.3.8-1.2.2-1.7.8-1.3,2.1.6,2.1,0,3.9-1.4,5.5-.9,1-1.5,2.1-2,3.4-1.1,2.6-2.6,4.9-5.5,5.6-3.7,1-7.4,1.9-11,3.1-.7.2-1.5.2-2.2.2-4.3.2-8.4-1.3-12.6-1.8-6.5-.9-12.8-2.8-19.4-2.8-4.3,0-8.5-.6-12.7-1.4-5.1-1-10.3-2.1-15.5-2.6-5.6-.6-11.2-1.4-16.6-3.2-4.8-1.5-9.4-3.3-14.2-4.8-2.8-.9-5.6-1.7-8.5-2-6.5-.8-13-.5-19.4.6-10.4,1.7-20.8,2.4-31.2,3.4-6.5.7-13,1.9-19.5,2.8-10.1,1.4-20.3,2.2-30.4,3.5-14.1,1.7-28.1,3.8-42.1,5.6-14.9,1.9-52.2,3.1-67.1,4.5"></path>
</symbol>
<!-- Orange Peel Outline -->
<symbol id="orange-peel-outline" viewBox="194.68 293.9 223.65 204.31">
<path class="cls-1" d="M255.8,357.7c-3.6.4-6.6,1.5-9.7,2.2-5.6,1.3-11,3.3-16.9,3.3-3.2,0-6.2-.4-9.3-.8-1.3-.2-2.5-.6-3.4-1.6-.9-1-2-1.5-3.3-1.6-1.5-.2-2.8-.6-3.9-1.6-1-1-2.7-.7-4.1-.8-.9,0-1.7-.3-2.6-.8-4.6-2.4-5.5-6.7-6.5-11.1-.9-4.3-.9-8.6,0-12.9.6-2.9,1.1-6,3.4-8.4.3-.3.6-.7.7-1.1,1.2-5,4.5-8.9,7.9-12.5,6.3-6.6,13.6-12.1,23-14.1,3.2-.7,6.4-1.4,9.8-1.2,5.2.2,10.4-.4,15.6.3,6.5.8,12.2,3.2,17.9,5.9,9.5,4.4,16.5,11.4,22.9,19.1,3,3.6,4.8,8,6.6,12.3,1.7,3.9,3.4,7.7,3.6,12.1.1,4.9.1,9.7-3.4,13.9-.5.6-.8,1.2-1.2,1.8-.3.5-.3,1.1.6.8,2.9-1,5.9-1,8.8-1,3.7,0,7.2-1.2,10.8-1.7,3.9-.6,7.8-1.3,11.8-.2,2,.5,3.8,1.2,5.3,2.6,3.3,3,5.3,6.8,7.6,10.5,4,6.2,6.9,12.8,9.4,19.7,2.7,7.3,2.8,14.8,2.2,22.4-.1,1.7-.9,3.2-2,4.5-2.3,2.7-4.3,5.6-5.6,8.8-.7,1.7-2.6,2.6-3.3,4.3-1.8,3.8-3.9,7.5-5.5,11.4-1.3,3.2-4.1,4.8-6.9,6.5-1,.6-2.7.9-2.4,2.1.3,1.1,1.8,0,2.8.2.9.2,1.8-.2,2.6-.7,1.4-.9,2.9-1.7,4.3-2.5,1.9-1.1,3.6-2.4,4.8-4.4,1.5-2.7,4-4.9,5.3-7.8,0-.2.2-.3.4-.4,2-1.6,3.9-3.3,5.6-5.3,2.1-2.4,5.1-4,8.3-5.1,1.7-.6,3.1-1.4,4.3-2.8,2.3-2.7,5.4-3.4,8.9-3.3.6,0,1.1.1,1.7,0,5.9-.3,9.7,2.3,11.6,7.4,1.7,4.6,3.5,9.1,5.1,13.7,1,2.9,1.5,6,2.2,8.9.1.4-.1,1.1.5,1.1.6,0,.8-.5,1.1-.8,1.1-1.2,1.7-2.7,2.3-4.1,1.8-3.8,4.9-4.5,7.9-1.3,1.2,1.2,2.1,2.7,3.5,3.8.9.7.7,1.9.5,3-.5,3.3-1.3,6.6-2.4,9.8-.8,2.1-2.3,4-3.7,5.7-4.9,6-10.1,11.8-16.5,16.6-.6.4-1.2.9-2,.9-2.4,0-4,1.4-5.5,3-2.2,2.4-5.4,3.5-8.1,5.1-3.1,1.8-6.5,2.7-10,3.4-2.2.4-4.4,1.1-6.7,1.6-7.6,1.5-15.1,1.2-22.4-.6-4.1-1-6.8-3.8-8.1-7.5-.5-1.3-1.1-2.5-1.3-3.9-.2-1.3-1.3-2.3-2.8-2.8-4.1-1.3-8.6-2.3-12.1-4.4-5.9-3.4-12.4-6.4-16.1-12.6-1.2-2.1-1.4-4.3-1.7-6.5-.1-.8-.3-1.5-.7-2.3-2.6-4.7-4.1-9.6-3.9-15.1.3-5.3.5-10.6,1.7-15.9,0-.3,0-.7,0-1-.4-3.7,1-7.1,2.5-10.5,0-.2.2-.3.3-.5.9-3.1,2.9-5.4,5.5-7.5,1.8-1.5,3.7-3.1,5.9-3.7,3.1-.9,3.9-3.4,5.3-5.7.1-.2.1-.5.2-.7.9-2.2.3-2.9-2.2-2.4-1.5.3-3,.5-4.6.3-1.6-.1-3,.5-4.2,1.8-1.6,1.7-3.7,3-5.1,4.9-.5.7-1.7,1-2.7,1.2-3.7.6-6.2,2.6-7.8,5.8-1.9,3.9-5.3,6.8-8.1,10-2.3,2.6-4.5,5.5-7.5,7.5-5,3.3-10.1,6.2-16.2,6.9-3.2.4-5.2-1.3-7.1-3.2-5.1-5.2-9-11.2-13-17.2-1.6-2.4-2.5-5-3.7-7.5-1.7-3.4,0-6.1,2.3-8.6.2-.2.5-.4.6-.7,1.1-4,4.7-6.1,7.3-9,.3-.4.7-.8.8-1.2.7-2.8,1.5-5.7,1.1-8.5-.3-2.3.4-4,1.8-5.7.5-.6,1-1.1,1-1.9-.3-3.1,1.9-4.8,4.1-6.6,1.4-1.1,2.9-2,4.4-3.7"></path>
</symbol>
<!-- Orange Peel -->
<symbol id="orange-peel"  viewBox="193.69 292.85 225.28 206.31">
<path class="cls-1" d="M255,357c-3.7.4-6.7,1.5-9.8,2.2-5.7,1.4-11.2,3.4-17.2,3.3-3.2,0-6.3-.4-9.5-.8-1.3-.2-2.6-.6-3.4-1.6-.9-1-2-1.5-3.4-1.6-1.5-.2-2.8-.6-4-1.7-1.1-1-2.7-.7-4.1-.8-1,0-1.8-.3-2.6-.8-4.6-2.4-5.6-6.8-6.6-11.2-.9-4.3-1-8.7,0-13.1.6-3,1.1-6.1,3.5-8.6.3-.3.6-.7.7-1.1,1.2-5,4.5-9,8.1-12.7,6.4-6.7,13.8-12.3,23.4-14.3,3.3-.7,6.5-1.4,9.9-1.3,5.3.2,10.5-.4,15.8.3,6.6.8,12.4,3.3,18.2,6,9.6,4.5,16.8,11.6,23.2,19.4,3.1,3.7,4.8,8.1,6.7,12.5,1.7,3.9,3.5,7.8,3.6,12.3.1,5,.1,9.9-3.5,14.1-.5.6-.8,1.2-1.2,1.9-.3.5-.3,1.1.6.8,2.9-1,6-1,8.9-1,3.8,0,7.3-1.2,11-1.7,4-.6,8-1.3,12-.2,2,.5,3.8,1.3,5.3,2.7,3.3,3.1,5.4,6.9,7.8,10.6,4.1,6.3,7,13,9.5,20,2.7,7.4,2.8,15,2.2,22.8-.1,1.7-.9,3.2-2.1,4.6-2.3,2.8-4.3,5.7-5.6,9-.7,1.7-2.6,2.6-3.4,4.3-1.8,3.9-4,7.6-5.6,11.6-1.3,3.3-4.2,4.9-7,6.6-1,.6-2.8,1-2.5,2.1.3,1.1,1.8,0,2.8.2.9.2,1.8-.2,2.7-.7,1.4-.9,2.9-1.7,4.4-2.6,2-1.2,3.7-2.5,4.8-4.5,1.5-2.8,4-5,5.3-7.9,0-.2.2-.3.4-.4,2.1-1.6,3.9-3.4,5.6-5.3,2.1-2.5,5.2-4.1,8.4-5.2,1.7-.6,3.1-1.4,4.3-2.8,2.3-2.7,5.5-3.5,9-3.3.6,0,1.1.1,1.7,0,6-.3,9.8,2.3,11.8,7.5,1.8,4.6,3.6,9.2,5.2,13.9,1,3,1.5,6.1,2.2,9.1.1.4-.1,1.1.6,1.2.6,0,.8-.5,1.2-.8,1.1-1.2,1.7-2.7,2.4-4.1,1.8-3.8,4.9-4.5,8.1-1.4,1.2,1.2,2.1,2.7,3.5,3.8.9.7.7,1.9.5,3-.5,3.4-1.3,6.7-2.5,9.9-.8,2.2-2.3,4.1-3.7,5.8-5,6.1-10.3,12-16.7,16.8-.6.4-1.2.9-2,1-2.5,0-4.1,1.5-5.6,3.1-2.3,2.5-5.4,3.6-8.2,5.2-3.1,1.8-6.6,2.8-10.1,3.5-2.3.5-4.5,1.1-6.8,1.6-7.7,1.5-15.3,1.2-22.8-.6-4.1-1-6.9-3.8-8.3-7.7-.5-1.3-1.1-2.6-1.4-4-.3-1.4-1.4-2.4-2.8-2.8-4.2-1.4-8.7-2.4-12.3-4.5-6-3.5-12.6-6.5-16.3-12.8-1.2-2.1-1.5-4.3-1.8-6.6-.1-.8-.3-1.6-.8-2.3-2.7-4.8-4.2-9.8-3.9-15.4.3-5.4.5-10.8,1.7-16.1,0-.3,0-.7,0-1.1-.4-3.8,1.1-7.2,2.5-10.7,0-.2.2-.3.3-.5.9-3.2,3-5.5,5.6-7.6,1.9-1.5,3.7-3.1,6-3.8,3.2-.9,4-3.5,5.3-5.8.1-.2.2-.5.2-.7.9-2.2.3-2.9-2.3-2.4-1.6.3-3.1.5-4.7.3-1.7-.1-3.1.5-4.3,1.8-1.6,1.8-3.8,3-5.2,5-.5.7-1.8,1-2.7,1.2-3.7.7-6.3,2.7-7.9,5.9-1.9,4-5.3,6.9-8.3,10.1-2.4,2.6-4.5,5.6-7.6,7.6-5,3.4-10.3,6.3-16.5,7.1-3.3.4-5.3-1.4-7.2-3.3-5.2-5.3-9.2-11.3-13.2-17.4-1.6-2.4-2.5-5.1-3.8-7.6-1.7-3.4,0-6.2,2.3-8.8.2-.2.5-.4.6-.7,1.1-4,4.7-6.2,7.4-9.1.3-.4.7-.8.8-1.2.7-2.9,1.5-5.8,1.1-8.6-.3-2.3.4-4.1,1.8-5.8.5-.6,1-1.1,1-1.9-.3-3.1,2-4.9,4.2-6.7,1.4-1.1,3-2,4.5-3.8"></path>
</symbol>
</svg>